<svg xmlns="http://www.w3.org/2000/svg" xmlns:xlink="http://www.w3.org/1999/xlink" width="500" zoomAndPan="magnify" viewBox="0 0 375 374.999991" height="500" preserveAspectRatio="xMidYMid meet" version="1.0"><path fill="#1837d3" d="M 249.304688 270.015625 C 249.304688 270.015625 259.4375 316.796875 236.585938 336.976562 C 213.734375 357.152344 260.6875 363.839844 271.09375 355.828125 C 281.503906 347.816406 275.476562 277.621094 308.761719 275.550781 Z M 249.304688 270.015625 " fill-opacity="1" fill-rule="nonzero"/><path fill="#2180f4" d="M 357.203125 249.023438 C 339.511719 295.355469 316.789062 278.71875 316.789062 278.71875 C 308.027344 275.933594 294.078125 274.039062 278.085938 272.765625 C 229.882812 268.929688 163.054688 270.75 163.054688 270.75 L 224.601562 104.714844 C 224.601562 104.714844 276.507812 145.75 316.449219 172.375 C 329.433594 181.035156 341.15625 188.167969 349.414062 191.875 C 349.382812 191.875 374.941406 202.703125 357.203125 249.023438 Z M 357.203125 249.023438 " fill-opacity="1" fill-rule="nonzero"/><path fill="#ffe5e3" d="M 229.597656 161.359375 C 227.769531 174.054688 224.585938 186.394531 220.039062 198.386719 C 215.492188 210.378906 209.695312 221.730469 202.648438 232.441406 C 179.640625 266.96875 147.410156 285.457031 121.652344 275.617188 C 88.449219 262.921875 78.601562 207.933594 99.65625 152.789062 C 120.710938 97.644531 164.6875 63.238281 197.890625 75.929688 C 223.484375 85.71875 235.207031 120.628906 229.597656 161.359375 Z M 229.597656 161.359375 " fill-opacity="1" fill-rule="nonzero"/><path fill="#1837d3" d="M 229.5 161.0625 C 229.5 161.0625 179.441406 158.355469 171.148438 156.175781 L 155.394531 192.960938 C 163.066406 196.863281 201.59375 233.042969 201.59375 233.042969 L 202.691406 232.441406 C 209.738281 221.730469 215.535156 210.378906 220.082031 198.386719 C 224.628906 186.394531 227.816406 174.054688 229.640625 161.359375 Z M 229.5 161.0625 " fill-opacity="1" fill-rule="nonzero"/><path fill="#1837d3" d="M 357.203125 249.023438 C 342.535156 287.386719 324.402344 282.566406 318.640625 279.78125 C 316.753906 278.839844 314.789062 278.109375 312.746094 277.589844 C 303.984375 275.398438 291.8125 273.863281 278.085938 272.765625 C 316.800781 234.753906 316.429688 172.375 316.429688 172.375 C 329.410156 181.035156 341.132812 188.167969 349.394531 191.875 C 349.382812 191.875 374.941406 202.703125 357.203125 249.023438 Z M 357.203125 249.023438 " fill-opacity="1" fill-rule="nonzero"/><path fill="#2180f4" d="M 171.164062 156.195312 C 171.699219 156.457031 172.222656 156.75 172.730469 157.070312 C 173.238281 157.390625 173.726562 157.734375 174.199219 158.109375 C 174.667969 158.484375 175.121094 158.882812 175.550781 159.308594 C 175.980469 159.730469 176.390625 160.179688 176.777344 160.648438 C 177.164062 161.121094 177.523438 161.613281 177.863281 162.125 C 178.199219 162.636719 178.511719 163.167969 178.796875 163.71875 C 179.085938 164.269531 179.34375 164.832031 179.574219 165.414062 C 179.808594 165.996094 180.011719 166.589844 180.183594 167.199219 C 180.359375 167.804688 180.507812 168.421875 180.625 169.050781 C 180.742188 169.675781 180.828125 170.3125 180.886719 170.953125 C 180.941406 171.59375 180.96875 172.242188 180.96875 172.890625 C 180.964844 173.539062 180.933594 174.191406 180.871094 174.84375 C 180.808594 175.492188 180.714844 176.144531 180.59375 176.789062 C 180.472656 177.4375 180.320312 178.078125 180.140625 178.714844 C 179.960938 179.351562 179.753906 179.976562 179.515625 180.597656 C 179.28125 181.214844 179.015625 181.824219 178.726562 182.421875 C 178.433594 183.015625 178.117188 183.597656 177.777344 184.167969 C 177.433594 184.734375 177.070312 185.285156 176.679688 185.816406 C 176.289062 186.351562 175.878906 186.867188 175.441406 187.359375 C 175.007812 187.855469 174.554688 188.328125 174.078125 188.777344 C 173.605469 189.226562 173.113281 189.65625 172.601562 190.054688 C 172.09375 190.457031 171.566406 190.835938 171.027344 191.183594 C 170.488281 191.535156 169.933594 191.855469 169.367188 192.152344 C 168.800781 192.445312 168.226562 192.710938 167.640625 192.945312 C 167.050781 193.183594 166.460938 193.386719 165.859375 193.5625 C 165.257812 193.738281 164.652344 193.882812 164.042969 193.996094 C 163.4375 194.109375 162.824219 194.191406 162.214844 194.238281 C 161.601562 194.289062 160.992188 194.308594 160.382812 194.292969 C 159.773438 194.277344 159.171875 194.230469 158.570312 194.152344 C 157.972656 194.074219 157.378906 193.964844 156.796875 193.824219 C 156.210938 193.683594 155.636719 193.511719 155.074219 193.308594 C 154.507812 193.105469 153.957031 192.875 153.417969 192.609375 C 152.878906 192.347656 152.359375 192.058594 151.851562 191.738281 C 151.34375 191.417969 150.855469 191.070312 150.382812 190.695312 C 149.910156 190.324219 149.460938 189.925781 149.03125 189.5 C 148.597656 189.074219 148.191406 188.628906 147.804688 188.15625 C 147.417969 187.6875 147.054688 187.195312 146.71875 186.683594 C 146.382812 186.167969 146.070312 185.636719 145.78125 185.089844 C 145.496094 184.539062 145.238281 183.972656 145.007812 183.390625 C 144.773438 182.8125 144.570312 182.21875 144.394531 181.609375 C 144.21875 181.003906 144.074219 180.386719 143.957031 179.757812 C 143.839844 179.128906 143.753906 178.496094 143.695312 177.855469 C 143.640625 177.210938 143.609375 176.566406 143.613281 175.917969 C 143.617188 175.265625 143.648438 174.617188 143.710938 173.964844 C 143.773438 173.3125 143.867188 172.664062 143.988281 172.015625 C 144.109375 171.371094 144.261719 170.730469 144.441406 170.09375 C 144.621094 169.457031 144.828125 168.828125 145.066406 168.210938 C 145.300781 167.589844 145.566406 166.984375 145.855469 166.386719 C 146.144531 165.789062 146.460938 165.207031 146.804688 164.640625 C 147.144531 164.074219 147.511719 163.523438 147.902344 162.988281 C 148.292969 162.457031 148.703125 161.941406 149.136719 161.445312 C 149.574219 160.953125 150.027344 160.480469 150.5 160.03125 C 150.976562 159.578125 151.46875 159.152344 151.976562 158.75 C 152.488281 158.347656 153.011719 157.972656 153.554688 157.621094 C 154.09375 157.273438 154.648438 156.949219 155.214844 156.65625 C 155.78125 156.363281 156.355469 156.097656 156.941406 155.859375 C 157.527344 155.625 158.121094 155.417969 158.722656 155.242188 C 159.324219 155.066406 159.925781 154.925781 160.535156 154.8125 C 161.144531 154.699219 161.753906 154.617188 162.367188 154.566406 C 162.980469 154.519531 163.589844 154.5 164.199219 154.515625 C 164.804688 154.527344 165.410156 154.574219 166.007812 154.652344 C 166.609375 154.730469 167.199219 154.839844 167.785156 154.980469 C 168.371094 155.125 168.945312 155.296875 169.507812 155.5 C 170.074219 155.699219 170.625 155.933594 171.164062 156.195312 Z M 171.164062 156.195312 " fill-opacity="1" fill-rule="nonzero"/><path fill="#ffe5e3" d="M 125.960938 78.078125 C 125.453125 78.078125 124.953125 78.03125 124.453125 77.9375 C 123.957031 77.84375 123.472656 77.703125 123 77.519531 C 122.527344 77.335938 122.078125 77.113281 121.644531 76.847656 C 121.214844 76.578125 120.8125 76.277344 120.4375 75.933594 C 120.0625 75.59375 119.722656 75.222656 119.417969 74.816406 C 119.113281 74.414062 118.847656 73.984375 118.621094 73.53125 C 118.394531 73.078125 118.210938 72.609375 118.070312 72.121094 C 117.929688 71.636719 117.835938 71.140625 117.785156 70.636719 L 115.988281 51.75 L 103.546875 54.511719 C 103.042969 54.625 102.539062 54.707031 102.027344 54.765625 C 101.519531 54.820312 101.007812 54.847656 100.492188 54.847656 C 99.980469 54.847656 99.46875 54.820312 98.957031 54.765625 C 98.449219 54.710938 97.941406 54.625 97.441406 54.515625 C 96.941406 54.40625 96.449219 54.265625 95.960938 54.101562 C 95.476562 53.9375 95 53.746094 94.535156 53.527344 C 94.070312 53.3125 93.617188 53.070312 93.179688 52.804688 C 92.742188 52.539062 92.316406 52.25 91.910156 51.9375 C 91.503906 51.625 91.113281 51.289062 90.742188 50.933594 C 90.371094 50.578125 90.023438 50.207031 89.691406 49.8125 C 89.363281 49.417969 89.054688 49.007812 88.769531 48.582031 C 88.484375 48.15625 88.226562 47.714844 87.988281 47.257812 C 87.75 46.800781 87.539062 46.335938 87.355469 45.855469 C 87.167969 45.378906 87.007812 44.890625 86.875 44.394531 C 86.742188 43.898438 86.636719 43.398438 86.5625 42.890625 C 86.484375 42.382812 86.433594 41.871094 86.410156 41.359375 L 85.589844 19.917969 C 85.570312 19.378906 85.601562 18.84375 85.6875 18.308594 C 85.769531 17.777344 85.90625 17.257812 86.09375 16.75 C 86.28125 16.242188 86.515625 15.761719 86.796875 15.300781 C 87.082031 14.839844 87.40625 14.410156 87.773438 14.015625 C 88.140625 13.621094 88.539062 13.261719 88.976562 12.945312 C 89.414062 12.628906 89.878906 12.355469 90.367188 12.132812 C 90.859375 11.90625 91.367188 11.730469 91.890625 11.605469 C 92.417969 11.476562 92.949219 11.40625 93.488281 11.382812 C 94.027344 11.363281 94.5625 11.394531 95.097656 11.480469 C 95.628906 11.566406 96.148438 11.699219 96.65625 11.886719 C 97.164062 12.074219 97.644531 12.308594 98.105469 12.59375 C 98.566406 12.875 98.992188 13.199219 99.390625 13.566406 C 99.785156 13.933594 100.144531 14.335938 100.460938 14.773438 C 100.777344 15.210938 101.046875 15.671875 101.273438 16.164062 C 101.5 16.652344 101.675781 17.160156 101.800781 17.6875 C 101.925781 18.210938 102 18.746094 102.023438 19.285156 L 102.734375 37.917969 L 115.035156 35.1875 C 115.519531 35.082031 116.007812 35 116.5 34.941406 C 116.992188 34.886719 117.488281 34.859375 117.984375 34.855469 C 118.480469 34.851562 118.972656 34.871094 119.464844 34.921875 C 119.960938 34.96875 120.449219 35.042969 120.933594 35.144531 C 121.417969 35.242188 121.898438 35.367188 122.371094 35.519531 C 122.84375 35.671875 123.304688 35.84375 123.757812 36.042969 C 124.214844 36.246094 124.65625 36.46875 125.085938 36.714844 C 125.515625 36.960938 125.929688 37.226562 126.332031 37.519531 C 126.734375 37.808594 127.121094 38.117188 127.488281 38.449219 C 127.859375 38.78125 128.210938 39.128906 128.542969 39.496094 C 128.875 39.863281 129.1875 40.25 129.480469 40.648438 C 129.769531 41.050781 130.039062 41.464844 130.289062 41.894531 C 130.535156 42.324219 130.761719 42.765625 130.960938 43.21875 C 131.164062 43.671875 131.339844 44.132812 131.492188 44.605469 C 131.644531 45.078125 131.773438 45.554688 131.875 46.039062 C 131.976562 46.527344 132.054688 47.015625 132.105469 47.507812 L 134.144531 69.046875 C 134.195312 69.582031 134.191406 70.121094 134.140625 70.65625 C 134.085938 71.195312 133.976562 71.722656 133.820312 72.238281 C 133.664062 72.753906 133.457031 73.25 133.199219 73.722656 C 132.945312 74.199219 132.644531 74.644531 132.300781 75.0625 C 131.957031 75.476562 131.578125 75.855469 131.160156 76.199219 C 130.742188 76.539062 130.292969 76.835938 129.816406 77.089844 C 129.34375 77.34375 128.84375 77.546875 128.328125 77.703125 C 127.8125 77.859375 127.285156 77.960938 126.75 78.011719 Z M 125.960938 78.078125 " fill-opacity="1" fill-rule="nonzero"/><path fill="#ffe5e3" d="M 71.347656 151.1875 C 70.085938 151.191406 68.890625 150.914062 67.753906 150.367188 C 66.621094 149.816406 65.664062 149.042969 64.882812 148.054688 L 53.152344 133.144531 L 44.1875 142.210938 C 43.828125 142.578125 43.445312 142.921875 43.046875 143.246094 C 42.648438 143.570312 42.234375 143.871094 41.800781 144.148438 C 41.367188 144.429688 40.921875 144.683594 40.460938 144.914062 C 40 145.140625 39.53125 145.347656 39.046875 145.523438 C 38.566406 145.703125 38.074219 145.851562 37.574219 145.976562 C 37.074219 146.101562 36.570312 146.199219 36.0625 146.265625 C 35.550781 146.335938 35.039062 146.378906 34.527344 146.390625 C 34.011719 146.402344 33.5 146.386719 32.984375 146.34375 C 32.472656 146.300781 31.964844 146.230469 31.460938 146.128906 C 30.957031 146.03125 30.457031 145.902344 29.96875 145.75 C 29.476562 145.597656 28.996094 145.414062 28.523438 145.207031 C 28.054688 145.003906 27.59375 144.769531 27.148438 144.515625 C 26.703125 144.257812 26.273438 143.976562 25.859375 143.671875 C 25.445312 143.367188 25.046875 143.042969 24.667969 142.695312 C 24.289062 142.347656 23.929688 141.980469 23.589844 141.59375 C 23.25 141.207031 22.933594 140.800781 22.640625 140.378906 L 10.347656 122.84375 C 10.039062 122.402344 9.777344 121.933594 9.558594 121.4375 C 9.339844 120.945312 9.175781 120.433594 9.058594 119.90625 C 8.941406 119.378906 8.878906 118.847656 8.867188 118.304688 C 8.855469 117.765625 8.894531 117.230469 8.988281 116.699219 C 9.082031 116.167969 9.226562 115.652344 9.421875 115.148438 C 9.617188 114.644531 9.863281 114.164062 10.152344 113.710938 C 10.441406 113.253906 10.773438 112.832031 11.148438 112.441406 C 11.519531 112.054688 11.925781 111.703125 12.371094 111.394531 C 12.8125 111.085938 13.28125 110.820312 13.773438 110.605469 C 14.265625 110.386719 14.777344 110.21875 15.304688 110.101562 C 15.832031 109.988281 16.363281 109.921875 16.902344 109.910156 C 17.441406 109.898438 17.976562 109.941406 18.507812 110.035156 C 19.039062 110.128906 19.558594 110.273438 20.0625 110.46875 C 20.5625 110.664062 21.042969 110.90625 21.496094 111.199219 C 21.953125 111.488281 22.375 111.820312 22.765625 112.191406 C 23.152344 112.566406 23.503906 112.972656 23.8125 113.417969 L 34.484375 128.621094 L 43.34375 119.664062 C 43.695312 119.308594 44.0625 118.976562 44.449219 118.660156 C 44.835938 118.347656 45.234375 118.054688 45.652344 117.78125 C 46.070312 117.507812 46.5 117.257812 46.941406 117.03125 C 47.386719 116.804688 47.839844 116.601562 48.304688 116.425781 C 48.769531 116.246094 49.242188 116.09375 49.722656 115.964844 C 50.203125 115.835938 50.6875 115.734375 51.179688 115.65625 C 51.671875 115.578125 52.164062 115.527344 52.664062 115.503906 C 53.160156 115.480469 53.65625 115.480469 54.152344 115.507812 C 54.652344 115.535156 55.144531 115.589844 55.636719 115.671875 C 56.125 115.753906 56.613281 115.859375 57.09375 115.992188 C 57.570312 116.121094 58.042969 116.28125 58.507812 116.460938 C 58.96875 116.644531 59.421875 116.847656 59.863281 117.078125 C 60.304688 117.308594 60.734375 117.5625 61.148438 117.835938 C 61.5625 118.113281 61.960938 118.410156 62.34375 118.726562 C 62.726562 119.042969 63.09375 119.382812 63.441406 119.738281 C 63.789062 120.09375 64.117188 120.46875 64.421875 120.859375 L 77.800781 137.871094 C 78.277344 138.476562 78.664062 139.136719 78.953125 139.847656 C 79.246094 140.5625 79.433594 141.304688 79.515625 142.070312 C 79.597656 142.835938 79.574219 143.601562 79.441406 144.359375 C 79.3125 145.121094 79.078125 145.847656 78.738281 146.542969 C 78.402344 147.234375 77.976562 147.871094 77.460938 148.445312 C 76.945312 149.015625 76.363281 149.507812 75.707031 149.917969 C 75.054688 150.328125 74.355469 150.636719 73.617188 150.847656 C 72.875 151.0625 72.117188 151.167969 71.347656 151.164062 Z M 71.347656 151.1875 " fill-opacity="1" fill-rule="nonzero"/><path fill="#ffe5e3" d="M 31.285156 264.105469 C 29.382812 264.109375 27.558594 263.742188 25.804688 263.011719 L 6.085938 254.691406 C 5.589844 254.480469 5.117188 254.226562 4.671875 253.921875 C 4.226562 253.621094 3.8125 253.277344 3.433594 252.894531 C 3.054688 252.511719 2.71875 252.09375 2.421875 251.644531 C 2.125 251.191406 1.875 250.71875 1.671875 250.21875 C 1.46875 249.71875 1.316406 249.207031 1.214844 248.675781 C 1.109375 248.144531 1.0625 247.613281 1.0625 247.074219 C 1.066406 246.535156 1.121094 246 1.230469 245.472656 C 1.339844 244.941406 1.496094 244.429688 1.707031 243.933594 C 1.914062 243.4375 2.167969 242.964844 2.472656 242.515625 C 2.773438 242.070312 3.113281 241.65625 3.496094 241.277344 C 3.878906 240.898438 4.296875 240.558594 4.746094 240.261719 C 5.195312 239.964844 5.667969 239.710938 6.167969 239.507812 C 6.667969 239.304688 7.179688 239.152344 7.710938 239.046875 C 8.238281 238.945312 8.773438 238.894531 9.3125 238.894531 C 9.851562 238.898438 10.386719 238.953125 10.914062 239.058594 C 11.441406 239.167969 11.953125 239.324219 12.453125 239.53125 L 29.617188 246.757812 L 32.347656 234.445312 C 32.453125 233.960938 32.589844 233.480469 32.746094 233.011719 C 32.90625 232.539062 33.089844 232.078125 33.296875 231.625 C 33.503906 231.171875 33.734375 230.734375 33.992188 230.304688 C 34.246094 229.878906 34.519531 229.464844 34.820312 229.066406 C 35.117188 228.667969 35.433594 228.285156 35.773438 227.921875 C 36.113281 227.554688 36.46875 227.210938 36.84375 226.882812 C 37.21875 226.554688 37.609375 226.25 38.015625 225.964844 C 38.425781 225.679688 38.847656 225.414062 39.28125 225.175781 C 39.714844 224.933594 40.164062 224.714844 40.621094 224.523438 C 41.078125 224.328125 41.546875 224.160156 42.023438 224.015625 C 42.5 223.871094 42.980469 223.753906 43.46875 223.660156 C 43.957031 223.566406 44.449219 223.5 44.945312 223.457031 C 45.441406 223.417969 45.9375 223.402344 46.4375 223.414062 C 46.933594 223.425781 47.429688 223.464844 47.921875 223.527344 C 48.414062 223.589844 48.902344 223.679688 49.386719 223.796875 C 49.871094 223.914062 50.347656 224.054688 50.816406 224.21875 L 71.195312 231.476562 C 71.722656 231.640625 72.230469 231.855469 72.714844 232.121094 C 73.199219 232.386719 73.652344 232.699219 74.074219 233.058594 C 74.496094 233.417969 74.875 233.8125 75.21875 234.246094 C 75.558594 234.683594 75.855469 235.148438 76.101562 235.640625 C 76.351562 236.136719 76.546875 236.652344 76.691406 237.183594 C 76.835938 237.71875 76.921875 238.261719 76.957031 238.816406 C 76.992188 239.367188 76.972656 239.917969 76.894531 240.464844 C 76.820312 241.011719 76.6875 241.546875 76.503906 242.070312 C 76.320312 242.589844 76.085938 243.089844 75.800781 243.5625 C 75.515625 244.039062 75.183594 244.476562 74.8125 244.886719 C 74.4375 245.292969 74.027344 245.660156 73.578125 245.984375 C 73.128906 246.308594 72.65625 246.585938 72.152344 246.8125 C 71.648438 247.042969 71.125 247.21875 70.585938 247.339844 C 70.046875 247.464844 69.5 247.53125 68.949219 247.546875 C 68.394531 247.558594 67.847656 247.515625 67.304688 247.417969 C 66.757812 247.320312 66.230469 247.167969 65.714844 246.964844 L 47.847656 240.605469 L 45.085938 253.070312 C 44.914062 253.847656 44.679688 254.601562 44.378906 255.339844 C 44.078125 256.074219 43.71875 256.78125 43.296875 257.457031 C 42.878906 258.132812 42.402344 258.765625 41.875 259.363281 C 41.347656 259.957031 40.777344 260.503906 40.15625 261 C 39.535156 261.5 38.878906 261.941406 38.183594 262.328125 C 37.488281 262.714844 36.765625 263.042969 36.015625 263.304688 C 35.265625 263.570312 34.5 263.769531 33.71875 263.902344 C 32.933594 264.039062 32.144531 264.105469 31.347656 264.105469 Z M 31.285156 264.105469 " fill-opacity="1" fill-rule="nonzero"/></svg>