<svg xmlns="http://www.w3.org/2000/svg" xmlns:xlink="http://www.w3.org/1999/xlink" width="500" zoomAndPan="magnify" viewBox="0 0 375 374.999991" height="500" preserveAspectRatio="xMidYMid meet" version="1.0"><defs><clipPath id="ac9462f112"><path d="M 241 253 L 362.933594 253 L 362.933594 374.824219 L 241 374.824219 Z M 241 253 " clip-rule="nonzero"/></clipPath><clipPath id="30c89ca18f"><path d="M 11.933594 163 L 188 163 L 188 230 L 11.933594 230 Z M 11.933594 163 " clip-rule="nonzero"/></clipPath><clipPath id="0c6c2a6be1"><path d="M 187 163 L 362.933594 163 L 362.933594 230 L 187 230 Z M 187 163 " clip-rule="nonzero"/></clipPath></defs><path fill="#6687b3" d="M 326.621094 163.128906 L 187.433594 187.324219 L 48.242188 163.128906 L 42.191406 169.179688 L 42.191406 320.386719 L 187.433594 356.675781 L 332.671875 320.386719 L 332.671875 169.179688 Z M 326.621094 163.128906 " fill-opacity="1" fill-rule="nonzero"/><path fill="#5e7da6" d="M 326.621094 163.128906 L 187.433594 187.324219 L 187.433594 356.675781 L 332.671875 320.386719 L 332.671875 169.179688 Z M 326.621094 163.128906 " fill-opacity="1" fill-rule="nonzero"/><g clip-path="url(#ac9462f112)"><path fill="#526273" d="M 354.777344 303.339844 C 354.1875 303.332031 353.613281 303.230469 353.058594 303.035156 C 352.503906 302.84375 351.992188 302.566406 351.523438 302.210938 C 351.054688 301.851562 350.65625 301.429688 350.324219 300.945312 C 349.992188 300.460938 349.742188 299.933594 349.578125 299.371094 C 348.726562 296.691406 347.648438 294.101562 346.351562 291.605469 C 346.066406 291.089844 345.871094 290.542969 345.761719 289.960938 C 345.652344 289.382812 345.636719 288.800781 345.714844 288.21875 C 345.792969 287.632812 345.960938 287.074219 346.214844 286.546875 C 346.472656 286.015625 346.804688 285.539062 347.214844 285.113281 L 352.988281 279.347656 L 338.484375 264.851562 L 337.425781 263.792969 L 331.65625 269.5625 C 331.230469 269.972656 330.753906 270.304688 330.222656 270.5625 C 329.691406 270.816406 329.132812 270.984375 328.550781 271.0625 C 327.964844 271.140625 327.382812 271.125 326.804688 271.015625 C 326.222656 270.90625 325.675781 270.710938 325.160156 270.425781 C 322.664062 269.128906 320.074219 268.050781 317.390625 267.199219 C 316.824219 267.035156 316.300781 266.789062 315.8125 266.457031 C 315.328125 266.125 314.90625 265.722656 314.550781 265.257812 C 314.191406 264.789062 313.917969 264.277344 313.722656 263.722656 C 313.53125 263.167969 313.425781 262.59375 313.417969 262.007812 L 313.417969 253.855469 L 291.410156 253.855469 L 291.410156 262.007812 C 291.402344 262.59375 291.300781 263.167969 291.105469 263.722656 C 290.914062 264.277344 290.636719 264.789062 290.28125 265.257812 C 289.921875 265.722656 289.5 266.125 289.015625 266.457031 C 288.53125 266.789062 288.003906 267.035156 287.4375 267.199219 C 284.757812 268.050781 282.167969 269.128906 279.667969 270.425781 C 279.152344 270.710938 278.605469 270.90625 278.027344 271.015625 C 277.445312 271.125 276.863281 271.140625 276.28125 271.0625 C 275.695312 270.984375 275.136719 270.816406 274.605469 270.5625 C 274.074219 270.304688 273.597656 269.972656 273.175781 269.5625 L 267.402344 263.792969 L 251.84375 279.347656 L 257.613281 285.113281 C 258.023438 285.539062 258.355469 286.015625 258.613281 286.546875 C 258.871094 287.074219 259.039062 287.632812 259.113281 288.21875 C 259.191406 288.800781 259.175781 289.382812 259.070312 289.960938 C 258.960938 290.542969 258.761719 291.089844 258.476562 291.605469 C 257.179688 294.101562 256.105469 296.691406 255.25 299.371094 C 255.085938 299.933594 254.839844 300.460938 254.503906 300.945312 C 254.171875 301.429688 253.773438 301.851562 253.304688 302.210938 C 252.835938 302.566406 252.324219 302.84375 251.769531 303.035156 C 251.214844 303.230469 250.640625 303.332031 250.054688 303.339844 L 241.898438 303.339844 L 241.898438 325.335938 L 250.054688 325.335938 C 250.640625 325.34375 251.214844 325.445312 251.769531 325.640625 C 252.324219 325.832031 252.835938 326.109375 253.304688 326.464844 C 253.773438 326.824219 254.171875 327.242188 254.503906 327.730469 C 254.839844 328.214844 255.085938 328.738281 255.25 329.304688 C 256.105469 331.984375 257.179688 334.574219 258.476562 337.070312 C 258.761719 337.585938 258.960938 338.132812 259.070312 338.710938 C 259.175781 339.292969 259.191406 339.875 259.113281 340.457031 C 259.039062 341.042969 258.871094 341.597656 258.613281 342.128906 C 258.355469 342.660156 258.023438 343.136719 257.613281 343.5625 L 251.84375 349.328125 L 267.402344 364.882812 L 273.175781 359.113281 C 273.597656 358.703125 274.074219 358.371094 274.605469 358.113281 C 275.136719 357.855469 275.695312 357.691406 276.28125 357.613281 C 276.863281 357.535156 277.445312 357.550781 278.027344 357.660156 C 278.605469 357.769531 279.152344 357.964844 279.667969 358.25 C 282.167969 359.546875 284.757812 360.621094 287.4375 361.472656 C 288.003906 361.636719 288.53125 361.886719 289.015625 362.21875 C 289.5 362.550781 289.921875 362.953125 290.28125 363.417969 C 290.636719 363.886719 290.914062 364.398438 291.105469 364.953125 C 291.300781 365.507812 291.402344 366.082031 291.410156 366.667969 L 291.410156 374.820312 L 313.417969 374.820312 L 313.417969 366.667969 C 313.425781 366.082031 313.53125 365.507812 313.722656 364.953125 C 313.917969 364.398438 314.191406 363.886719 314.550781 363.417969 C 314.90625 362.953125 315.328125 362.550781 315.8125 362.21875 C 316.300781 361.886719 316.824219 361.636719 317.390625 361.472656 C 320.074219 360.621094 322.664062 359.546875 325.160156 358.25 C 325.675781 357.964844 326.222656 357.769531 326.804688 357.660156 C 327.382812 357.550781 327.964844 357.535156 328.550781 357.613281 C 329.132812 357.691406 329.691406 357.855469 330.222656 358.113281 C 330.753906 358.371094 331.230469 358.703125 331.65625 359.113281 L 337.425781 364.882812 L 352.988281 349.328125 L 347.214844 343.5625 C 346.804688 343.136719 346.472656 342.660156 346.214844 342.128906 C 345.960938 341.597656 345.792969 341.042969 345.714844 340.457031 C 345.636719 339.875 345.652344 339.292969 345.761719 338.710938 C 345.871094 338.132812 346.066406 337.585938 346.351562 337.070312 C 347.648438 334.574219 348.726562 331.984375 349.578125 329.304688 C 349.742188 328.738281 349.992188 328.214844 350.324219 327.730469 C 350.65625 327.242188 351.054688 326.824219 351.523438 326.464844 C 351.992188 326.109375 352.503906 325.832031 353.058594 325.640625 C 353.613281 325.445312 354.1875 325.34375 354.777344 325.335938 L 362.933594 325.335938 L 362.933594 303.339844 Z M 302.414062 341.554688 C 301.523438 341.554688 300.632812 341.511719 299.746094 341.421875 C 298.859375 341.335938 297.976562 341.207031 297.101562 341.03125 C 296.226562 340.859375 295.363281 340.640625 294.507812 340.382812 C 293.65625 340.125 292.816406 339.824219 291.992188 339.484375 C 291.167969 339.140625 290.363281 338.761719 289.578125 338.339844 C 288.789062 337.921875 288.027344 337.464844 287.285156 336.96875 C 286.542969 336.472656 285.828125 335.941406 285.136719 335.375 C 284.449219 334.8125 283.789062 334.214844 283.15625 333.582031 C 282.527344 332.953125 281.929688 332.292969 281.363281 331.605469 C 280.796875 330.914062 280.265625 330.199219 279.769531 329.457031 C 279.277344 328.71875 278.816406 327.953125 278.398438 327.167969 C 277.976562 326.382812 277.597656 325.578125 277.253906 324.753906 C 276.914062 323.929688 276.613281 323.089844 276.355469 322.238281 C 276.09375 321.386719 275.878906 320.523438 275.703125 319.648438 C 275.53125 318.773438 275.398438 317.890625 275.3125 317.003906 C 275.226562 316.117188 275.183594 315.230469 275.183594 314.335938 C 275.183594 313.445312 275.226562 312.558594 275.3125 311.667969 C 275.398438 310.78125 275.53125 309.902344 275.703125 309.027344 C 275.878906 308.152344 276.09375 307.289062 276.355469 306.4375 C 276.613281 305.582031 276.914062 304.746094 277.253906 303.921875 C 277.597656 303.097656 277.976562 302.292969 278.398438 301.507812 C 278.816406 300.722656 279.277344 299.957031 279.769531 299.214844 C 280.265625 298.476562 280.796875 297.761719 281.363281 297.070312 C 281.929688 296.382812 282.527344 295.722656 283.15625 295.09375 C 283.789062 294.460938 284.449219 293.863281 285.136719 293.296875 C 285.828125 292.734375 286.542969 292.203125 287.285156 291.707031 C 288.027344 291.210938 288.789062 290.753906 289.578125 290.332031 C 290.363281 289.914062 291.167969 289.53125 291.992188 289.191406 C 292.816406 288.851562 293.65625 288.550781 294.507812 288.292969 C 295.363281 288.035156 296.226562 287.816406 297.101562 287.644531 C 297.976562 287.46875 298.859375 287.339844 299.746094 287.25 C 300.632812 287.164062 301.523438 287.121094 302.414062 287.121094 C 303.304688 287.121094 304.195312 287.164062 305.082031 287.25 C 305.972656 287.339844 306.851562 287.46875 307.726562 287.644531 C 308.601562 287.816406 309.464844 288.035156 310.320312 288.292969 C 311.171875 288.550781 312.011719 288.851562 312.835938 289.191406 C 313.660156 289.53125 314.464844 289.914062 315.253906 290.332031 C 316.039062 290.753906 316.800781 291.210938 317.542969 291.707031 C 318.285156 292.203125 319 292.734375 319.691406 293.296875 C 320.378906 293.863281 321.039062 294.460938 321.671875 295.09375 C 322.300781 295.722656 322.898438 296.382812 323.464844 297.070312 C 324.03125 297.761719 324.5625 298.476562 325.058594 299.214844 C 325.554688 299.957031 326.011719 300.722656 326.433594 301.507812 C 326.851562 302.292969 327.234375 303.097656 327.574219 303.921875 C 327.914062 304.746094 328.214844 305.582031 328.476562 306.4375 C 328.734375 307.289062 328.949219 308.152344 329.125 309.027344 C 329.296875 309.902344 329.429688 310.78125 329.515625 311.667969 C 329.605469 312.558594 329.648438 313.445312 329.648438 314.335938 C 329.648438 315.230469 329.605469 316.117188 329.515625 317.003906 C 329.429688 317.890625 329.296875 318.773438 329.125 319.648438 C 328.949219 320.523438 328.734375 321.386719 328.476562 322.238281 C 328.214844 323.089844 327.914062 323.929688 327.574219 324.753906 C 327.234375 325.578125 326.851562 326.382812 326.433594 327.167969 C 326.011719 327.953125 325.554688 328.71875 325.058594 329.457031 C 324.5625 330.199219 324.03125 330.914062 323.464844 331.605469 C 322.898438 332.292969 322.300781 332.953125 321.671875 333.582031 C 321.039062 334.214844 320.378906 334.8125 319.691406 335.375 C 319 335.941406 318.285156 336.472656 317.542969 336.96875 C 316.800781 337.464844 316.039062 337.921875 315.253906 338.339844 C 314.464844 338.761719 313.660156 339.140625 312.835938 339.484375 C 312.011719 339.824219 311.171875 340.125 310.320312 340.382812 C 309.464844 340.640625 308.601562 340.859375 307.726562 341.03125 C 306.851562 341.207031 305.972656 341.335938 305.082031 341.421875 C 304.195312 341.511719 303.304688 341.554688 302.414062 341.554688 Z M 302.414062 341.554688 " fill-opacity="1" fill-rule="nonzero"/></g><path fill="#e6e6e6" d="M 329.648438 314.335938 C 329.648438 315.230469 329.605469 316.117188 329.515625 317.003906 C 329.429688 317.890625 329.296875 318.773438 329.125 319.648438 C 328.949219 320.523438 328.734375 321.386719 328.476562 322.238281 C 328.214844 323.089844 327.914062 323.929688 327.574219 324.753906 C 327.234375 325.578125 326.851562 326.382812 326.433594 327.167969 C 326.011719 327.953125 325.554688 328.71875 325.058594 329.457031 C 324.5625 330.199219 324.03125 330.914062 323.464844 331.605469 C 322.898438 332.292969 322.300781 332.953125 321.671875 333.582031 C 321.039062 334.214844 320.378906 334.8125 319.691406 335.375 C 319 335.941406 318.285156 336.472656 317.542969 336.96875 C 316.800781 337.464844 316.039062 337.921875 315.253906 338.339844 C 314.464844 338.761719 313.660156 339.140625 312.835938 339.484375 C 312.011719 339.824219 311.171875 340.125 310.320312 340.382812 C 309.464844 340.640625 308.601562 340.859375 307.726562 341.03125 C 306.851562 341.207031 305.972656 341.335938 305.082031 341.421875 C 304.195312 341.511719 303.304688 341.554688 302.414062 341.554688 C 301.523438 341.554688 300.632812 341.511719 299.746094 341.421875 C 298.859375 341.335938 297.976562 341.207031 297.101562 341.03125 C 296.226562 340.859375 295.363281 340.640625 294.507812 340.382812 C 293.65625 340.125 292.816406 339.824219 291.992188 339.484375 C 291.167969 339.140625 290.363281 338.761719 289.578125 338.339844 C 288.789062 337.921875 288.027344 337.464844 287.285156 336.96875 C 286.542969 336.472656 285.828125 335.941406 285.136719 335.375 C 284.449219 334.8125 283.789062 334.214844 283.15625 333.582031 C 282.527344 332.953125 281.929688 332.292969 281.363281 331.605469 C 280.796875 330.914062 280.265625 330.199219 279.769531 329.457031 C 279.277344 328.71875 278.816406 327.953125 278.398438 327.167969 C 277.976562 326.382812 277.597656 325.578125 277.253906 324.753906 C 276.914062 323.929688 276.613281 323.089844 276.355469 322.238281 C 276.09375 321.386719 275.878906 320.523438 275.703125 319.648438 C 275.53125 318.773438 275.398438 317.890625 275.3125 317.003906 C 275.226562 316.117188 275.183594 315.230469 275.183594 314.335938 C 275.183594 313.445312 275.226562 312.558594 275.3125 311.667969 C 275.398438 310.78125 275.53125 309.902344 275.703125 309.027344 C 275.878906 308.152344 276.09375 307.289062 276.355469 306.4375 C 276.613281 305.582031 276.914062 304.746094 277.253906 303.921875 C 277.597656 303.097656 277.976562 302.292969 278.398438 301.507812 C 278.816406 300.722656 279.277344 299.957031 279.769531 299.214844 C 280.265625 298.476562 280.796875 297.761719 281.363281 297.070312 C 281.929688 296.382812 282.527344 295.722656 283.15625 295.09375 C 283.789062 294.460938 284.449219 293.863281 285.136719 293.296875 C 285.828125 292.734375 286.542969 292.203125 287.285156 291.707031 C 288.027344 291.210938 288.789062 290.753906 289.578125 290.332031 C 290.363281 289.914062 291.167969 289.53125 291.992188 289.191406 C 292.816406 288.851562 293.65625 288.550781 294.507812 288.292969 C 295.363281 288.035156 296.226562 287.816406 297.101562 287.644531 C 297.976562 287.46875 298.859375 287.339844 299.746094 287.25 C 300.632812 287.164062 301.523438 287.121094 302.414062 287.121094 C 303.304688 287.121094 304.195312 287.164062 305.082031 287.25 C 305.972656 287.339844 306.851562 287.46875 307.726562 287.644531 C 308.601562 287.816406 309.464844 288.035156 310.320312 288.292969 C 311.171875 288.550781 312.011719 288.851562 312.835938 289.191406 C 313.660156 289.53125 314.464844 289.914062 315.253906 290.332031 C 316.039062 290.753906 316.800781 291.210938 317.542969 291.707031 C 318.285156 292.203125 319 292.734375 319.691406 293.296875 C 320.378906 293.863281 321.039062 294.460938 321.671875 295.09375 C 322.300781 295.722656 322.898438 296.382812 323.464844 297.070312 C 324.03125 297.761719 324.5625 298.476562 325.058594 299.214844 C 325.554688 299.957031 326.011719 300.722656 326.433594 301.507812 C 326.851562 302.292969 327.234375 303.097656 327.574219 303.921875 C 327.914062 304.746094 328.214844 305.582031 328.476562 306.4375 C 328.734375 307.289062 328.949219 308.152344 329.125 309.027344 C 329.296875 309.902344 329.429688 310.78125 329.515625 311.667969 C 329.605469 312.558594 329.648438 313.445312 329.648438 314.335938 Z M 329.648438 314.335938 " fill-opacity="1" fill-rule="nonzero"/><path fill="#ccdbf0" d="M 187.433594 138.9375 L 48.242188 163.128906 L 187.433594 187.324219 L 326.621094 163.128906 Z M 187.433594 138.9375 " fill-opacity="1" fill-rule="nonzero"/><path fill="#c1cfe3" d="M 187.433594 138.9375 L 187.433594 187.324219 L 326.621094 163.128906 Z M 187.433594 138.9375 " fill-opacity="1" fill-rule="nonzero"/><g clip-path="url(#30c89ca18f)"><path fill="#759acc" d="M 48.242188 163.128906 L 187.433594 187.324219 L 151.121094 229.660156 L 11.933594 199.421875 Z M 48.242188 163.128906 " fill-opacity="1" fill-rule="nonzero"/></g><g clip-path="url(#0c6c2a6be1)"><path fill="#759acc" d="M 326.621094 163.128906 L 187.433594 187.324219 L 223.742188 229.660156 L 362.933594 199.421875 Z M 326.621094 163.128906 " fill-opacity="1" fill-rule="nonzero"/></g><path fill="#ffe38f" d="M 182.894531 -0.171875 L 191.96875 -0.171875 L 191.96875 17.972656 L 182.894531 17.972656 Z M 182.894531 -0.171875 " fill-opacity="1" fill-rule="nonzero"/><path fill="#ffe38f" d="M 247.949219 73.917969 L 266.105469 73.917969 L 266.105469 82.992188 L 247.949219 82.992188 Z M 247.949219 73.917969 " fill-opacity="1" fill-rule="nonzero"/><path fill="#ffe38f" d="M 108.757812 73.917969 L 126.914062 73.917969 L 126.914062 82.992188 L 108.757812 82.992188 Z M 108.757812 73.917969 " fill-opacity="1" fill-rule="nonzero"/><path fill="#ffe38f" d="M 128.589844 26.0625 L 135.011719 19.648438 L 147.847656 32.476562 L 141.429688 38.894531 Z M 128.589844 26.0625 " fill-opacity="1" fill-rule="nonzero"/><path fill="#ffe38f" d="M 227.015625 32.476562 L 239.855469 19.648438 L 246.273438 26.0625 L 233.433594 38.894531 Z M 227.015625 32.476562 " fill-opacity="1" fill-rule="nonzero"/><path fill="#f0d584" d="M 235.84375 78.453125 C 235.847656 77.429688 235.816406 76.402344 235.75 75.378906 C 235.6875 74.355469 235.589844 73.332031 235.460938 72.3125 C 235.332031 71.296875 235.171875 70.28125 234.976562 69.273438 C 234.785156 68.265625 234.558594 67.265625 234.300781 66.269531 C 234.042969 65.277344 233.757812 64.292969 233.4375 63.316406 C 233.117188 62.339844 232.765625 61.378906 232.382812 60.425781 C 232.003906 59.472656 231.589844 58.53125 231.148438 57.605469 C 230.710938 56.675781 230.238281 55.765625 229.738281 54.867188 C 229.238281 53.972656 228.714844 53.089844 228.15625 52.226562 C 227.601562 51.363281 227.019531 50.519531 226.410156 49.691406 C 225.800781 48.867188 225.167969 48.058594 224.507812 47.273438 C 223.847656 46.488281 223.160156 45.722656 222.453125 44.980469 C 221.742188 44.238281 221.011719 43.519531 220.253906 42.824219 C 219.5 42.125 218.722656 41.457031 217.925781 40.808594 C 217.128906 40.160156 216.3125 39.542969 215.472656 38.945312 C 214.636719 38.351562 213.78125 37.785156 212.910156 37.246094 C 212.035156 36.703125 211.144531 36.191406 210.238281 35.707031 C 209.332031 35.226562 208.414062 34.769531 207.476562 34.34375 C 206.542969 33.921875 205.59375 33.523438 204.636719 33.160156 C 203.675781 32.796875 202.703125 32.460938 201.722656 32.160156 C 200.742188 31.855469 199.753906 31.582031 198.753906 31.34375 C 197.753906 31.101562 196.75 30.894531 195.738281 30.71875 C 194.726562 30.542969 193.710938 30.398438 192.6875 30.289062 C 191.667969 30.175781 190.644531 30.097656 189.617188 30.050781 C 188.59375 30.003906 187.566406 29.988281 186.539062 30.007812 C 185.511719 30.027344 184.488281 30.078125 183.460938 30.164062 C 182.4375 30.246094 181.417969 30.363281 180.402344 30.511719 C 179.386719 30.660156 178.375 30.84375 177.371094 31.054688 C 176.367188 31.269531 175.371094 31.515625 174.378906 31.789062 C 173.390625 32.066406 172.414062 32.375 171.441406 32.714844 C 170.472656 33.050781 169.515625 33.421875 168.570312 33.820312 C 167.625 34.222656 166.691406 34.652344 165.773438 35.109375 C 164.855469 35.570312 163.949219 36.058594 163.0625 36.574219 C 162.175781 37.089844 161.304688 37.632812 160.453125 38.207031 C 159.597656 38.777344 158.765625 39.375 157.949219 40 C 157.136719 40.625 156.339844 41.277344 155.566406 41.953125 C 154.792969 42.625 154.042969 43.328125 153.3125 44.050781 C 152.585938 44.773438 151.878906 45.519531 151.199219 46.285156 C 150.515625 47.054688 149.859375 47.84375 149.230469 48.652344 C 148.597656 49.460938 147.992188 50.292969 147.414062 51.140625 C 146.835938 51.988281 146.285156 52.855469 145.761719 53.738281 C 145.238281 54.621094 144.746094 55.519531 144.277344 56.433594 C 143.8125 57.347656 143.375 58.277344 142.96875 59.21875 C 142.5625 60.164062 142.1875 61.117188 141.839844 62.085938 C 141.492188 63.050781 141.179688 64.027344 140.894531 65.011719 C 140.609375 66 140.359375 66.996094 140.136719 67.996094 C 139.917969 69 139.726562 70.007812 139.570312 71.023438 C 139.414062 72.039062 139.292969 73.054688 139.199219 74.078125 C 139.109375 75.101562 139.050781 76.125 139.023438 77.152344 C 138.996094 78.175781 139.003906 79.203125 139.042969 80.230469 C 139.082031 81.253906 139.152344 82.277344 139.257812 83.300781 C 139.359375 84.320312 139.496094 85.335938 139.667969 86.351562 C 139.835938 87.363281 140.035156 88.367188 140.269531 89.367188 C 140.503906 90.367188 140.765625 91.359375 141.0625 92.34375 C 141.359375 93.324219 141.6875 94.296875 142.042969 95.261719 C 142.402344 96.222656 142.789062 97.171875 143.207031 98.109375 C 143.628906 99.046875 144.074219 99.96875 144.550781 100.878906 C 145.03125 101.789062 145.535156 102.679688 146.070312 103.558594 C 146.605469 104.433594 147.164062 105.292969 147.753906 106.136719 C 148.34375 106.976562 148.957031 107.796875 149.597656 108.597656 C 150.238281 109.402344 150.90625 110.183594 151.597656 110.941406 C 152.289062 111.703125 153.003906 112.4375 153.738281 113.152344 C 154.476562 113.867188 155.238281 114.554688 156.019531 115.222656 C 156.800781 115.886719 157.601562 116.527344 158.425781 117.144531 C 159.171875 117.699219 159.84375 118.335938 160.4375 119.050781 C 161.035156 119.761719 161.542969 120.535156 161.960938 121.367188 C 162.375 122.199219 162.691406 123.070312 162.90625 123.972656 C 163.117188 124.878906 163.226562 125.796875 163.226562 126.726562 L 163.226562 132.890625 L 211.640625 132.890625 L 211.640625 126.738281 C 211.636719 125.808594 211.742188 124.890625 211.953125 123.988281 C 212.164062 123.085938 212.480469 122.214844 212.894531 121.386719 C 213.308594 120.554688 213.8125 119.78125 214.40625 119.070312 C 215 118.355469 215.667969 117.71875 216.414062 117.164062 C 217.914062 116.042969 219.347656 114.839844 220.710938 113.554688 C 222.074219 112.269531 223.359375 110.90625 224.5625 109.472656 C 225.765625 108.035156 226.882812 106.535156 227.914062 104.96875 C 228.945312 103.40625 229.878906 101.785156 230.71875 100.109375 C 231.558594 98.4375 232.300781 96.71875 232.941406 94.957031 C 233.582031 93.195312 234.117188 91.40625 234.550781 89.582031 C 234.980469 87.757812 235.304688 85.917969 235.523438 84.054688 C 235.738281 82.195312 235.847656 80.328125 235.84375 78.453125 Z M 235.84375 78.453125 " fill-opacity="1" fill-rule="nonzero"/><path fill="#495766" d="M 163.226562 132.890625 L 211.640625 132.890625 L 211.640625 144.984375 L 163.226562 144.984375 Z M 163.226562 132.890625 " fill-opacity="1" fill-rule="nonzero"/><path fill="#526073" d="M 163.226562 132.890625 L 163.226562 144.984375 C 163.226562 145.578125 163.253906 146.171875 163.3125 146.765625 C 163.371094 147.355469 163.457031 147.941406 163.574219 148.527344 C 163.691406 149.109375 163.835938 149.683594 164.007812 150.253906 C 164.179688 150.820312 164.378906 151.378906 164.605469 151.929688 C 164.835938 152.476562 165.089844 153.015625 165.367188 153.539062 C 165.648438 154.0625 165.953125 154.574219 166.285156 155.066406 C 166.613281 155.5625 166.96875 156.039062 167.347656 156.496094 C 167.722656 156.957031 168.121094 157.394531 168.542969 157.816406 C 168.964844 158.234375 169.402344 158.636719 169.863281 159.011719 C 170.320312 159.390625 170.800781 159.742188 171.292969 160.074219 C 171.789062 160.402344 172.296875 160.707031 172.820312 160.988281 C 173.347656 161.269531 173.882812 161.523438 174.433594 161.75 C 174.980469 161.976562 175.539062 162.175781 176.109375 162.347656 C 176.679688 162.523438 177.253906 162.664062 177.839844 162.78125 C 178.421875 162.898438 179.007812 162.984375 179.601562 163.042969 C 180.191406 163.101562 180.785156 163.128906 181.378906 163.128906 L 193.484375 163.128906 C 194.078125 163.128906 194.671875 163.101562 195.261719 163.042969 C 195.855469 162.984375 196.441406 162.898438 197.027344 162.78125 C 197.609375 162.664062 198.183594 162.523438 198.753906 162.347656 C 199.324219 162.175781 199.882812 161.976562 200.429688 161.75 C 200.980469 161.523438 201.515625 161.269531 202.042969 160.988281 C 202.566406 160.707031 203.074219 160.402344 203.570312 160.074219 C 204.0625 159.742188 204.542969 159.390625 205 159.011719 C 205.460938 158.636719 205.902344 158.234375 206.320312 157.816406 C 206.742188 157.394531 207.140625 156.957031 207.519531 156.496094 C 207.894531 156.039062 208.25 155.5625 208.578125 155.066406 C 208.910156 154.574219 209.214844 154.0625 209.496094 153.539062 C 209.773438 153.015625 210.027344 152.476562 210.257812 151.929688 C 210.484375 151.378906 210.683594 150.820312 210.855469 150.253906 C 211.03125 149.683594 211.175781 149.109375 211.289062 148.527344 C 211.40625 147.941406 211.492188 147.355469 211.550781 146.765625 C 211.609375 146.171875 211.640625 145.578125 211.640625 144.984375 L 211.640625 132.890625 Z M 163.226562 132.890625 " fill-opacity="1" fill-rule="nonzero"/><path fill="#64788c" d="M 191.730469 132.890625 L 183.132812 132.890625 L 183.132812 112.492188 L 165.164062 99.269531 C 164.398438 98.707031 163.707031 98.0625 163.09375 97.339844 C 162.476562 96.617188 161.953125 95.832031 161.523438 94.988281 C 161.09375 94.140625 160.765625 93.257812 160.542969 92.335938 C 160.316406 91.410156 160.203125 90.476562 160.199219 89.527344 L 160.199219 84.582031 C 160.207031 83.773438 160.292969 82.976562 160.460938 82.1875 C 160.625 81.398438 160.867188 80.632812 161.183594 79.890625 C 161.496094 79.148438 161.882812 78.445312 162.335938 77.777344 C 162.792969 77.109375 163.308594 76.496094 163.882812 75.929688 C 164.460938 75.363281 165.085938 74.863281 165.761719 74.417969 C 166.433594 73.976562 167.144531 73.605469 167.894531 73.300781 C 168.644531 73 169.414062 72.773438 170.207031 72.621094 C 171 72.472656 171.800781 72.398438 172.605469 72.40625 C 174.246094 72.398438 175.824219 72.703125 177.34375 73.324219 C 178.863281 73.941406 180.210938 74.824219 181.378906 75.972656 L 184.738281 79.269531 C 185.097656 79.617188 185.511719 79.886719 185.980469 80.078125 C 186.445312 80.265625 186.929688 80.359375 187.433594 80.359375 C 187.933594 80.359375 188.417969 80.265625 188.886719 80.078125 C 189.351562 79.886719 189.765625 79.617188 190.125 79.269531 L 193.484375 75.972656 C 194.652344 74.824219 196 73.941406 197.519531 73.324219 C 199.039062 72.703125 200.617188 72.398438 202.257812 72.40625 C 203.066406 72.398438 203.863281 72.472656 204.65625 72.621094 C 205.449219 72.773438 206.21875 73 206.96875 73.300781 C 207.71875 73.605469 208.429688 73.976562 209.105469 74.417969 C 209.777344 74.863281 210.402344 75.363281 210.980469 75.929688 C 211.554688 76.496094 212.070312 77.109375 212.527344 77.777344 C 212.980469 78.445312 213.367188 79.148438 213.683594 79.890625 C 213.996094 80.632812 214.238281 81.398438 214.402344 82.1875 C 214.570312 82.976562 214.65625 83.773438 214.664062 84.582031 L 214.664062 89.527344 C 214.660156 90.476562 214.546875 91.414062 214.320312 92.335938 C 214.097656 93.257812 213.769531 94.140625 213.339844 94.988281 C 212.90625 95.832031 212.386719 96.617188 211.769531 97.339844 C 211.15625 98.0625 210.464844 98.707031 209.699219 99.269531 L 201.480469 105.320312 L 196.316406 98.566406 L 204.539062 92.515625 C 205.015625 92.167969 205.390625 91.730469 205.65625 91.203125 C 205.925781 90.675781 206.0625 90.117188 206.066406 89.527344 L 206.066406 84.582031 C 206.058594 84.082031 205.960938 83.601562 205.761719 83.140625 C 205.566406 82.683594 205.292969 82.277344 204.933594 81.925781 C 204.578125 81.578125 204.167969 81.308594 203.703125 81.121094 C 203.238281 80.933594 202.757812 80.839844 202.257812 80.84375 C 201.210938 80.847656 200.316406 81.210938 199.566406 81.9375 L 196.207031 85.234375 C 195.625 85.800781 194.992188 86.304688 194.3125 86.75 C 193.632812 87.191406 192.917969 87.566406 192.167969 87.871094 C 191.414062 88.175781 190.640625 88.40625 189.84375 88.5625 C 189.046875 88.71875 188.242188 88.796875 187.433594 88.796875 C 186.621094 88.796875 185.816406 88.71875 185.019531 88.5625 C 184.222656 88.40625 183.449219 88.175781 182.699219 87.871094 C 181.945312 87.566406 181.230469 87.191406 180.550781 86.75 C 179.871094 86.304688 179.242188 85.800781 178.660156 85.234375 L 175.300781 81.9375 C 174.550781 81.210938 173.652344 80.847656 172.605469 80.84375 C 172.105469 80.839844 171.625 80.933594 171.160156 81.121094 C 170.695312 81.308594 170.285156 81.578125 169.929688 81.925781 C 169.574219 82.277344 169.296875 82.683594 169.101562 83.140625 C 168.90625 83.601562 168.804688 84.082031 168.800781 84.582031 L 168.800781 89.527344 C 168.800781 90.117188 168.9375 90.675781 169.203125 91.203125 C 169.472656 91.730469 169.84375 92.167969 170.320312 92.515625 L 190.011719 107.007812 C 190.550781 107.402344 190.972656 107.894531 191.273438 108.492188 C 191.578125 109.085938 191.730469 109.714844 191.730469 110.382812 Z M 191.730469 132.890625 " fill-opacity="1" fill-rule="nonzero"/><path fill="#5b6d80" d="M 163.226562 132.890625 L 211.640625 132.890625 L 211.640625 144.984375 L 163.226562 144.984375 Z M 163.226562 132.890625 " fill-opacity="1" fill-rule="nonzero"/></svg>