<svg xmlns="http://www.w3.org/2000/svg" xmlns:xlink="http://www.w3.org/1999/xlink" width="500" zoomAndPan="magnify" viewBox="0 0 375 374.999991" height="500" preserveAspectRatio="xMidYMid meet" version="1.0"><path fill="#dedae0" d="M 183.382812 208.175781 L 166.898438 191.691406 C 164.621094 189.414062 160.929688 189.414062 158.65625 191.691406 L 120.773438 229.574219 C 118.5 231.847656 118.5 235.539062 120.773438 237.816406 L 137.257812 254.296875 C 138.398438 255.4375 139.886719 256.003906 141.378906 256.003906 C 142.871094 256.003906 144.363281 255.4375 145.5 254.296875 L 183.382812 216.417969 C 185.660156 214.140625 185.660156 210.449219 183.382812 208.175781 Z M 183.382812 208.175781 " fill-opacity="1" fill-rule="nonzero"/><path fill="#ada3b2" d="M 252.609375 0.0742188 C 185.125 0.0742188 130.222656 54.972656 130.222656 122.460938 C 130.222656 189.949219 185.125 244.851562 252.609375 244.851562 C 320.097656 244.851562 375 189.949219 375 122.460938 C 375 54.972656 320.097656 0.0742188 252.609375 0.0742188 Z M 252.609375 0.0742188 " fill-opacity="1" fill-rule="nonzero"/><path fill="#f7f6f7" d="M 252.609375 21.929688 C 197.175781 21.929688 152.078125 67.027344 152.078125 122.460938 C 152.078125 177.894531 197.175781 222.996094 252.609375 222.996094 C 308.046875 222.996094 353.144531 177.894531 353.144531 122.460938 C 353.144531 67.027344 308.046875 21.929688 252.609375 21.929688 Z M 252.609375 21.929688 " fill-opacity="1" fill-rule="nonzero"/><path fill="#dedae0" d="M 268.636719 204.054688 C 213.203125 204.054688 168.105469 158.957031 168.105469 103.519531 C 168.105469 83.28125 174.121094 64.421875 184.453125 48.632812 C 164.558594 67.011719 152.078125 93.304688 152.078125 122.460938 C 152.078125 177.894531 197.175781 222.996094 252.609375 222.996094 C 287.804688 222.996094 318.828125 204.8125 336.792969 177.351562 C 318.867188 193.914062 294.914062 204.054688 268.636719 204.054688 Z M 268.636719 204.054688 " fill-opacity="1" fill-rule="nonzero"/><path fill="#887dca" d="M 157.65625 246.261719 L 128.808594 217.414062 C 126.535156 215.140625 122.84375 215.140625 120.566406 217.414062 L 9.835938 328.148438 C 2.097656 335.882812 -0.03125 347.984375 4.648438 357.886719 C 5.9375 360.613281 7.703125 363.105469 9.835938 365.238281 C 17.269531 372.675781 28.984375 374.953125 38.664062 370.835938 C 41.742188 369.523438 44.558594 367.605469 46.921875 365.238281 L 157.65625 254.507812 C 159.933594 252.230469 159.933594 248.539062 157.65625 246.261719 Z M 157.65625 246.261719 " fill-opacity="1" fill-rule="nonzero"/><path fill="#6a5dbd" d="M 157.65625 246.261719 L 143.085938 231.695312 C 145.363281 233.96875 145.363281 237.660156 143.085938 239.933594 L 32.355469 350.667969 C 29.988281 353.035156 27.175781 354.953125 24.09375 356.261719 C 17.675781 358.996094 10.367188 358.898438 4.003906 356.367188 C 4.199219 356.878906 4.410156 357.386719 4.648438 357.886719 C 5.9375 360.613281 7.703125 363.105469 9.835938 365.238281 C 17.269531 372.675781 28.984375 374.953125 38.664062 370.835938 C 41.742188 369.523438 44.558594 367.605469 46.921875 365.238281 L 157.65625 254.507812 C 159.933594 252.230469 159.933594 248.539062 157.65625 246.261719 Z M 157.65625 246.261719 " fill-opacity="1" fill-rule="nonzero"/><path fill="#feeca2" d="M 293.585938 180.742188 L 211.992188 180.742188 C 208.777344 180.742188 206.164062 178.132812 206.164062 174.914062 L 206.164062 75.839844 C 206.164062 72.617188 208.777344 70.011719 211.992188 70.011719 L 270.273438 70.011719 L 299.414062 99.148438 L 299.414062 174.914062 C 299.414062 178.132812 296.804688 180.742188 293.585938 180.742188 Z M 293.585938 180.742188 " fill-opacity="1" fill-rule="nonzero"/><path fill="#fdd945" d="M 223.648438 174.914062 L 223.648438 75.839844 C 223.648438 72.617188 226.261719 70.011719 229.476562 70.011719 L 211.992188 70.011719 C 208.777344 70.011719 206.164062 72.617188 206.164062 75.839844 L 206.164062 174.914062 C 206.164062 178.132812 208.777344 180.742188 211.992188 180.742188 L 229.476562 180.742188 C 226.261719 180.742188 223.648438 178.132812 223.648438 174.914062 Z M 223.648438 174.914062 " fill-opacity="1" fill-rule="nonzero"/><path fill="#fef5d1" d="M 270.273438 70.011719 L 270.273438 93.320312 C 270.273438 96.539062 272.882812 99.148438 276.101562 99.148438 L 299.414062 99.148438 Z M 270.273438 70.011719 " fill-opacity="1" fill-rule="nonzero"/><path fill="#fab947" d="M 276.101562 122.460938 L 229.476562 122.460938 C 226.261719 122.460938 223.648438 119.851562 223.648438 116.632812 C 223.648438 113.414062 226.261719 110.804688 229.476562 110.804688 L 276.101562 110.804688 C 279.320312 110.804688 281.929688 113.414062 281.929688 116.632812 C 281.929688 119.851562 279.320312 122.460938 276.101562 122.460938 Z M 276.101562 122.460938 " fill-opacity="1" fill-rule="nonzero"/><path fill="#fab947" d="M 276.101562 139.945312 L 229.476562 139.945312 C 226.261719 139.945312 223.648438 137.335938 223.648438 134.117188 C 223.648438 130.898438 226.261719 128.289062 229.476562 128.289062 L 276.101562 128.289062 C 279.320312 128.289062 281.929688 130.898438 281.929688 134.117188 C 281.929688 137.335938 279.320312 139.945312 276.101562 139.945312 Z M 276.101562 139.945312 " fill-opacity="1" fill-rule="nonzero"/><path fill="#fab947" d="M 276.101562 157.429688 L 229.476562 157.429688 C 226.261719 157.429688 223.648438 154.820312 223.648438 151.601562 C 223.648438 148.382812 226.261719 145.773438 229.476562 145.773438 L 276.101562 145.773438 C 279.320312 145.773438 281.929688 148.382812 281.929688 151.601562 C 281.929688 154.820312 279.320312 157.429688 276.101562 157.429688 Z M 276.101562 157.429688 " fill-opacity="1" fill-rule="nonzero"/><path fill="#fab947" d="M 246.960938 104.976562 L 229.476562 104.976562 C 226.261719 104.976562 223.648438 102.367188 223.648438 99.148438 C 223.648438 95.929688 226.261719 93.320312 229.476562 93.320312 L 246.960938 93.320312 C 250.179688 93.320312 252.789062 95.929688 252.789062 99.148438 C 252.789062 102.367188 250.179688 104.976562 246.960938 104.976562 Z M 246.960938 104.976562 " fill-opacity="1" fill-rule="nonzero"/></svg>