<svg xmlns="http://www.w3.org/2000/svg" xmlns:xlink="http://www.w3.org/1999/xlink" width="500" zoomAndPan="magnify" viewBox="0 0 375 374.999991" height="500" preserveAspectRatio="xMidYMid meet" version="1.0"><path fill="#edf4fe" d="M 257.515625 331.226562 C 259.480469 331.226562 261.335938 330.335938 262.566406 328.796875 C 263.792969 327.265625 264.253906 325.253906 263.820312 323.335938 C 263.015625 319.796875 262.597656 316.113281 262.597656 312.328125 C 262.597656 284.882812 284.882812 262.597656 312.335938 262.597656 C 316.113281 262.597656 319.796875 263.015625 323.335938 263.820312 C 325.253906 264.253906 327.265625 263.792969 328.796875 262.566406 C 330.335938 261.335938 331.226562 259.480469 331.226562 257.515625 L 331.226562 56.722656 C 331.226562 25.398438 305.832031 0 274.507812 0 L 56.722656 0 C 25.398438 0 0 25.398438 0 56.722656 L 0 274.507812 C 0 305.832031 25.398438 331.226562 56.722656 331.226562 Z M 257.515625 331.226562 " fill-opacity="1" fill-rule="evenodd"/><path fill="#00912c" d="M 257.515625 331.226562 C 259.480469 331.226562 261.335938 330.335938 262.566406 328.796875 C 263.792969 327.265625 264.253906 325.253906 263.820312 323.335938 C 263.015625 319.796875 262.597656 316.113281 262.597656 312.328125 C 262.597656 284.882812 284.882812 262.597656 312.335938 262.597656 C 313.601562 262.597656 314.859375 262.640625 316.105469 262.738281 C 318.613281 262.925781 321.007812 261.640625 322.234375 259.441406 C 323.464844 257.242188 323.300781 254.527344 321.820312 252.492188 L 281.449219 196.886719 C 270.78125 182.191406 253.714844 173.496094 235.550781 173.496094 C 217.382812 173.496094 200.320312 182.191406 189.648438 196.886719 C 189.648438 196.886719 128.164062 281.574219 128.164062 281.574219 C 126.523438 283.84375 126.523438 286.90625 128.164062 289.171875 L 156.761719 328.566406 C 157.976562 330.238281 159.925781 331.226562 161.992188 331.226562 Z M 257.515625 331.226562 " fill-opacity="1" fill-rule="evenodd"/><path fill="#008127" d="M 141.386719 263.367188 L 128.164062 281.574219 C 126.523438 283.84375 126.523438 286.90625 128.164062 289.171875 L 156.761719 328.566406 C 157.976562 330.238281 159.925781 331.226562 161.992188 331.226562 L 180.285156 331.226562 C 182.390625 325.261719 181.472656 318.574219 177.691406 313.363281 Z M 141.386719 263.367188 " fill-opacity="1" fill-rule="evenodd"/><path fill="#00bf4b" d="M 1.234375 263.753906 C 0.433594 264.859375 0 266.183594 0 267.550781 L 0 274.507812 C 0 305.832031 25.398438 331.226562 56.722656 331.226562 L 161.992188 331.226562 C 164.425781 331.226562 166.65625 329.863281 167.753906 327.699219 C 168.859375 325.53125 168.660156 322.933594 167.230469 320.960938 L 109.363281 241.261719 C 98.691406 226.566406 81.628906 217.867188 63.464844 217.867188 C 45.296875 217.867188 28.234375 226.566406 17.558594 241.261719 C 17.558594 241.261719 1.234375 263.753906 1.234375 263.753906 Z M 1.234375 263.753906 " fill-opacity="1" fill-rule="evenodd"/><path fill="#00bf4b" d="M 294.492188 165.613281 L 294.492188 152.683594 C 294.492188 150.898438 293.042969 149.449219 291.257812 149.449219 C 289.472656 149.449219 288.027344 150.898438 288.027344 152.683594 L 288.027344 165.613281 C 288.027344 167.398438 289.472656 168.847656 291.257812 168.847656 C 293.042969 168.847656 294.492188 167.398438 294.492188 165.613281 Z M 294.492188 139.753906 L 294.492188 126.820312 C 294.492188 125.035156 293.042969 123.589844 291.257812 123.589844 C 289.472656 123.589844 288.027344 125.035156 288.027344 126.820312 L 288.027344 139.753906 C 288.027344 141.535156 289.472656 142.984375 291.257812 142.984375 C 293.042969 142.984375 294.492188 141.535156 294.492188 139.753906 Z M 294.492188 113.890625 L 294.492188 100.960938 C 294.492188 99.175781 293.042969 97.726562 291.257812 97.726562 C 289.472656 97.726562 288.027344 99.175781 288.027344 100.960938 L 288.027344 113.890625 C 288.027344 115.675781 289.472656 117.121094 291.257812 117.121094 C 293.042969 117.121094 294.492188 115.675781 294.492188 113.890625 Z M 294.492188 88.027344 L 294.492188 75.867188 C 294.492188 75.589844 294.484375 75.308594 294.484375 75.027344 C 294.445312 73.246094 292.964844 71.824219 291.179688 71.863281 C 289.398438 71.902344 287.980469 73.382812 288.019531 75.167969 C 288.027344 75.402344 288.027344 75.632812 288.027344 75.867188 L 288.027344 88.027344 C 288.027344 89.8125 289.472656 91.261719 291.257812 91.261719 C 293.042969 91.261719 294.492188 89.8125 294.492188 88.027344 Z M 291.683594 61.285156 C 289.914062 56.882812 287.367188 52.875 284.210938 49.429688 C 283.003906 48.117188 280.960938 48.027344 279.640625 49.234375 C 278.328125 50.4375 278.238281 52.488281 279.441406 53.800781 C 282.078125 56.675781 284.203125 60.019531 285.683594 63.699219 C 286.351562 65.351562 288.234375 66.160156 289.886719 65.496094 C 291.542969 64.828125 292.351562 62.949219 291.683594 61.285156 Z M 273.046875 40.953125 C 268.925781 38.863281 264.394531 37.480469 259.597656 36.964844 C 257.824219 36.777344 256.226562 38.054688 256.039062 39.835938 C 255.847656 41.605469 257.132812 43.203125 258.90625 43.390625 C 262.90625 43.824219 266.691406 44.980469 270.117188 46.71875 C 271.714844 47.527344 273.660156 46.886719 274.46875 45.296875 C 275.269531 43.707031 274.636719 41.761719 273.046875 40.953125 Z M 220.46875 36.738281 L 207.535156 36.738281 C 205.753906 36.738281 204.304688 38.183594 204.304688 39.96875 C 204.304688 41.753906 205.753906 43.203125 207.535156 43.203125 L 220.46875 43.203125 C 222.253906 43.203125 223.699219 41.753906 223.699219 39.96875 C 223.699219 38.183594 222.253906 36.738281 220.46875 36.738281 Z M 246.328125 36.738281 L 233.398438 36.738281 C 231.613281 36.738281 230.164062 38.183594 230.164062 39.96875 C 230.164062 41.753906 231.613281 43.203125 233.398438 43.203125 L 246.328125 43.203125 C 248.113281 43.203125 249.5625 41.753906 249.5625 39.96875 C 249.5625 38.183594 248.113281 36.738281 246.328125 36.738281 Z M 194.605469 36.738281 L 181.675781 36.738281 C 179.890625 36.738281 178.441406 38.183594 178.441406 39.96875 C 178.441406 41.753906 179.890625 43.203125 181.675781 43.203125 L 194.605469 43.203125 C 196.390625 43.203125 197.839844 41.753906 197.839844 39.96875 C 197.839844 38.183594 196.390625 36.738281 194.605469 36.738281 Z M 163.753906 38.8125 C 162.925781 37.914062 162.382812 38.878906 162.382812 39.96875 C 162.382812 41.753906 163.828125 43.203125 165.613281 43.203125 L 168.742188 43.203125 C 170.527344 43.203125 171.976562 41.753906 171.976562 39.96875 C 171.976562 38.183594 170.527344 36.738281 168.742188 36.738281 L 165.648438 36.738281 C 164.023438 36.738281 163.621094 37.660156 163.753906 38.8125 Z M 163.753906 38.8125 " fill-opacity="1" fill-rule="evenodd"/><path fill="#f8bc38" d="M 132.289062 95.910156 C 132.289062 97.101562 132.234375 98.289062 132.117188 99.476562 C 132 100.660156 131.824219 101.839844 131.59375 103.007812 C 131.359375 104.175781 131.070312 105.332031 130.722656 106.46875 C 130.378906 107.609375 129.976562 108.730469 129.523438 109.832031 C 129.066406 110.933594 128.558594 112.007812 127.996094 113.058594 C 127.433594 114.109375 126.820312 115.132812 126.160156 116.121094 C 125.496094 117.113281 124.789062 118.070312 124.03125 118.988281 C 123.277344 119.910156 122.476562 120.792969 121.636719 121.636719 C 120.792969 122.476562 119.910156 123.277344 118.988281 124.03125 C 118.070312 124.789062 117.113281 125.496094 116.121094 126.160156 C 115.132812 126.820312 114.109375 127.433594 113.058594 127.996094 C 112.007812 128.558594 110.933594 129.066406 109.832031 129.523438 C 108.730469 129.976562 107.609375 130.378906 106.46875 130.722656 C 105.332031 131.070312 104.175781 131.359375 103.007812 131.59375 C 101.839844 131.824219 100.660156 132 99.476562 132.117188 C 98.289062 132.234375 97.101562 132.289062 95.910156 132.289062 C 94.71875 132.289062 93.527344 132.234375 92.34375 132.117188 C 91.15625 132 89.980469 131.824219 88.8125 131.59375 C 87.644531 131.359375 86.488281 131.070312 85.347656 130.722656 C 84.207031 130.378906 83.085938 129.976562 81.988281 129.523438 C 80.886719 129.066406 79.808594 128.558594 78.757812 127.996094 C 77.707031 127.433594 76.6875 126.820312 75.695312 126.160156 C 74.707031 125.496094 73.75 124.789062 72.828125 124.03125 C 71.910156 123.277344 71.027344 122.476562 70.183594 121.636719 C 69.339844 120.792969 68.542969 119.910156 67.785156 118.988281 C 67.03125 118.070312 66.320312 117.113281 65.660156 116.121094 C 64.996094 115.132812 64.386719 114.109375 63.824219 113.058594 C 63.261719 112.007812 62.753906 110.933594 62.296875 109.832031 C 61.839844 108.730469 61.441406 107.609375 61.09375 106.46875 C 60.75 105.332031 60.460938 104.175781 60.226562 103.007812 C 59.996094 101.839844 59.820312 100.660156 59.703125 99.476562 C 59.585938 98.289062 59.527344 97.101562 59.527344 95.910156 C 59.527344 94.71875 59.585938 93.527344 59.703125 92.34375 C 59.820312 91.15625 59.996094 89.980469 60.226562 88.8125 C 60.460938 87.644531 60.75 86.488281 61.09375 85.347656 C 61.441406 84.207031 61.839844 83.085938 62.296875 81.988281 C 62.753906 80.886719 63.261719 79.808594 63.824219 78.757812 C 64.386719 77.707031 64.996094 76.6875 65.660156 75.695312 C 66.320312 74.707031 67.03125 73.75 67.785156 72.828125 C 68.542969 71.910156 69.339844 71.027344 70.183594 70.183594 C 71.027344 69.339844 71.910156 68.542969 72.828125 67.785156 C 73.75 67.03125 74.707031 66.320312 75.695312 65.660156 C 76.6875 64.996094 77.707031 64.386719 78.757812 63.824219 C 79.808594 63.261719 80.886719 62.753906 81.988281 62.296875 C 83.085938 61.839844 84.207031 61.441406 85.347656 61.09375 C 86.488281 60.75 87.644531 60.460938 88.8125 60.226562 C 89.980469 59.996094 91.15625 59.820312 92.34375 59.703125 C 93.527344 59.585938 94.71875 59.527344 95.910156 59.527344 C 97.101562 59.527344 98.289062 59.585938 99.476562 59.703125 C 100.660156 59.820312 101.839844 59.996094 103.007812 60.226562 C 104.175781 60.460938 105.332031 60.75 106.46875 61.09375 C 107.609375 61.441406 108.730469 61.839844 109.832031 62.296875 C 110.933594 62.753906 112.007812 63.261719 113.058594 63.824219 C 114.109375 64.386719 115.132812 64.996094 116.121094 65.660156 C 117.113281 66.320312 118.070312 67.03125 118.988281 67.785156 C 119.910156 68.542969 120.792969 69.339844 121.636719 70.183594 C 122.476562 71.027344 123.277344 71.910156 124.03125 72.828125 C 124.789062 73.75 125.496094 74.707031 126.160156 75.695312 C 126.820312 76.6875 127.433594 77.707031 127.996094 78.757812 C 128.558594 79.808594 129.066406 80.886719 129.523438 81.988281 C 129.976562 83.085938 130.378906 84.207031 130.722656 85.347656 C 131.070312 86.488281 131.359375 87.644531 131.59375 88.8125 C 131.824219 89.980469 132 91.15625 132.117188 92.34375 C 132.234375 93.527344 132.289062 94.71875 132.289062 95.910156 Z M 132.289062 95.910156 " fill-opacity="1" fill-rule="nonzero"/><path fill="#55a1ff" d="M 375.007812 312.328125 C 375.007812 314.382812 374.90625 316.429688 374.703125 318.472656 C 374.503906 320.515625 374.203125 322.542969 373.800781 324.554688 C 373.402344 326.570312 372.902344 328.558594 372.308594 330.523438 C 371.710938 332.484375 371.019531 334.417969 370.234375 336.3125 C 369.449219 338.207031 368.574219 340.0625 367.605469 341.871094 C 366.640625 343.683594 365.585938 345.441406 364.445312 347.148438 C 363.304688 348.855469 362.082031 350.5 360.78125 352.085938 C 359.480469 353.675781 358.101562 355.191406 356.652344 356.644531 C 355.199219 358.09375 353.679688 359.472656 352.09375 360.773438 C 350.507812 362.078125 348.859375 363.296875 347.152344 364.4375 C 345.449219 365.578125 343.6875 366.632812 341.878906 367.601562 C 340.070312 368.566406 338.214844 369.445312 336.320312 370.230469 C 334.421875 371.015625 332.492188 371.707031 330.527344 372.300781 C 328.5625 372.898438 326.574219 373.394531 324.5625 373.796875 C 322.550781 374.195312 320.523438 374.496094 318.480469 374.699219 C 316.4375 374.898438 314.390625 375 312.335938 375 C 310.285156 375 308.234375 374.898438 306.195312 374.699219 C 304.152344 374.496094 302.121094 374.195312 300.109375 373.796875 C 298.097656 373.394531 296.109375 372.898438 294.144531 372.300781 C 292.179688 371.707031 290.25 371.015625 288.351562 370.230469 C 286.457031 369.445312 284.605469 368.566406 282.792969 367.601562 C 280.984375 366.632812 279.226562 365.578125 277.519531 364.4375 C 275.8125 363.296875 274.164062 362.078125 272.578125 360.773438 C 270.992188 359.472656 269.472656 358.09375 268.023438 356.644531 C 266.570312 355.191406 265.195312 353.675781 263.890625 352.085938 C 262.589844 350.5 261.367188 348.855469 260.226562 347.148438 C 259.085938 345.441406 258.035156 343.683594 257.066406 341.871094 C 256.097656 340.0625 255.222656 338.207031 254.4375 336.3125 C 253.652344 334.417969 252.960938 332.484375 252.363281 330.523438 C 251.769531 328.558594 251.269531 326.570312 250.871094 324.554688 C 250.46875 322.542969 250.167969 320.515625 249.96875 318.472656 C 249.765625 316.429688 249.664062 314.382812 249.664062 312.328125 C 249.664062 310.277344 249.765625 308.230469 249.96875 306.1875 C 250.167969 304.144531 250.46875 302.117188 250.871094 300.101562 C 251.269531 298.089844 251.769531 296.101562 252.363281 294.136719 C 252.960938 292.171875 253.652344 290.242188 254.4375 288.347656 C 255.222656 286.449219 256.097656 284.597656 257.066406 282.789062 C 258.035156 280.976562 259.085938 279.21875 260.226562 277.511719 C 261.367188 275.804688 262.589844 274.160156 263.890625 272.570312 C 265.195312 270.984375 266.570312 269.464844 268.023438 268.015625 C 269.472656 266.5625 270.992188 265.1875 272.578125 263.886719 C 274.164062 262.582031 275.8125 261.363281 277.519531 260.222656 C 279.226562 259.082031 280.984375 258.027344 282.792969 257.058594 C 284.605469 256.09375 286.457031 255.214844 288.351562 254.429688 C 290.25 253.644531 292.179688 252.953125 294.144531 252.359375 C 296.109375 251.761719 298.097656 251.265625 300.109375 250.863281 C 302.121094 250.464844 304.152344 250.164062 306.195312 249.960938 C 308.234375 249.761719 310.285156 249.660156 312.335938 249.660156 C 314.390625 249.660156 316.4375 249.761719 318.480469 249.960938 C 320.523438 250.164062 322.550781 250.464844 324.5625 250.863281 C 326.574219 251.265625 328.5625 251.761719 330.527344 252.359375 C 332.492188 252.953125 334.421875 253.644531 336.320312 254.429688 C 338.214844 255.214844 340.070312 256.09375 341.878906 257.058594 C 343.6875 258.027344 345.449219 259.082031 347.152344 260.222656 C 348.859375 261.363281 350.507812 262.582031 352.09375 263.886719 C 353.679688 265.1875 355.199219 266.5625 356.652344 268.015625 C 358.101562 269.464844 359.480469 270.984375 360.78125 272.570312 C 362.082031 274.160156 363.304688 275.804688 364.445312 277.511719 C 365.585938 279.21875 366.640625 280.976562 367.605469 282.789062 C 368.574219 284.597656 369.449219 286.449219 370.234375 288.347656 C 371.019531 290.242188 371.710938 292.171875 372.308594 294.136719 C 372.902344 296.101562 373.402344 298.089844 373.800781 300.101562 C 374.203125 302.117188 374.503906 304.144531 374.703125 306.1875 C 374.90625 308.230469 375.007812 310.277344 375.007812 312.328125 Z M 375.007812 312.328125 " fill-opacity="1" fill-rule="nonzero"/><path fill="#eef6ff" d="M 305.871094 289.699219 L 305.871094 334.960938 C 305.871094 338.527344 308.765625 341.429688 312.335938 341.425781 C 315.898438 341.425781 318.800781 338.527344 318.800781 334.960938 L 318.800781 289.699219 C 318.800781 286.136719 315.898438 283.242188 312.335938 283.234375 C 308.765625 283.234375 305.871094 286.136719 305.871094 289.699219 Z M 305.871094 289.699219 " fill-opacity="1" fill-rule="evenodd"/><path fill="#eef6ff" d="M 289.707031 318.796875 L 334.960938 318.796875 C 338.527344 318.800781 341.425781 315.898438 341.429688 312.335938 C 341.429688 308.765625 338.527344 305.871094 334.964844 305.863281 L 289.699219 305.863281 C 286.136719 305.871094 283.234375 308.765625 283.242188 312.335938 C 283.242188 315.898438 286.136719 318.800781 289.707031 318.796875 Z M 289.707031 318.796875 " fill-opacity="1" fill-rule="evenodd"/></svg>