<svg xmlns="http://www.w3.org/2000/svg" xmlns:xlink="http://www.w3.org/1999/xlink" width="500" zoomAndPan="magnify" viewBox="0 0 375 374.999991" height="500" preserveAspectRatio="xMidYMid meet" version="1.0"><defs><clipPath id="b4c2363885"><path d="M 62 180 L 374.902344 180 L 374.902344 328 L 62 328 Z M 62 180 " clip-rule="nonzero"/></clipPath></defs><path fill="#ffc05a" d="M 187.402344 87.089844 C 129.769531 87.089844 82.878906 133.996094 82.878906 191.644531 C 82.878906 249.296875 129.769531 296.203125 187.402344 296.203125 C 245.035156 296.203125 291.925781 249.300781 291.925781 191.648438 C 291.925781 133.996094 245.035156 87.089844 187.402344 87.089844 Z M 187.402344 87.089844 " fill-opacity="1" fill-rule="nonzero"/><path fill="#c3ddda" d="M 45.820312 162.46875 C 45.976562 162.492188 46.128906 162.503906 46.273438 162.503906 C 47.71875 162.503906 48.988281 161.449219 49.210938 159.976562 C 56.515625 112.148438 88.875 70.835938 133.664062 52.148438 C 135.183594 51.515625 135.898438 49.773438 135.265625 48.253906 C 134.632812 46.738281 132.890625 46.019531 131.371094 46.652344 C 84.679688 66.132812 50.941406 109.207031 43.332031 159.074219 C 43.082031 160.699219 44.195312 162.21875 45.820312 162.46875 Z M 45.820312 162.46875 " fill-opacity="1" fill-rule="nonzero"/><path fill="#1ea6bc" d="M 11.34375 184.261719 L 65.378906 184.261719 C 67.023438 184.261719 68.355469 182.933594 68.355469 181.285156 C 68.355469 115.625 121.757812 62.203125 187.402344 62.203125 C 253.046875 62.203125 306.449219 115.625 306.449219 181.285156 C 306.449219 182.933594 307.78125 184.261719 309.425781 184.261719 C 311.070312 184.261719 312.402344 182.933594 312.402344 181.285156 C 312.402344 112.339844 256.328125 56.25 187.402344 56.25 C 119.472656 56.25 64.070312 110.734375 62.476562 178.308594 L 11.640625 178.308594 L 28.171875 165.605469 C 29.476562 164.605469 29.722656 162.734375 28.722656 161.433594 C 27.722656 160.132812 25.859375 159.878906 24.546875 160.882812 L 1.066406 178.925781 C 1.019531 178.960938 1 179.019531 0.957031 179.054688 C 0.734375 179.246094 0.570312 179.46875 0.410156 179.71875 C 0.339844 179.828125 0.25 179.917969 0.195312 180.039062 C 0.0429688 180.363281 -0.0351562 180.71875 -0.0585938 181.09375 C -0.0625 181.148438 -0.0976562 181.195312 -0.0976562 181.253906 C -0.0976562 181.257812 -0.09375 181.261719 -0.09375 181.269531 C -0.09375 181.273438 -0.0976562 181.28125 -0.0976562 181.285156 C -0.0976562 181.722656 0.0078125 182.132812 0.175781 182.507812 C 0.222656 182.605469 0.300781 182.679688 0.355469 182.769531 C 0.511719 183.039062 0.691406 183.289062 0.921875 183.496094 C 0.960938 183.527344 0.972656 183.578125 1.015625 183.609375 L 24.496094 202.457031 C 25.046875 202.894531 25.703125 203.109375 26.359375 203.109375 C 27.230469 203.109375 28.09375 202.730469 28.683594 201.996094 C 29.710938 200.714844 29.503906 198.839844 28.222656 197.8125 Z M 11.34375 184.261719 " fill-opacity="1" fill-rule="nonzero"/><path fill="#c3ddda" d="M 328.984375 220.828125 C 327.324219 220.570312 325.835938 221.695312 325.589844 223.320312 C 318.285156 271.144531 285.929688 312.460938 241.136719 331.144531 C 239.621094 331.78125 238.902344 333.523438 239.535156 335.039062 C 240.011719 336.183594 241.117188 336.871094 242.285156 336.871094 C 242.667969 336.871094 243.054688 336.800781 243.429688 336.640625 C 290.121094 317.164062 323.859375 274.085938 331.472656 224.222656 C 331.722656 222.597656 330.609375 221.074219 328.984375 220.828125 Z M 328.984375 220.828125 " fill-opacity="1" fill-rule="nonzero"/><g clip-path="url(#b4c2363885)"><path fill="#ffc05a" d="M 374.902344 202.007812 C 374.902344 201.570312 374.796875 201.164062 374.628906 200.789062 C 374.585938 200.691406 374.507812 200.617188 374.453125 200.527344 C 374.296875 200.253906 374.117188 200.007812 373.882812 199.804688 C 373.84375 199.769531 373.832031 199.71875 373.789062 199.6875 L 350.308594 180.84375 C 349.027344 179.820312 347.15625 180.019531 346.121094 181.300781 C 345.09375 182.582031 345.300781 184.460938 346.582031 185.488281 L 363.460938 199.03125 L 309.425781 199.03125 C 307.78125 199.03125 306.449219 200.363281 306.449219 202.007812 C 306.449219 267.671875 253.046875 321.09375 187.402344 321.09375 C 121.757812 321.09375 68.355469 267.671875 68.355469 202.007812 C 68.355469 200.363281 67.023438 199.03125 65.378906 199.03125 C 63.734375 199.03125 62.402344 200.363281 62.402344 202.007812 C 62.402344 270.957031 118.476562 327.046875 187.402344 327.046875 C 255.332031 327.046875 310.734375 272.558594 312.328125 204.988281 L 363.164062 204.988281 L 346.632812 217.691406 C 345.328125 218.691406 345.082031 220.558594 346.085938 221.863281 C 346.671875 222.625 347.550781 223.027344 348.445312 223.027344 C 349.078125 223.027344 349.71875 222.828125 350.257812 222.410156 L 373.738281 204.371094 C 373.785156 204.335938 373.804688 204.273438 373.847656 204.238281 C 374.070312 204.046875 374.234375 203.824219 374.394531 203.578125 C 374.464844 203.46875 374.554688 203.375 374.609375 203.257812 C 374.757812 202.933594 374.835938 202.582031 374.859375 202.207031 C 374.863281 202.148438 374.898438 202.101562 374.898438 202.042969 C 374.898438 202.035156 374.898438 202.03125 374.898438 202.027344 C 374.898438 202.019531 374.902344 202.015625 374.902344 202.007812 Z M 374.902344 202.007812 " fill-opacity="1" fill-rule="nonzero"/></g><path fill="#ef9d26" d="M 222.046875 160.566406 C 222.046875 164.109375 219.160156 166.96875 215.617188 166.96875 C 212.074219 166.96875 209.21875 164.109375 209.21875 160.566406 C 209.21875 150.953125 202.96875 142.796875 194.335938 139.878906 L 194.335938 182.984375 C 212.699219 186.289062 226.660156 202.367188 226.660156 221.628906 C 226.660156 240.917969 212.699219 256.996094 194.335938 260.300781 L 194.335938 268.605469 C 194.335938 270.542969 193.5625 272.269531 192.3125 273.519531 C 191.0625 274.800781 189.308594 275.574219 187.402344 275.574219 C 183.5625 275.574219 180.46875 272.445312 180.46875 268.605469 L 180.46875 260.300781 C 162.105469 256.996094 148.148438 240.917969 148.148438 221.628906 C 148.148438 218.117188 151.035156 215.226562 154.574219 215.226562 C 158.117188 215.226562 160.972656 218.117188 160.972656 221.628906 C 160.972656 233.804688 169.246094 244.074219 180.46875 247.140625 L 180.46875 194.507812 C 164.664062 191.292969 152.757812 177.300781 152.757812 160.570312 C 152.757812 143.835938 164.664062 129.84375 180.4375 126.628906 L 180.46875 126.628906 L 180.46875 114.691406 C 180.46875 112.757812 181.242188 111.03125 182.492188 109.78125 C 183.742188 108.5 185.496094 107.726562 187.402344 107.726562 C 191.242188 107.726562 194.335938 110.851562 194.335938 114.691406 L 194.335938 126.628906 C 210.140625 129.84375 222.046875 143.835938 222.046875 160.566406 Z M 213.832031 221.628906 C 213.832031 209.480469 205.558594 199.210938 194.335938 196.144531 L 194.335938 247.140625 C 205.558594 244.074219 213.832031 233.804688 213.832031 221.628906 Z M 180.46875 181.230469 L 180.46875 139.878906 C 171.835938 142.796875 165.585938 150.953125 165.585938 160.566406 C 165.585938 170.15625 171.835938 178.339844 180.46875 181.230469 Z M 180.46875 181.230469 " fill-opacity="1" fill-rule="nonzero"/></svg>