<svg xmlns="http://www.w3.org/2000/svg" xmlns:xlink="http://www.w3.org/1999/xlink" width="500" zoomAndPan="magnify" viewBox="0 0 375 374.999991" height="500" preserveAspectRatio="xMidYMid meet" version="1.0"><defs><clipPath id="39929efa6f"><path d="M 137 293 L 253 293 L 253 369.613281 L 137 369.613281 Z M 137 293 " clip-rule="nonzero"/></clipPath></defs><path fill="#fa990e" d="M 276.199219 324.632812 L 132.589844 356.738281 C 132.527344 356.738281 132.398438 356.804688 132.332031 356.804688 C 123.042969 358.738281 113.945312 352.871094 111.949219 343.585938 C 111.882812 343.523438 111.882812 343.523438 111.882812 343.460938 L 82.660156 204.972656 L 97.882812 177.828125 C 100.398438 173.445312 104.65625 170.285156 109.6875 169.320312 L 144.011719 162.679688 L 181.171875 155.460938 L 225.101562 146.945312 C 229.941406 145.980469 235.039062 147.207031 238.910156 150.238281 L 260.070312 166.484375 L 289.359375 304.132812 C 291.296875 313.414062 285.488281 322.570312 276.199219 324.632812 Z M 276.199219 324.632812 " fill-opacity="1" fill-rule="nonzero"/><path fill="#fbad3e" d="M 276.183594 324.652344 L 132.570312 356.722656 C 132.511719 356.722656 132.394531 356.78125 132.335938 356.78125 C 123.042969 358.707031 113.921875 352.867188 111.9375 343.582031 C 111.878906 343.519531 111.878906 343.519531 111.878906 343.464844 L 82.652344 204.964844 L 260.050781 166.46875 L 289.335938 304.152344 C 291.324219 313.4375 285.476562 322.550781 276.183594 324.652344 Z M 276.183594 324.652344 " fill-opacity="1" fill-rule="nonzero"/><path fill="#b53016" d="M 147.8125 191.148438 L 189.617188 181.484375 L 225.339844 335.839844 L 183.535156 345.503906 Z M 147.8125 191.148438 " fill-opacity="1" fill-rule="nonzero"/><path fill="#617f4d" d="M 231.125 75.800781 L 212.386719 127.746094 C 210.328125 133.453125 204.011719 136.429688 198.332031 134.375 L 99.917969 98.757812 C 94.238281 96.703125 91.28125 90.367188 93.339844 84.660156 L 112.074219 32.71875 C 114.15625 26.953125 120.453125 24.03125 126.132812 26.085938 L 224.546875 61.703125 C 230.226562 63.761719 233.203125 70.039062 231.125 75.800781 Z M 231.125 75.800781 " fill-opacity="1" fill-rule="nonzero"/><path fill="#3d5e2a" d="M 219.492188 81.40625 L 207.015625 115.988281 C 202.078125 114.203125 196.617188 116.78125 194.828125 121.742188 L 110.675781 91.285156 C 112.464844 86.328125 109.90625 80.84375 104.972656 79.058594 L 117.445312 44.472656 C 122.382812 46.261719 127.847656 43.683594 129.636719 38.722656 L 213.789062 69.179688 C 212 74.140625 214.554688 79.617188 219.492188 81.40625 Z M 219.492188 81.40625 " fill-opacity="1" fill-rule="nonzero"/><path fill="#255299" d="M 128.636719 61.273438 C 128.984375 61.34375 129.320312 61.445312 129.648438 61.582031 C 129.972656 61.71875 130.285156 61.886719 130.578125 62.082031 C 130.871094 62.28125 131.144531 62.507812 131.394531 62.757812 C 131.644531 63.011719 131.867188 63.285156 132.0625 63.578125 C 132.257812 63.875 132.425781 64.1875 132.558594 64.515625 C 132.691406 64.84375 132.792969 65.183594 132.863281 65.53125 C 132.929688 65.878906 132.964844 66.234375 132.964844 66.589844 C 132.960938 66.945312 132.925781 67.296875 132.855469 67.644531 C 132.785156 67.992188 132.683594 68.332031 132.546875 68.660156 C 132.410156 68.988281 132.242188 69.300781 132.046875 69.59375 C 131.847656 69.890625 131.625 70.164062 131.371094 70.414062 C 131.121094 70.664062 130.847656 70.890625 130.554688 71.085938 C 130.257812 71.285156 129.945312 71.449219 129.617188 71.585938 C 129.289062 71.722656 128.953125 71.824219 128.605469 71.894531 C 128.257812 71.960938 127.90625 71.996094 127.550781 71.996094 C 127.199219 71.996094 126.847656 71.960938 126.5 71.890625 C 126.152344 71.820312 125.816406 71.71875 125.488281 71.582031 C 125.160156 71.445312 124.851562 71.277344 124.558594 71.082031 C 124.261719 70.882812 123.992188 70.65625 123.742188 70.40625 C 123.492188 70.15625 123.269531 69.878906 123.074219 69.585938 C 122.875 69.289062 122.710938 68.976562 122.578125 68.648438 C 122.441406 68.320312 122.339844 67.980469 122.273438 67.632812 C 122.203125 67.285156 122.171875 66.929688 122.171875 66.574219 C 122.171875 66.21875 122.207031 65.867188 122.277344 65.519531 C 122.347656 65.171875 122.453125 64.832031 122.589844 64.503906 C 122.726562 64.175781 122.890625 63.863281 123.089844 63.570312 C 123.289062 63.273438 123.511719 63 123.761719 62.75 C 124.015625 62.5 124.289062 62.273438 124.582031 62.078125 C 124.878906 61.878906 125.1875 61.714844 125.515625 61.578125 C 125.84375 61.441406 126.183594 61.339844 126.53125 61.269531 C 126.878906 61.203125 127.226562 61.167969 127.582031 61.167969 C 127.9375 61.167969 128.289062 61.203125 128.636719 61.273438 Z M 128.636719 61.273438 " fill-opacity="1" fill-rule="nonzero"/><path fill="#255299" d="M 200.5 87.277344 C 200.847656 87.347656 201.183594 87.453125 201.511719 87.589844 C 201.839844 87.726562 202.148438 87.890625 202.445312 88.089844 C 202.738281 88.289062 203.007812 88.511719 203.257812 88.765625 C 203.507812 89.015625 203.730469 89.289062 203.929688 89.585938 C 204.125 89.878906 204.289062 90.191406 204.425781 90.523438 C 204.558594 90.851562 204.660156 91.1875 204.730469 91.539062 C 204.796875 91.886719 204.832031 92.238281 204.828125 92.59375 C 204.828125 92.949219 204.792969 93.300781 204.722656 93.648438 C 204.652344 94 204.550781 94.335938 204.414062 94.664062 C 204.277344 94.992188 204.109375 95.304688 203.910156 95.601562 C 203.714844 95.894531 203.488281 96.167969 203.238281 96.421875 C 202.988281 96.671875 202.714844 96.894531 202.417969 97.09375 C 202.125 97.289062 201.8125 97.457031 201.484375 97.59375 C 201.15625 97.726562 200.820312 97.828125 200.472656 97.898438 C 200.125 97.96875 199.773438 98.003906 199.417969 98 C 199.0625 98 198.714844 97.964844 198.367188 97.898438 C 198.019531 97.828125 197.679688 97.722656 197.355469 97.585938 C 197.027344 97.449219 196.71875 97.285156 196.421875 97.085938 C 196.128906 96.886719 195.855469 96.664062 195.605469 96.410156 C 195.355469 96.160156 195.132812 95.886719 194.9375 95.589844 C 194.742188 95.292969 194.578125 94.984375 194.441406 94.652344 C 194.308594 94.324219 194.207031 93.988281 194.136719 93.636719 C 194.070312 93.289062 194.035156 92.9375 194.039062 92.582031 C 194.039062 92.226562 194.074219 91.875 194.144531 91.527344 C 194.214844 91.175781 194.316406 90.839844 194.453125 90.511719 C 194.589844 90.183594 194.757812 89.871094 194.957031 89.574219 C 195.152344 89.28125 195.378906 89.007812 195.628906 88.753906 C 195.878906 88.503906 196.152344 88.28125 196.449219 88.082031 C 196.742188 87.886719 197.054688 87.71875 197.382812 87.582031 C 197.710938 87.449219 198.046875 87.34375 198.394531 87.277344 C 198.742188 87.207031 199.09375 87.171875 199.449219 87.175781 C 199.804688 87.175781 200.152344 87.210938 200.5 87.277344 Z M 200.5 87.277344 " fill-opacity="1" fill-rule="nonzero"/><path fill="#8a9bea" d="M 169.136719 60.703125 C 169.710938 60.90625 170.277344 61.140625 170.828125 61.40625 C 171.378906 61.671875 171.917969 61.96875 172.4375 62.292969 C 172.957031 62.617188 173.460938 62.96875 173.949219 63.347656 C 174.433594 63.730469 174.898438 64.136719 175.347656 64.570312 C 175.792969 65.003906 176.214844 65.460938 176.617188 65.941406 C 177.019531 66.421875 177.398438 66.925781 177.75 67.449219 C 178.105469 67.972656 178.433594 68.519531 178.734375 69.082031 C 179.039062 69.644531 179.3125 70.222656 179.558594 70.820312 C 179.808594 71.417969 180.027344 72.027344 180.21875 72.648438 C 180.410156 73.273438 180.570312 73.90625 180.703125 74.550781 C 180.835938 75.199219 180.9375 75.851562 181.007812 76.511719 C 181.082031 77.171875 181.125 77.835938 181.132812 78.503906 C 181.144531 79.171875 181.128906 79.84375 181.078125 80.515625 C 181.03125 81.183594 180.949219 81.855469 180.839844 82.519531 C 180.730469 83.1875 180.59375 83.851562 180.421875 84.507812 C 180.253906 85.164062 180.058594 85.8125 179.832031 86.449219 C 179.605469 87.089844 179.351562 87.71875 179.070312 88.335938 C 178.789062 88.953125 178.480469 89.554688 178.144531 90.140625 C 177.8125 90.730469 177.453125 91.300781 177.070312 91.851562 C 176.683594 92.40625 176.277344 92.9375 175.847656 93.449219 C 175.417969 93.964844 174.96875 94.453125 174.496094 94.921875 C 174.027344 95.390625 173.535156 95.835938 173.027344 96.253906 C 172.519531 96.671875 171.996094 97.0625 171.453125 97.429688 C 170.914062 97.792969 170.359375 98.128906 169.792969 98.4375 C 169.222656 98.746094 168.644531 99.027344 168.058594 99.273438 C 167.46875 99.523438 166.871094 99.738281 166.265625 99.925781 C 165.660156 100.113281 165.050781 100.265625 164.4375 100.386719 C 163.820312 100.507812 163.203125 100.597656 162.585938 100.65625 C 161.964844 100.710938 161.347656 100.734375 160.730469 100.726562 C 160.113281 100.71875 159.5 100.675781 158.890625 100.601562 C 158.28125 100.527344 157.675781 100.417969 157.082031 100.277344 C 156.484375 100.136719 155.898438 99.964844 155.324219 99.761719 C 154.746094 99.558594 154.183594 99.324219 153.628906 99.058594 C 153.078125 98.792969 152.542969 98.5 152.019531 98.175781 C 151.5 97.851562 150.996094 97.496094 150.511719 97.117188 C 150.023438 96.738281 149.558594 96.328125 149.113281 95.898438 C 148.664062 95.464844 148.242188 95.007812 147.839844 94.527344 C 147.4375 94.046875 147.0625 93.542969 146.707031 93.015625 C 146.351562 92.492188 146.027344 91.949219 145.722656 91.386719 C 145.421875 90.824219 145.144531 90.242188 144.898438 89.648438 C 144.652344 89.050781 144.433594 88.441406 144.242188 87.816406 C 144.050781 87.191406 143.886719 86.558594 143.757812 85.914062 C 143.625 85.269531 143.523438 84.617188 143.449219 83.957031 C 143.378906 83.296875 143.335938 82.632812 143.324219 81.964844 C 143.3125 81.292969 143.332031 80.625 143.378906 79.953125 C 143.429688 79.28125 143.507812 78.613281 143.617188 77.945312 C 143.726562 77.277344 143.867188 76.617188 144.035156 75.960938 C 144.203125 75.304688 144.402344 74.65625 144.625 74.015625 C 144.851562 73.375 145.105469 72.75 145.390625 72.132812 C 145.671875 71.515625 145.976562 70.914062 146.3125 70.324219 C 146.648438 69.738281 147.007812 69.167969 147.390625 68.613281 C 147.773438 68.0625 148.179688 67.527344 148.609375 67.015625 C 149.039062 66.503906 149.488281 66.011719 149.960938 65.542969 C 150.433594 65.074219 150.921875 64.632812 151.429688 64.214844 C 151.9375 63.796875 152.464844 63.402344 153.003906 63.039062 C 153.542969 62.671875 154.097656 62.335938 154.667969 62.027344 C 155.234375 61.71875 155.8125 61.441406 156.402344 61.191406 C 156.992188 60.945312 157.585938 60.726562 158.191406 60.542969 C 158.796875 60.355469 159.40625 60.199219 160.023438 60.078125 C 160.636719 59.957031 161.253906 59.867188 161.875 59.8125 C 162.492188 59.753906 163.113281 59.730469 163.730469 59.738281 C 164.347656 59.75 164.960938 59.792969 165.570312 59.867188 C 166.179688 59.941406 166.78125 60.046875 167.378906 60.1875 C 167.972656 60.328125 168.558594 60.5 169.136719 60.703125 Z M 169.136719 60.703125 " fill-opacity="1" fill-rule="nonzero"/><path fill="#ffffff" d="M 167.054688 85.164062 C 167.015625 82.484375 165.152344 79.984375 162.644531 79.089844 C 161 78.539062 159.785156 76.941406 159.695312 75.195312 C 159.535156 73.445312 160.550781 71.644531 162.164062 70.792969 C 163.769531 69.921875 165.945312 70.066406 167.484375 71.308594 C 169.058594 72.5 169.875 74.738281 169.359375 76.902344 C 170.398438 74.925781 169.996094 72.179688 168.285156 70.429688 C 167.871094 70.003906 167.386719 69.640625 166.859375 69.347656 C 167.019531 69.242188 167.160156 69.128906 167.289062 69.011719 C 167.582031 68.722656 167.785156 68.398438 167.914062 68.050781 C 168.039062 67.699219 168.089844 67.320312 168.050781 66.910156 C 167.996094 66.496094 167.882812 66.058594 167.535156 65.535156 C 166.929688 65.714844 166.566406 65.980469 166.261719 66.261719 C 165.96875 66.554688 165.765625 66.875 165.640625 67.226562 C 165.515625 67.578125 165.464844 67.957031 165.507812 68.367188 C 165.527344 68.515625 165.558594 68.671875 165.601562 68.832031 C 165.433594 68.78125 165.265625 68.722656 165.089844 68.683594 C 163.863281 68.429688 162.550781 68.582031 161.371094 69.074219 C 158.964844 70.039062 157.320312 72.636719 157.40625 75.300781 C 157.453125 77.980469 159.308594 80.484375 161.820312 81.375 C 163.46875 81.921875 164.679688 83.523438 164.773438 85.269531 C 164.933594 87.019531 163.917969 88.824219 162.300781 89.675781 C 160.695312 90.542969 158.519531 90.402344 156.980469 89.15625 C 155.402344 87.964844 154.589844 85.722656 155.105469 83.5625 C 154.066406 85.539062 154.472656 88.285156 156.179688 90.03125 C 156.589844 90.464844 157.070312 90.828125 157.597656 91.117188 C 157.441406 91.222656 157.300781 91.335938 157.175781 91.453125 C 156.882812 91.742188 156.675781 92.0625 156.550781 92.414062 C 156.425781 92.765625 156.378906 93.144531 156.417969 93.554688 C 156.476562 93.96875 156.585938 94.40625 156.933594 94.925781 C 157.53125 94.75 157.894531 94.484375 158.203125 94.199219 C 158.496094 93.910156 158.699219 93.589844 158.828125 93.238281 C 158.953125 92.886719 159.003906 92.511719 158.960938 92.101562 C 158.941406 91.945312 158.910156 91.789062 158.863281 91.625 C 160.230469 92.023438 161.742188 91.988281 163.09375 91.386719 C 165.496094 90.421875 167.144531 87.828125 167.054688 85.164062 Z M 167.054688 85.164062 " fill-opacity="1" fill-rule="nonzero"/><path fill="#8a9bea" d="M 127.367188 61.914062 C 127.714844 61.984375 128.050781 62.089844 128.378906 62.226562 C 128.703125 62.363281 129.015625 62.527344 129.308594 62.726562 C 129.605469 62.925781 129.875 63.148438 130.125 63.402344 C 130.375 63.652344 130.597656 63.925781 130.792969 64.222656 C 130.988281 64.519531 131.15625 64.828125 131.289062 65.160156 C 131.425781 65.488281 131.527344 65.824219 131.59375 66.175781 C 131.664062 66.523438 131.695312 66.875 131.695312 67.230469 C 131.695312 67.585938 131.660156 67.9375 131.589844 68.285156 C 131.519531 68.636719 131.414062 68.972656 131.277344 69.300781 C 131.140625 69.628906 130.976562 69.941406 130.777344 70.238281 C 130.578125 70.53125 130.355469 70.804688 130.105469 71.058594 C 129.851562 71.308594 129.578125 71.53125 129.285156 71.730469 C 128.988281 71.925781 128.679688 72.09375 128.351562 72.230469 C 128.023438 72.363281 127.683594 72.46875 127.335938 72.535156 C 126.988281 72.605469 126.636719 72.640625 126.285156 72.640625 C 125.929688 72.636719 125.578125 72.601562 125.230469 72.535156 C 124.882812 72.464844 124.546875 72.359375 124.21875 72.222656 C 123.894531 72.085938 123.582031 71.921875 123.289062 71.722656 C 122.996094 71.523438 122.722656 71.300781 122.472656 71.046875 C 122.222656 70.796875 122 70.523438 121.804688 70.226562 C 121.609375 69.933594 121.441406 69.621094 121.308594 69.289062 C 121.171875 68.960938 121.070312 68.625 121.003906 68.273438 C 120.9375 67.925781 120.902344 67.574219 120.902344 67.21875 C 120.90625 66.863281 120.941406 66.511719 121.011719 66.164062 C 121.078125 65.8125 121.183594 65.476562 121.320312 65.148438 C 121.457031 64.820312 121.625 64.507812 121.820312 64.210938 C 122.019531 63.917969 122.242188 63.644531 122.496094 63.390625 C 122.746094 63.140625 123.019531 62.917969 123.3125 62.71875 C 123.609375 62.523438 123.921875 62.355469 124.25 62.21875 C 124.574219 62.085938 124.914062 61.984375 125.261719 61.914062 C 125.609375 61.84375 125.960938 61.808594 126.3125 61.8125 C 126.667969 61.8125 127.019531 61.847656 127.367188 61.914062 Z M 127.367188 61.914062 " fill-opacity="1" fill-rule="nonzero"/><path fill="#8a9bea" d="M 199.234375 87.925781 C 199.578125 87.996094 199.917969 88.101562 200.242188 88.238281 C 200.570312 88.371094 200.882812 88.539062 201.175781 88.738281 C 201.46875 88.9375 201.742188 89.160156 201.992188 89.414062 C 202.242188 89.664062 202.464844 89.9375 202.660156 90.234375 C 202.855469 90.527344 203.019531 90.839844 203.15625 91.171875 C 203.289062 91.5 203.390625 91.835938 203.460938 92.1875 C 203.527344 92.535156 203.5625 92.886719 203.5625 93.242188 C 203.558594 93.597656 203.523438 93.949219 203.453125 94.296875 C 203.382812 94.648438 203.28125 94.984375 203.144531 95.3125 C 203.007812 95.640625 202.839844 95.953125 202.644531 96.25 C 202.445312 96.542969 202.222656 96.816406 201.96875 97.070312 C 201.71875 97.320312 201.445312 97.542969 201.148438 97.742188 C 200.855469 97.9375 200.542969 98.105469 200.214844 98.242188 C 199.886719 98.375 199.550781 98.476562 199.203125 98.546875 C 198.855469 98.617188 198.503906 98.652344 198.148438 98.648438 C 197.796875 98.648438 197.445312 98.613281 197.097656 98.546875 C 196.75 98.476562 196.414062 98.371094 196.085938 98.234375 C 195.757812 98.097656 195.449219 97.933594 195.15625 97.734375 C 194.859375 97.535156 194.589844 97.3125 194.339844 97.058594 C 194.089844 96.808594 193.867188 96.535156 193.671875 96.238281 C 193.472656 95.941406 193.308594 95.632812 193.175781 95.300781 C 193.039062 94.972656 192.9375 94.636719 192.871094 94.285156 C 192.800781 93.9375 192.769531 93.585938 192.769531 93.230469 C 192.769531 92.875 192.804688 92.523438 192.875 92.175781 C 192.945312 91.824219 193.050781 91.488281 193.1875 91.160156 C 193.320312 90.832031 193.488281 90.519531 193.6875 90.222656 C 193.882812 89.929688 194.109375 89.65625 194.359375 89.402344 C 194.613281 89.152344 194.882812 88.929688 195.179688 88.730469 C 195.476562 88.535156 195.785156 88.367188 196.113281 88.230469 C 196.441406 88.097656 196.78125 87.992188 197.128906 87.925781 C 197.476562 87.855469 197.824219 87.820312 198.179688 87.820312 C 198.535156 87.824219 198.886719 87.859375 199.234375 87.925781 Z M 199.234375 87.925781 " fill-opacity="1" fill-rule="nonzero"/><path fill="#aec46e" d="M 240.625 77.261719 L 212.382812 124.496094 C 209.277344 129.683594 202.507812 131.386719 197.316406 128.285156 L 107.347656 74.558594 C 102.15625 71.457031 100.449219 64.6875 103.550781 59.5 L 131.796875 12.265625 C 134.929688 7.027344 141.671875 5.375 146.863281 8.476562 L 236.832031 62.207031 C 242.023438 65.304688 243.761719 72.019531 240.625 77.261719 Z M 240.625 77.261719 " fill-opacity="1" fill-rule="nonzero"/><path fill="#617f4d" d="M 228.132812 80.511719 L 209.328125 111.960938 C 204.816406 109.265625 198.957031 110.742188 196.261719 115.25 L 119.332031 69.308594 C 122.03125 64.800781 120.554688 58.945312 116.042969 56.25 L 134.847656 24.800781 C 139.363281 27.496094 145.21875 26.023438 147.914062 21.511719 L 224.84375 67.453125 C 222.148438 71.964844 223.621094 77.816406 228.132812 80.511719 Z M 228.132812 80.511719 " fill-opacity="1" fill-rule="nonzero"/><path fill="#255299" d="M 211.707031 87.609375 C 211.707031 87.964844 211.671875 88.316406 211.605469 88.664062 C 211.535156 89.011719 211.433594 89.347656 211.296875 89.675781 C 211.160156 90.003906 210.996094 90.316406 210.796875 90.609375 C 210.601562 90.902344 210.378906 91.175781 210.125 91.425781 C 209.875 91.679688 209.601562 91.902344 209.308594 92.097656 C 209.011719 92.296875 208.703125 92.460938 208.375 92.597656 C 208.046875 92.734375 207.707031 92.835938 207.359375 92.90625 C 207.011719 92.972656 206.660156 93.007812 206.308594 93.007812 C 205.953125 93.007812 205.601562 92.972656 205.253906 92.90625 C 204.90625 92.835938 204.566406 92.734375 204.242188 92.597656 C 203.914062 92.460938 203.601562 92.296875 203.308594 92.097656 C 203.011719 91.902344 202.738281 91.679688 202.488281 91.425781 C 202.238281 91.175781 202.011719 90.902344 201.816406 90.609375 C 201.621094 90.316406 201.453125 90.003906 201.316406 89.675781 C 201.183594 89.347656 201.078125 89.011719 201.011719 88.664062 C 200.941406 88.316406 200.90625 87.964844 200.90625 87.609375 C 200.90625 87.257812 200.941406 86.90625 201.011719 86.558594 C 201.078125 86.210938 201.183594 85.871094 201.316406 85.546875 C 201.453125 85.21875 201.621094 84.90625 201.816406 84.613281 C 202.011719 84.316406 202.238281 84.046875 202.488281 83.792969 C 202.738281 83.542969 203.011719 83.320312 203.308594 83.125 C 203.601562 82.925781 203.914062 82.761719 204.242188 82.625 C 204.566406 82.488281 204.90625 82.386719 205.253906 82.316406 C 205.601562 82.25 205.953125 82.214844 206.308594 82.214844 C 206.660156 82.214844 207.011719 82.25 207.359375 82.316406 C 207.707031 82.386719 208.046875 82.488281 208.375 82.625 C 208.703125 82.761719 209.011719 82.925781 209.308594 83.125 C 209.601562 83.320312 209.875 83.542969 210.125 83.792969 C 210.378906 84.046875 210.601562 84.316406 210.796875 84.613281 C 210.996094 84.90625 211.160156 85.21875 211.296875 85.546875 C 211.433594 85.871094 211.535156 86.210938 211.605469 86.558594 C 211.671875 86.90625 211.707031 87.257812 211.707031 87.609375 Z M 211.707031 87.609375 " fill-opacity="1" fill-rule="nonzero"/><path fill="#ffffff" d="M 182.6875 50.660156 C 183.210938 50.976562 183.71875 51.316406 184.207031 51.6875 C 184.695312 52.054688 185.164062 52.449219 185.613281 52.871094 C 186.0625 53.292969 186.484375 53.738281 186.886719 54.207031 C 187.289062 54.675781 187.667969 55.164062 188.019531 55.675781 C 188.371094 56.1875 188.699219 56.71875 189 57.269531 C 189.300781 57.820312 189.570312 58.386719 189.816406 58.972656 C 190.058594 59.554688 190.273438 60.152344 190.460938 60.761719 C 190.648438 61.375 190.800781 61.996094 190.929688 62.628906 C 191.054688 63.257812 191.152344 63.898438 191.214844 64.546875 C 191.28125 65.195312 191.316406 65.847656 191.320312 66.503906 C 191.320312 67.160156 191.292969 67.820312 191.234375 68.480469 C 191.179688 69.140625 191.089844 69.796875 190.96875 70.453125 C 190.851562 71.109375 190.699219 71.761719 190.519531 72.40625 C 190.339844 73.054688 190.132812 73.691406 189.894531 74.324219 C 189.65625 74.953125 189.390625 75.574219 189.097656 76.179688 C 188.804688 76.789062 188.484375 77.382812 188.136719 77.964844 C 187.789062 78.542969 187.417969 79.109375 187.019531 79.65625 C 186.621094 80.203125 186.203125 80.730469 185.761719 81.238281 C 185.316406 81.746094 184.851562 82.230469 184.367188 82.695312 C 183.882812 83.160156 183.378906 83.601562 182.859375 84.015625 C 182.335938 84.433594 181.800781 84.820312 181.246094 85.1875 C 180.691406 85.550781 180.125 85.886719 179.542969 86.195312 C 178.964844 86.503906 178.371094 86.78125 177.769531 87.03125 C 177.167969 87.28125 176.558594 87.5 175.941406 87.6875 C 175.324219 87.875 174.703125 88.03125 174.078125 88.160156 C 173.453125 88.285156 172.824219 88.378906 172.195312 88.4375 C 171.5625 88.5 170.933594 88.53125 170.308594 88.527344 C 169.679688 88.523438 169.058594 88.488281 168.441406 88.417969 C 167.820312 88.351562 167.210938 88.253906 166.609375 88.121094 C 166.003906 87.988281 165.410156 87.824219 164.828125 87.628906 C 164.246094 87.4375 163.675781 87.210938 163.117188 86.957031 C 162.558594 86.699219 162.019531 86.414062 161.492188 86.101562 C 160.96875 85.789062 160.460938 85.445312 159.972656 85.078125 C 159.484375 84.707031 159.015625 84.3125 158.566406 83.890625 C 158.117188 83.46875 157.695312 83.027344 157.292969 82.554688 C 156.890625 82.085938 156.511719 81.597656 156.160156 81.085938 C 155.808594 80.574219 155.480469 80.042969 155.179688 79.492188 C 154.878906 78.941406 154.609375 78.375 154.363281 77.792969 C 154.121094 77.207031 153.90625 76.609375 153.71875 76 C 153.535156 75.390625 153.378906 74.765625 153.25 74.136719 C 153.125 73.503906 153.027344 72.863281 152.964844 72.214844 C 152.898438 71.566406 152.863281 70.914062 152.859375 70.257812 C 152.859375 69.601562 152.886719 68.941406 152.945312 68.28125 C 153.003906 67.625 153.089844 66.964844 153.210938 66.308594 C 153.328125 65.652344 153.480469 65 153.660156 64.355469 C 153.839844 63.707031 154.046875 63.070312 154.285156 62.441406 C 154.523438 61.808594 154.789062 61.191406 155.082031 60.582031 C 155.375 59.972656 155.695312 59.378906 156.042969 58.796875 C 156.390625 58.21875 156.761719 57.65625 157.160156 57.109375 C 157.558594 56.5625 157.976562 56.035156 158.417969 55.527344 C 158.863281 55.015625 159.328125 54.53125 159.8125 54.066406 C 160.296875 53.601562 160.800781 53.164062 161.320312 52.746094 C 161.84375 52.332031 162.378906 51.941406 162.933594 51.578125 C 163.488281 51.210938 164.054688 50.875 164.636719 50.570312 C 165.214844 50.261719 165.808594 49.980469 166.410156 49.730469 C 167.011719 49.484375 167.621094 49.261719 168.238281 49.074219 C 168.855469 48.886719 169.476562 48.730469 170.101562 48.605469 C 170.726562 48.476562 171.355469 48.386719 171.984375 48.324219 C 172.617188 48.261719 173.246094 48.234375 173.871094 48.234375 C 174.5 48.238281 175.121094 48.273438 175.738281 48.34375 C 176.359375 48.410156 176.96875 48.511719 177.574219 48.640625 C 178.175781 48.773438 178.769531 48.9375 179.351562 49.132812 C 179.9375 49.328125 180.503906 49.550781 181.0625 49.808594 C 181.621094 50.0625 182.160156 50.347656 182.6875 50.660156 Z M 182.6875 50.660156 " fill-opacity="1" fill-rule="nonzero"/><path fill="#617f4d" d="M 175.898438 74.132812 C 176.363281 71.503906 175.007812 68.699219 172.710938 67.34375 C 171.199219 66.488281 170.308594 64.691406 170.550781 62.964844 C 170.722656 61.222656 172.0625 59.65625 173.8125 59.132812 C 175.550781 58.589844 177.664062 59.148438 178.9375 60.660156 C 180.261719 62.125 180.636719 64.472656 179.726562 66.492188 C 181.121094 64.753906 181.242188 61.992188 179.894531 59.953125 C 179.566406 59.453125 179.160156 59.003906 178.695312 58.617188 C 178.875 58.542969 179.035156 58.460938 179.183594 58.371094 C 179.523438 58.144531 179.785156 57.867188 179.976562 57.550781 C 180.167969 57.234375 180.289062 56.871094 180.328125 56.460938 C 180.351562 56.046875 180.324219 55.597656 180.082031 55.019531 C 179.457031 55.078125 179.046875 55.265625 178.691406 55.484375 C 178.351562 55.714844 178.089844 55.988281 177.898438 56.308594 C 177.710938 56.628906 177.589844 56.988281 177.554688 57.398438 C 177.542969 57.550781 177.546875 57.710938 177.558594 57.875 C 177.402344 57.792969 177.25 57.703125 177.085938 57.632812 C 175.925781 57.144531 174.609375 57.042969 173.355469 57.300781 C 170.808594 57.78125 168.703125 60.007812 168.28125 62.628906 C 167.820312 65.261719 169.171875 68.066406 171.46875 69.421875 C 172.984375 70.273438 173.871094 72.074219 173.632812 73.800781 C 173.457031 75.542969 172.121094 77.113281 170.371094 77.636719 C 168.628906 78.175781 166.515625 77.621094 165.238281 76.105469 C 163.917969 74.636719 163.539062 72.289062 164.457031 70.273438 C 163.0625 72.011719 162.9375 74.773438 164.289062 76.808594 C 164.609375 77.3125 165.011719 77.761719 165.476562 78.144531 C 165.300781 78.21875 165.140625 78.300781 164.996094 78.390625 C 164.652344 78.617188 164.390625 78.894531 164.203125 79.214844 C 164.011719 79.53125 163.894531 79.894531 163.855469 80.304688 C 163.832031 80.722656 163.855469 81.167969 164.097656 81.746094 C 164.722656 81.683594 165.128906 81.496094 165.484375 81.277344 C 165.828125 81.046875 166.089844 80.773438 166.28125 80.457031 C 166.472656 80.136719 166.59375 79.777344 166.628906 79.367188 C 166.640625 79.214844 166.636719 79.050781 166.625 78.886719 C 167.890625 79.535156 169.382812 79.789062 170.824219 79.460938 C 173.371094 78.980469 175.476562 76.757812 175.898438 74.132812 Z M 175.898438 74.132812 " fill-opacity="1" fill-rule="nonzero"/><path fill="#ffffff" d="M 144.640625 48.765625 C 144.640625 49.121094 144.605469 49.472656 144.539062 49.820312 C 144.46875 50.167969 144.367188 50.503906 144.230469 50.832031 C 144.09375 51.160156 143.929688 51.46875 143.730469 51.765625 C 143.535156 52.058594 143.308594 52.332031 143.058594 52.582031 C 142.808594 52.832031 142.535156 53.058594 142.242188 53.253906 C 141.945312 53.449219 141.636719 53.617188 141.308594 53.753906 C 140.980469 53.886719 140.640625 53.992188 140.292969 54.058594 C 139.945312 54.128906 139.59375 54.164062 139.242188 54.164062 C 138.886719 54.164062 138.535156 54.128906 138.1875 54.058594 C 137.839844 53.992188 137.5 53.886719 137.171875 53.753906 C 136.847656 53.617188 136.535156 53.449219 136.238281 53.253906 C 135.945312 53.058594 135.671875 52.832031 135.421875 52.582031 C 135.171875 52.332031 134.945312 52.058594 134.75 51.765625 C 134.550781 51.46875 134.386719 51.160156 134.25 50.832031 C 134.113281 50.503906 134.011719 50.167969 133.941406 49.820312 C 133.875 49.472656 133.839844 49.121094 133.839844 48.765625 C 133.839844 48.410156 133.875 48.0625 133.941406 47.714844 C 134.011719 47.367188 134.113281 47.027344 134.25 46.699219 C 134.386719 46.375 134.550781 46.0625 134.75 45.765625 C 134.945312 45.472656 135.171875 45.199219 135.421875 44.949219 C 135.671875 44.699219 135.945312 44.476562 136.238281 44.277344 C 136.535156 44.082031 136.847656 43.914062 137.171875 43.78125 C 137.5 43.644531 137.839844 43.542969 138.1875 43.472656 C 138.535156 43.402344 138.886719 43.367188 139.242188 43.367188 C 139.59375 43.367188 139.945312 43.402344 140.292969 43.472656 C 140.640625 43.542969 140.980469 43.644531 141.308594 43.78125 C 141.636719 43.914062 141.945312 44.082031 142.242188 44.277344 C 142.535156 44.476562 142.808594 44.699219 143.058594 44.949219 C 143.308594 45.199219 143.535156 45.472656 143.730469 45.765625 C 143.929688 46.0625 144.09375 46.375 144.230469 46.699219 C 144.367188 47.027344 144.46875 47.367188 144.539062 47.714844 C 144.605469 48.0625 144.640625 48.410156 144.640625 48.765625 Z M 144.640625 48.765625 " fill-opacity="1" fill-rule="nonzero"/><path fill="#ffffff" d="M 210.339844 87.996094 C 210.339844 88.351562 210.304688 88.703125 210.238281 89.050781 C 210.167969 89.398438 210.066406 89.734375 209.929688 90.0625 C 209.792969 90.390625 209.628906 90.699219 209.429688 90.996094 C 209.234375 91.289062 209.007812 91.5625 208.757812 91.8125 C 208.507812 92.0625 208.234375 92.289062 207.941406 92.484375 C 207.644531 92.679688 207.332031 92.847656 207.007812 92.984375 C 206.679688 93.117188 206.339844 93.222656 205.992188 93.289062 C 205.644531 93.359375 205.292969 93.394531 204.941406 93.394531 C 204.585938 93.394531 204.234375 93.359375 203.886719 93.289062 C 203.539062 93.222656 203.199219 93.117188 202.871094 92.984375 C 202.546875 92.847656 202.234375 92.679688 201.9375 92.484375 C 201.644531 92.289062 201.371094 92.0625 201.121094 91.8125 C 200.871094 91.5625 200.644531 91.289062 200.449219 90.996094 C 200.25 90.699219 200.085938 90.390625 199.949219 90.0625 C 199.8125 89.734375 199.710938 89.398438 199.640625 89.050781 C 199.574219 88.703125 199.539062 88.351562 199.539062 87.996094 C 199.539062 87.640625 199.574219 87.292969 199.640625 86.945312 C 199.710938 86.597656 199.8125 86.257812 199.949219 85.929688 C 200.085938 85.605469 200.25 85.292969 200.449219 84.996094 C 200.644531 84.703125 200.871094 84.429688 201.121094 84.179688 C 201.371094 83.929688 201.644531 83.707031 201.9375 83.507812 C 202.234375 83.3125 202.546875 83.144531 202.871094 83.011719 C 203.199219 82.875 203.539062 82.773438 203.886719 82.703125 C 204.234375 82.632812 204.585938 82.597656 204.941406 82.597656 C 205.292969 82.597656 205.644531 82.632812 205.992188 82.703125 C 206.339844 82.773438 206.679688 82.875 207.007812 83.011719 C 207.332031 83.144531 207.644531 83.3125 207.941406 83.507812 C 208.234375 83.707031 208.507812 83.929688 208.757812 84.179688 C 209.007812 84.429688 209.234375 84.703125 209.429688 84.996094 C 209.628906 85.292969 209.792969 85.605469 209.929688 85.929688 C 210.066406 86.257812 210.167969 86.597656 210.238281 86.945312 C 210.304688 87.292969 210.339844 87.640625 210.339844 87.996094 Z M 210.339844 87.996094 " fill-opacity="1" fill-rule="nonzero"/><path fill="#51504f" d="M 138.027344 294.648438 L 23.53125 229.746094 C 17.957031 226.585938 10.949219 230.066406 10.109375 236.417969 L 0.800781 306.667969 C 0.253906 310.78125 2.578125 314.734375 6.4375 316.257812 L 52.640625 334.523438 C 67.515625 340.40625 83.371094 343.425781 99.367188 343.425781 L 121.191406 343.425781 Z M 138.027344 294.648438 " fill-opacity="1" fill-rule="nonzero"/><path fill="#4269c4" d="M 374.804688 111.988281 C 374.992188 113.773438 373.816406 115.4375 372.089844 115.933594 C 343.265625 123.148438 310.117188 115.070312 310.117188 115.070312 L 310.117188 66.523438 C 327.214844 66.523438 352.894531 50.488281 363.820312 43.578125 C 366.164062 42.097656 369.25 43.640625 369.4375 46.414062 Z M 374.804688 111.988281 " fill-opacity="1" fill-rule="nonzero"/><path fill="#ffcecf" d="M 293.207031 71.828125 L 290.675781 103.597656 L 256.726562 107.421875 C 245.925781 108.65625 235 106.679688 225.246094 101.871094 L 210.246094 94.46875 C 205.542969 92.144531 200.546875 90.476562 195.390625 89.503906 L 181.175781 86.820312 C 176.226562 85.886719 173.976562 80.023438 177.066406 76.046875 C 181.269531 70.644531 188.535156 67.949219 195.679688 70.164062 L 199.382812 71.273438 C 213.328125 75.207031 222.429688 75.511719 228.375 74.265625 C 235.632812 72.742188 237.3125 63.148438 231.027344 59.214844 L 212.65625 47.710938 C 218.890625 42.59375 227.777344 42.34375 234.257812 47.09375 L 265.367188 69.667969 C 269.011719 72.324219 273.453125 73.554688 277.898438 73.1875 Z M 293.207031 71.828125 " fill-opacity="1" fill-rule="nonzero"/><path fill="#8a9bea" d="M 319.789062 121.316406 C 319.964844 123.886719 317.800781 125.992188 315.230469 125.757812 L 296.527344 124.003906 C 294.597656 123.828125 293.019531 122.3125 292.785156 120.382812 L 286.121094 67.515625 C 285.886719 65.53125 287.113281 63.605469 289.042969 63.019531 L 310.378906 56.476562 C 312.949219 55.660156 315.578125 57.472656 315.757812 60.160156 Z M 319.789062 121.316406 " fill-opacity="1" fill-rule="nonzero"/><path fill="#ffffff" d="M 306.914062 110.773438 C 306.914062 111.117188 306.878906 111.457031 306.8125 111.796875 C 306.746094 112.132812 306.644531 112.464844 306.511719 112.78125 C 306.382812 113.101562 306.21875 113.402344 306.027344 113.6875 C 305.835938 113.976562 305.617188 114.242188 305.375 114.484375 C 305.128906 114.730469 304.863281 114.945312 304.578125 115.136719 C 304.292969 115.328125 303.988281 115.492188 303.667969 115.625 C 303.351562 115.753906 303.023438 115.855469 302.683594 115.921875 C 302.34375 115.988281 302.003906 116.023438 301.660156 116.023438 C 301.3125 116.023438 300.972656 115.988281 300.632812 115.921875 C 300.296875 115.855469 299.964844 115.753906 299.648438 115.625 C 299.328125 115.492188 299.027344 115.328125 298.738281 115.136719 C 298.453125 114.945312 298.1875 114.730469 297.941406 114.484375 C 297.699219 114.242188 297.480469 113.976562 297.289062 113.6875 C 297.097656 113.402344 296.9375 113.101562 296.804688 112.78125 C 296.671875 112.464844 296.570312 112.132812 296.503906 111.796875 C 296.4375 111.457031 296.402344 111.117188 296.402344 110.773438 C 296.402344 110.425781 296.4375 110.085938 296.503906 109.746094 C 296.570312 109.410156 296.671875 109.082031 296.804688 108.761719 C 296.9375 108.445312 297.097656 108.140625 297.289062 107.855469 C 297.480469 107.566406 297.699219 107.300781 297.941406 107.058594 C 298.1875 106.816406 298.453125 106.597656 298.738281 106.40625 C 299.027344 106.214844 299.328125 106.050781 299.648438 105.921875 C 299.964844 105.789062 300.296875 105.6875 300.632812 105.621094 C 300.972656 105.554688 301.3125 105.519531 301.660156 105.519531 C 302.003906 105.519531 302.34375 105.554688 302.683594 105.621094 C 303.023438 105.6875 303.351562 105.789062 303.667969 105.921875 C 303.988281 106.050781 304.292969 106.214844 304.578125 106.40625 C 304.863281 106.597656 305.128906 106.816406 305.375 107.058594 C 305.617188 107.300781 305.835938 107.566406 306.027344 107.855469 C 306.21875 108.140625 306.382812 108.445312 306.511719 108.761719 C 306.644531 109.082031 306.746094 109.410156 306.8125 109.746094 C 306.878906 110.085938 306.914062 110.425781 306.914062 110.773438 Z M 306.914062 110.773438 " fill-opacity="1" fill-rule="nonzero"/><g clip-path="url(#39929efa6f)"><path fill="#ffcecf" d="M 252.84375 329.855469 C 251.875 347.519531 240.84375 346.425781 239.683594 346.425781 L 239.617188 346.425781 C 239.234375 347.324219 238.84375 348.167969 238.394531 348.875 C 234.847656 355.125 230.652344 355.449219 229.8125 355.449219 C 229.75 355.449219 229.683594 355.449219 229.683594 355.449219 C 229.363281 356.289062 228.84375 357.0625 228.199219 357.769531 C 223.941406 362.476562 214.199219 363.898438 214.199219 363.898438 C 214.199219 363.960938 214.136719 363.960938 214.136719 364.027344 C 213.621094 364.929688 212.976562 365.699219 212.265625 366.410156 C 212.199219 366.410156 212.199219 366.410156 212.199219 366.410156 C 209.941406 368.796875 206.652344 370.148438 203.363281 370.148438 C 201.492188 370.148438 199.621094 369.699219 197.878906 368.796875 L 181.621094 360.476562 C 172.394531 355.773438 162.847656 351.839844 152.976562 348.617188 L 137.367188 343.460938 L 148.589844 304.003906 L 159.171875 308.644531 C 165.042969 311.15625 171.6875 311.09375 177.429688 308.125 L 200.910156 296.136719 C 206.136719 293.496094 212.070312 293.105469 217.554688 294.976562 L 247.230469 305.160156 C 249.554688 306 250.90625 308.257812 250.90625 310.449219 C 250.90625 311.15625 250.714844 312.0625 250.394531 312.769531 C 248.265625 317.21875 243.8125 319.863281 239.039062 319.863281 C 237.683594 319.863281 236.394531 319.667969 235.039062 319.21875 C 227.75 316.832031 219.8125 318.3125 213.75 322.957031 L 213.75 323.023438 Z M 252.84375 329.855469 " fill-opacity="1" fill-rule="nonzero"/></g><path fill="#3a3a3a" d="M 166.238281 304.324219 L 147.300781 355.203125 C 146.070312 358.300781 142.914062 359.878906 139.757812 358.941406 L 124.621094 354.679688 C 121.347656 353.804688 119.476562 350.648438 120.292969 347.378906 L 132.570312 294.570312 C 133.503906 291.183594 136.953125 289.136719 140.34375 290.128906 L 162.085938 296.148438 C 165.535156 297.140625 167.40625 300.820312 166.238281 304.324219 Z M 166.238281 304.324219 " fill-opacity="1" fill-rule="nonzero"/><path fill="#ffffff" d="M 142.023438 343.425781 C 142.023438 343.734375 141.992188 344.035156 141.933594 344.335938 C 141.875 344.636719 141.785156 344.925781 141.667969 345.207031 C 141.550781 345.492188 141.40625 345.757812 141.238281 346.011719 C 141.066406 346.265625 140.875 346.503906 140.65625 346.71875 C 140.441406 346.933594 140.207031 347.128906 139.953125 347.296875 C 139.699219 347.46875 139.429688 347.609375 139.148438 347.726562 C 138.863281 347.84375 138.574219 347.933594 138.273438 347.992188 C 137.972656 348.050781 137.671875 348.082031 137.363281 348.082031 C 137.058594 348.082031 136.753906 348.050781 136.457031 347.992188 C 136.15625 347.933594 135.863281 347.84375 135.582031 347.726562 C 135.296875 347.609375 135.03125 347.46875 134.777344 347.296875 C 134.523438 347.128906 134.285156 346.933594 134.070312 346.71875 C 133.855469 346.503906 133.660156 346.265625 133.492188 346.011719 C 133.320312 345.757812 133.175781 345.492188 133.058594 345.207031 C 132.941406 344.925781 132.855469 344.636719 132.796875 344.335938 C 132.734375 344.035156 132.707031 343.734375 132.707031 343.425781 C 132.707031 343.121094 132.734375 342.820312 132.796875 342.519531 C 132.855469 342.21875 132.941406 341.925781 133.058594 341.644531 C 133.175781 341.363281 133.320312 341.09375 133.492188 340.839844 C 133.660156 340.585938 133.855469 340.351562 134.070312 340.136719 C 134.285156 339.917969 134.523438 339.726562 134.777344 339.554688 C 135.03125 339.386719 135.296875 339.242188 135.582031 339.125 C 135.863281 339.007812 136.15625 338.921875 136.457031 338.859375 C 136.753906 338.800781 137.058594 338.769531 137.363281 338.769531 C 137.671875 338.769531 137.972656 338.800781 138.273438 338.859375 C 138.574219 338.921875 138.863281 339.007812 139.148438 339.125 C 139.429688 339.242188 139.699219 339.386719 139.953125 339.554688 C 140.207031 339.726562 140.441406 339.917969 140.65625 340.136719 C 140.875 340.351562 141.066406 340.585938 141.238281 340.839844 C 141.40625 341.09375 141.550781 341.363281 141.667969 341.644531 C 141.785156 341.925781 141.875 342.21875 141.933594 342.519531 C 141.992188 342.820312 142.023438 343.121094 142.023438 343.425781 Z M 142.023438 343.425781 " fill-opacity="1" fill-rule="nonzero"/><path fill="#fea9ad" d="M 239.617188 346.425781 C 239.234375 347.324219 238.84375 348.167969 238.394531 348.875 C 236.652344 348.359375 234.910156 347.648438 233.234375 346.875 C 229.039062 344.746094 225.101562 341.78125 222.457031 337.851562 C 224.652344 338.816406 226.585938 339.976562 228.652344 340.945312 L 234.652344 343.976562 Z M 239.617188 346.425781 " fill-opacity="1" fill-rule="nonzero"/><path fill="#fea9ad" d="M 229.8125 355.449219 C 229.75 355.449219 229.683594 355.449219 229.683594 355.449219 C 229.363281 356.289062 228.84375 357.0625 228.199219 357.769531 C 226.457031 357.253906 224.847656 356.613281 223.234375 355.839844 C 219.039062 353.710938 215.167969 350.808594 212.457031 346.875 C 214.652344 347.777344 216.652344 348.9375 218.652344 349.96875 L 224.652344 352.933594 Z M 229.8125 355.449219 " fill-opacity="1" fill-rule="nonzero"/><path fill="#fea9ad" d="M 214.136719 364.027344 C 213.621094 364.929688 212.976562 365.699219 212.265625 366.410156 C 212.199219 366.410156 212.199219 366.410156 212.199219 366.410156 C 211.105469 366.023438 209.941406 365.507812 208.910156 364.992188 C 204.71875 362.925781 200.847656 359.960938 198.136719 356.03125 C 200.332031 356.996094 202.332031 358.15625 204.332031 359.125 L 210.332031 362.15625 Z M 214.136719 364.027344 " fill-opacity="1" fill-rule="nonzero"/><path fill="#912010" d="M 189.621094 181.507812 L 147.816406 191.175781 L 144.011719 162.679688 L 181.171875 155.460938 Z M 189.621094 181.507812 " fill-opacity="1" fill-rule="nonzero"/></svg>