<svg xmlns="http://www.w3.org/2000/svg" xmlns:xlink="http://www.w3.org/1999/xlink" width="500" zoomAndPan="magnify" viewBox="0 0 375 374.999991" height="500" preserveAspectRatio="xMidYMid meet" version="1.0"><defs><clipPath id="8d91a8bcda"><path d="M 26 184 L 191 184 L 191 348.339844 L 26 348.339844 Z M 26 184 " clip-rule="nonzero"/></clipPath><clipPath id="89c16af41e"><path d="M 131 26.589844 L 349 26.589844 L 349 191 L 131 191 Z M 131 26.589844 " clip-rule="nonzero"/></clipPath></defs><path fill="#62dbfb" d="M 57.925781 83.023438 L 66.613281 64.355469 L 38.933594 51.457031 L 0 135.117188 L 27.679688 148.015625 L 34.886719 132.535156 Z M 57.925781 83.023438 " fill-opacity="1" fill-rule="nonzero"/><path fill="#01d0fb" d="M 40.992188 57.101562 L 3.847656 136.910156 L 0 135.117188 L 38.933594 51.457031 L 66.613281 64.355469 L 64.820312 68.207031 Z M 40.992188 57.101562 " fill-opacity="1" fill-rule="nonzero"/><path fill="#ffdfcf" d="M 161.964844 143.832031 L 152.914062 129.328125 C 152.972656 129.496094 153.023438 129.671875 153.070312 129.84375 C 154.855469 136.519531 150.140625 143.628906 142.601562 145.644531 L 134.433594 147.128906 L 158.378906 185.5 C 162.507812 192.128906 170.683594 194.546875 176.539062 190.894531 C 182.394531 187.234375 183.804688 178.820312 179.671875 172.199219 Z M 161.964844 143.832031 " fill-opacity="1" fill-rule="nonzero"/><path fill="#ffdfcf" d="M 213.839844 193.953125 C 219.425781 189.898438 220.246094 181.410156 215.664062 175.089844 L 193.058594 143.925781 L 146.609375 122.277344 L 146.609375 122.28125 C 149.589844 123.722656 151.910156 126.1875 152.914062 129.328125 L 161.964844 143.828125 L 195.347656 189.84375 C 199.929688 196.164062 208.25 198.015625 213.839844 193.953125 Z M 213.839844 193.953125 " fill-opacity="1" fill-rule="nonzero"/><path fill="#ffdfcf" d="M 57.925781 83.023438 L 129.039062 67.246094 L 212.023438 111.644531 L 226.164062 125.761719 C 224.488281 138.035156 223.65625 150.429688 224.105469 162.773438 C 222.980469 164.109375 222.289062 165.863281 222.085938 167.761719 C 221.824219 170.1875 221.699219 172.621094 221.90625 175.019531 L 193.058594 143.925781 L 146.609375 122.277344 L 146.609375 122.28125 C 149.589844 123.722656 151.910156 126.1875 152.914062 129.328125 C 152.972656 129.496094 153.023438 129.671875 153.070312 129.84375 C 154.855469 136.519531 150.140625 143.628906 142.601562 145.644531 L 134.433594 147.128906 L 85.34375 156.050781 L 34.886719 132.535156 Z M 57.925781 83.023438 " fill-opacity="1" fill-rule="nonzero"/><path fill="#ffcebf" d="M 179.398438 177.273438 L 156.417969 140.457031 C 156.007812 141.890625 155.363281 143.289062 154.484375 144.613281 C 152.226562 148.023438 148.710938 150.503906 144.585938 151.613281 C 144.53125 151.625 144.476562 151.636719 144.421875 151.648438 L 139.207031 152.59375 L 161.5625 188.417969 C 161.953125 189.042969 162.394531 189.628906 162.867188 190.175781 C 161.132812 189.003906 159.582031 187.433594 158.378906 185.5 L 134.433594 147.128906 L 142.601562 145.644531 C 150.140625 143.628906 154.855469 136.519531 153.070312 129.84375 C 153.019531 129.671875 152.972656 129.496094 152.914062 129.328125 L 161.964844 143.832031 L 179.671875 172.199219 C 182.085938 176.070312 182.605469 180.558594 181.449219 184.34375 C 181.460938 181.914062 180.761719 179.460938 179.398438 177.273438 Z M 179.398438 177.273438 " fill-opacity="1" fill-rule="nonzero"/><path fill="#ffcebf" d="M 215.46875 180.28125 L 193.175781 149.546875 L 156.179688 132.304688 C 156.195312 132.351562 156.214844 132.402344 156.230469 132.449219 L 165.109375 146.6875 L 198.453125 192.644531 C 198.699219 192.988281 198.96875 193.3125 199.242188 193.628906 C 197.785156 192.640625 196.457031 191.375 195.347656 189.84375 L 161.964844 143.832031 L 152.914062 129.328125 C 151.910156 126.1875 149.589844 123.722656 146.609375 122.28125 L 146.609375 122.277344 L 193.054688 143.925781 L 215.660156 175.089844 C 218.550781 179.070312 219.289062 183.917969 218.042969 187.972656 C 218.039062 185.28125 217.144531 182.59375 215.46875 180.28125 Z M 215.46875 180.28125 " fill-opacity="1" fill-rule="nonzero"/><path fill="#ffcebf" d="M 221.910156 175.015625 L 194.804688 145.808594 L 195.375 146.070312 C 195.613281 146.183594 195.828125 146.339844 196.007812 146.53125 L 221.851562 174.386719 C 221.863281 174.597656 221.890625 174.804688 221.910156 175.015625 Z M 221.910156 175.015625 " fill-opacity="1" fill-rule="nonzero"/><path fill="#ffcebf" d="M 57.925781 83.023438 L 129.039062 67.246094 L 209.820312 111.644531 L 226.164062 125.761719 C 225.804688 128.394531 225.496094 131.03125 225.21875 133.671875 L 203.964844 117.09375 L 129.996094 73.261719 L 60.652344 89.121094 L 39.457031 134.667969 L 34.886719 132.535156 Z M 57.925781 83.023438 " fill-opacity="1" fill-rule="nonzero"/><path fill="#ffcebf" d="M 97.847656 133.46875 C 97.847656 133.46875 139.542969 119.664062 146.609375 122.28125 C 149.152344 123.40625 155.519531 128.292969 152.855469 136.347656 C 152.832031 135.679688 151.460938 130.105469 147.179688 128.113281 C 143.003906 126.394531 106.515625 131.742188 97.847656 133.46875 Z M 97.847656 133.46875 " fill-opacity="1" fill-rule="nonzero"/><path fill="#ffdfcf" d="M 257.378906 300.460938 L 257.378906 300.46875 L 210.109375 300.46875 L 179.078125 283.214844 C 172.78125 279.714844 170.164062 272.292969 173.257812 266.722656 C 176.347656 261.152344 184.03125 259.457031 190.320312 262.957031 L 236.167969 288.449219 L 249.375 297.042969 C 251.4375 299.269531 254.332031 300.414062 257.378906 300.460938 Z M 257.378906 300.460938 " fill-opacity="1" fill-rule="nonzero"/><path fill="#ffdfcf" d="M 236.167969 288.449219 L 210.304688 271.605469 C 204.261719 267.675781 202.171875 260.085938 205.644531 254.75 C 209.113281 249.402344 216.894531 248.25 222.929688 252.179688 L 257.894531 274.933594 L 251.636719 279.355469 C 246.117188 283.988281 244.949219 291.769531 249.03125 296.65625 C 249.144531 296.789062 249.257812 296.914062 249.375 297.042969 Z M 236.167969 288.449219 " fill-opacity="1" fill-rule="nonzero"/><path fill="#6fd7a3" d="M 276.992188 176.902344 L 255.371094 211.234375 C 249.515625 207.542969 241.785156 209.300781 238.09375 215.160156 L 131.144531 147.707031 L 142.492188 145.644531 C 150.023438 143.625 154.730469 136.515625 152.953125 129.851562 C 151.167969 123.179688 143.550781 119.375 136.019531 121.386719 L 127.558594 122.527344 L 145.527344 93.992188 C 151.382812 97.679688 159.113281 95.929688 162.804688 90.066406 L 273.070312 159.621094 C 269.382812 165.472656 271.136719 173.214844 276.992188 176.902344 Z M 215.789062 162.285156 C 222.761719 151.222656 221.539062 137.914062 213.074219 132.578125 C 204.597656 127.230469 192.082031 131.871094 185.113281 142.941406 C 178.140625 154.007812 179.359375 167.3125 187.828125 172.652344 C 196.300781 177.996094 208.816406 173.359375 215.789062 162.285156 Z M 215.789062 162.285156 " fill-opacity="1" fill-rule="nonzero"/><path fill="#9be69d" d="M 213.074219 132.578125 C 221.539062 137.914062 222.761719 151.222656 215.789062 162.285156 C 208.816406 173.359375 196.300781 177.996094 187.828125 172.652344 C 179.359375 167.3125 178.140625 154.007812 185.113281 142.941406 C 192.082031 131.871094 204.597656 127.230469 213.074219 132.578125 Z M 213.074219 132.578125 " fill-opacity="1" fill-rule="nonzero"/><path fill="#9be69d" d="M 301.375 164.050781 L 254.300781 238.800781 L 114.628906 150.707031 L 131.144531 147.707031 L 238.097656 215.15625 C 241.785156 209.296875 249.515625 207.539062 255.371094 211.234375 L 276.992188 176.902344 C 271.136719 173.214844 269.382812 165.46875 273.074219 159.617188 L 162.804688 90.066406 C 159.113281 95.929688 151.382812 97.679688 145.527344 93.992188 L 127.558594 122.527344 L 109.761719 124.921875 L 142.121094 73.554688 L 146.601562 66.433594 Z M 301.375 164.050781 " fill-opacity="1" fill-rule="nonzero"/><path fill="#fee45a" d="M 200.445312 155.59375 C 199.902344 155.59375 199.355469 155.445312 198.863281 155.132812 C 194.519531 152.394531 192.875 147.160156 195.203125 143.46875 C 196.386719 141.585938 198.449219 140.367188 200.855469 140.128906 C 203.019531 139.910156 205.308594 140.484375 207.300781 141.738281 C 209.289062 142.992188 210.789062 144.8125 211.527344 146.859375 C 212.351562 149.136719 212.144531 151.523438 210.957031 153.40625 C 210.082031 154.796875 208.242188 155.214844 206.851562 154.335938 C 205.460938 153.457031 205.046875 151.617188 205.921875 150.226562 C 206.195312 149.792969 206.042969 149.199219 205.933594 148.886719 C 205.644531 148.089844 204.984375 147.320312 204.125 146.777344 C 203.261719 146.234375 202.289062 145.96875 201.445312 146.058594 C 201.113281 146.089844 200.511719 146.210938 200.238281 146.644531 C 199.753906 147.410156 200.4375 149.085938 202.035156 150.09375 C 203.425781 150.972656 203.84375 152.808594 202.96875 154.199219 C 202.398438 155.101562 201.433594 155.59375 200.445312 155.59375 Z M 200.445312 155.59375 " fill-opacity="1" fill-rule="nonzero"/><path fill="#fee45a" d="M 199.113281 165.125 C 197.28125 165.125 195.351562 164.59375 193.597656 163.488281 C 191.609375 162.234375 190.109375 160.414062 189.367188 158.367188 C 188.546875 156.089844 188.757812 153.703125 189.941406 151.824219 C 190.820312 150.429688 192.65625 150.015625 194.046875 150.890625 C 195.4375 151.769531 195.851562 153.609375 194.976562 155 C 194.703125 155.433594 194.851562 156.027344 194.96875 156.34375 C 195.253906 157.136719 195.914062 157.90625 196.773438 158.449219 C 198.375 159.457031 200.175781 159.347656 200.660156 158.582031 C 201.144531 157.816406 200.460938 156.140625 198.863281 155.132812 C 197.472656 154.257812 197.054688 152.414062 197.929688 151.023438 C 198.804688 149.632812 200.644531 149.214844 202.035156 150.09375 C 206.378906 152.832031 208.019531 158.066406 205.695312 161.757812 C 204.308594 163.960938 201.820312 165.125 199.113281 165.125 Z M 199.113281 165.125 " fill-opacity="1" fill-rule="nonzero"/><path fill="#fee45a" d="M 205.707031 147.238281 C 205.164062 147.238281 204.617188 147.089844 204.125 146.777344 C 202.734375 145.902344 202.316406 144.0625 203.191406 142.671875 L 205.4375 139.105469 C 206.3125 137.714844 208.152344 137.296875 209.542969 138.171875 C 210.933594 139.050781 211.351562 140.890625 210.472656 142.28125 L 208.230469 145.847656 C 207.664062 146.746094 206.695312 147.238281 205.707031 147.238281 Z M 205.707031 147.238281 " fill-opacity="1" fill-rule="nonzero"/><path fill="#fee45a" d="M 192.941406 167.511719 C 192.398438 167.511719 191.847656 167.363281 191.355469 167.054688 C 189.964844 166.179688 189.546875 164.339844 190.425781 162.945312 L 192.667969 159.378906 C 193.542969 157.992188 195.382812 157.574219 196.773438 158.449219 C 198.164062 159.324219 198.582031 161.164062 197.707031 162.558594 L 195.460938 166.121094 C 194.894531 167.019531 193.925781 167.511719 192.941406 167.511719 Z M 192.941406 167.511719 " fill-opacity="1" fill-rule="nonzero"/><g clip-path="url(#8d91a8bcda)"><path fill="#fee45a" d="M 187.5 348.644531 C 144.511719 348.644531 104.09375 331.890625 73.695312 301.46875 C 43.296875 271.046875 26.554688 230.601562 26.554688 187.582031 C 26.554688 185.9375 27.886719 184.601562 29.53125 184.601562 C 31.175781 184.601562 32.507812 185.9375 32.507812 187.582031 C 32.507812 273.105469 102.035156 342.6875 187.5 342.6875 C 189.144531 342.6875 190.476562 344.019531 190.476562 345.664062 C 190.476562 347.308594 189.144531 348.644531 187.5 348.644531 Z M 187.5 348.644531 " fill-opacity="1" fill-rule="nonzero"/></g><g clip-path="url(#89c16af41e)"><path fill="#fee45a" d="M 345.46875 190.558594 C 343.824219 190.558594 342.492188 189.226562 342.492188 187.582031 C 342.492188 102.054688 272.964844 32.476562 187.5 32.476562 C 169.703125 32.476562 152.25 35.46875 135.632812 41.371094 C 134.085938 41.921875 132.382812 41.113281 131.832031 39.5625 C 131.285156 38.011719 132.09375 36.308594 133.640625 35.757812 C 150.898438 29.628906 169.023438 26.519531 187.5 26.519531 C 230.492188 26.519531 270.90625 43.273438 301.308594 73.691406 C 331.707031 104.113281 348.445312 144.558594 348.445312 187.582031 C 348.445312 189.226562 347.113281 190.558594 345.46875 190.558594 Z M 345.46875 190.558594 " fill-opacity="1" fill-rule="nonzero"/></g><path fill="#62dbfb" d="M 346.84375 298.703125 L 346.84375 317.6875 L 375 317.6875 L 375 232.582031 L 346.84375 232.582031 Z M 346.84375 298.703125 " fill-opacity="1" fill-rule="nonzero"/><path fill="#01d0fb" d="M 371.085938 313.769531 L 371.085938 232.582031 L 375 232.582031 L 375 317.6875 L 346.84375 317.6875 L 346.84375 313.769531 Z M 371.085938 313.769531 " fill-opacity="1" fill-rule="nonzero"/><path fill="#ffdfcf" d="M 236.214844 288.402344 L 249.421875 297 C 249.308594 296.882812 249.199219 296.753906 249.089844 296.628906 C 245.003906 291.742188 246.179688 283.960938 251.695312 279.339844 L 257.945312 274.917969 L 223 252.171875 C 216.96875 248.238281 209.195312 249.402344 205.722656 254.738281 C 202.25 260.078125 204.347656 267.660156 210.378906 271.582031 Z M 236.214844 288.402344 " fill-opacity="1" fill-rule="nonzero"/><path fill="#ffdfcf" d="M 173.351562 266.707031 C 170.257812 272.277344 172.875 279.695312 179.167969 283.191406 L 210.1875 300.433594 L 257.4375 300.433594 L 257.4375 300.429688 C 254.382812 300.386719 251.484375 299.230469 249.421875 297 L 236.214844 288.402344 L 190.410156 262.9375 C 184.117188 259.441406 176.441406 261.136719 173.351562 266.707031 Z M 173.351562 266.707031 " fill-opacity="1" fill-rule="nonzero"/><path fill="#ffdfcf" d="M 257.433594 300.429688 L 257.433594 300.4375 L 210.183594 300.4375 L 161.253906 280.503906 C 154.59375 277.785156 147.175781 280.394531 144.773438 286.292969 C 142.371094 292.195312 145.863281 299.242188 152.523438 301.960938 L 205.65625 323.597656 L 285.925781 323.597656 L 346.839844 298.703125 L 346.839844 248.332031 L 295.515625 248.332031 L 257.945312 274.917969 L 251.695312 279.339844 C 246.179688 283.960938 245.003906 291.742188 249.089844 296.625 C 249.199219 296.753906 249.308594 296.878906 249.417969 297 C 251.484375 299.230469 254.382812 300.386719 257.433594 300.429688 Z M 257.433594 300.429688 " fill-opacity="1" fill-rule="nonzero"/><path fill="#ffcebf" d="M 208.632812 267.234375 L 242.164062 289.0625 C 241.949219 287.703125 241.945312 286.28125 242.164062 284.832031 C 242.722656 281.101562 244.695312 277.65625 247.714844 275.125 C 247.753906 275.09375 247.796875 275.0625 247.835938 275.03125 L 251.828125 272.207031 L 219.203125 250.972656 C 218.632812 250.597656 218.039062 250.28125 217.429688 250.007812 C 219.335938 250.3125 221.242188 251.023438 223 252.171875 L 257.945312 274.917969 L 251.695312 279.339844 C 246.179688 283.960938 245.003906 291.742188 249.089844 296.625 C 249.199219 296.753906 249.308594 296.878906 249.417969 297 L 236.214844 288.402344 L 210.378906 271.582031 C 206.851562 269.289062 204.671875 265.742188 204.164062 262.125 C 205.101562 264.160156 206.640625 265.9375 208.632812 267.234375 Z M 208.632812 267.234375 " fill-opacity="1" fill-rule="nonzero"/><path fill="#ffcebf" d="M 177.308594 278.777344 L 207.898438 295.78125 L 245.535156 295.78125 C 245.503906 295.746094 245.46875 295.710938 245.433594 295.679688 L 232.472656 287.242188 L 186.722656 261.808594 C 186.382812 261.617188 186.03125 261.453125 185.679688 261.296875 C 187.28125 261.550781 188.882812 262.09375 190.40625 262.9375 L 236.214844 288.402344 L 249.417969 297 C 251.480469 299.230469 254.378906 300.386719 257.433594 300.429688 L 257.433594 300.433594 L 210.183594 300.433594 L 179.164062 283.191406 C 175.199219 280.988281 172.695312 277.222656 172.160156 273.351562 C 173.214844 275.59375 175.007812 277.496094 177.308594 278.777344 Z M 177.308594 278.777344 " fill-opacity="1" fill-rule="nonzero"/><path fill="#ffcebf" d="M 206.707031 299.402344 L 158.136719 279.617188 C 159.179688 279.792969 160.226562 280.082031 161.253906 280.503906 L 207.992188 299.542969 L 207.414062 299.542969 C 207.167969 299.542969 206.929688 299.492188 206.707031 299.402344 Z M 206.707031 299.402344 " fill-opacity="1" fill-rule="nonzero"/><path fill="#ffcebf" d="M 150.464844 297.445312 L 203.253906 318.945312 L 282.785156 318.945312 L 342.191406 294.664062 L 342.191406 248.332031 L 346.839844 248.332031 L 346.839844 298.703125 L 285.925781 323.597656 L 205.65625 323.597656 L 152.523438 301.960938 C 147.816406 300.039062 144.695312 295.957031 144.117188 291.640625 C 145.316406 294.109375 147.53125 296.25 150.464844 297.445312 Z M 150.464844 297.445312 " fill-opacity="1" fill-rule="nonzero"/><path fill="#ffcebf" d="M 293.847656 272.085938 C 293.847656 272.085938 264.359375 299.867188 257.433594 300.429688 C 254.871094 300.484375 247.648438 298.878906 246.738281 291.105469 C 247.019531 291.652344 250.332031 295.78125 254.691406 295.777344 C 258.847656 295.589844 287.269531 276.902344 293.847656 272.085938 Z M 293.847656 272.085938 " fill-opacity="1" fill-rule="nonzero"/></svg>