<svg xmlns="http://www.w3.org/2000/svg" xmlns:xlink="http://www.w3.org/1999/xlink" width="500" zoomAndPan="magnify" viewBox="0 0 375 374.999991" height="500" preserveAspectRatio="xMidYMid meet" version="1.0"><path fill="#37474f" d="M 343.5 187.5 C 343.5 190.054688 343.4375 192.605469 343.3125 195.15625 C 343.1875 197.703125 343 200.25 342.75 202.789062 C 342.5 205.332031 342.1875 207.863281 341.8125 210.390625 C 341.4375 212.914062 341 215.429688 340.503906 217.933594 C 340.003906 220.4375 339.445312 222.929688 338.824219 225.40625 C 338.203125 227.882812 337.523438 230.339844 336.78125 232.785156 C 336.042969 235.226562 335.242188 237.652344 334.378906 240.054688 C 333.519531 242.457031 332.601562 244.839844 331.625 247.199219 C 330.648438 249.558594 329.613281 251.890625 328.523438 254.199219 C 327.429688 256.507812 326.28125 258.785156 325.078125 261.039062 C 323.875 263.289062 322.617188 265.511719 321.304688 267.699219 C 319.992188 269.890625 318.628906 272.046875 317.210938 274.167969 C 315.789062 276.292969 314.320312 278.378906 312.800781 280.429688 C 311.28125 282.480469 309.710938 284.492188 308.089844 286.464844 C 306.46875 288.4375 304.804688 290.371094 303.089844 292.261719 C 301.375 294.15625 299.613281 296.003906 297.808594 297.808594 C 296.003906 299.613281 294.15625 301.375 292.261719 303.089844 C 290.371094 304.804688 288.4375 306.46875 286.464844 308.089844 C 284.492188 309.710938 282.480469 311.28125 280.429688 312.800781 C 278.378906 314.320312 276.292969 315.789062 274.167969 317.210938 C 272.046875 318.628906 269.890625 319.992188 267.699219 321.304688 C 265.511719 322.617188 263.289062 323.875 261.039062 325.078125 C 258.785156 326.28125 256.507812 327.429688 254.199219 328.523438 C 251.890625 329.613281 249.558594 330.648438 247.199219 331.625 C 244.839844 332.601562 242.457031 333.519531 240.054688 334.378906 C 237.652344 335.242188 235.226562 336.042969 232.785156 336.78125 C 230.339844 337.523438 227.882812 338.203125 225.40625 338.824219 C 222.929688 339.445312 220.4375 340.003906 217.933594 340.503906 C 215.429688 341 212.914062 341.4375 210.390625 341.8125 C 207.863281 342.1875 205.332031 342.5 202.789062 342.75 C 200.25 343 197.703125 343.1875 195.15625 343.3125 C 192.605469 343.4375 190.054688 343.5 187.5 343.5 C 184.945312 343.5 182.394531 343.4375 179.84375 343.3125 C 177.296875 343.1875 174.75 343 172.210938 342.75 C 169.667969 342.5 167.136719 342.1875 164.609375 341.8125 C 162.085938 341.4375 159.570312 341 157.066406 340.503906 C 154.5625 340.003906 152.070312 339.445312 149.59375 338.824219 C 147.117188 338.203125 144.660156 337.523438 142.214844 336.78125 C 139.773438 336.042969 137.347656 335.242188 134.945312 334.378906 C 132.542969 333.519531 130.160156 332.601562 127.800781 331.625 C 125.441406 330.648438 123.109375 329.613281 120.800781 328.523438 C 118.492188 327.429688 116.214844 326.28125 113.960938 325.078125 C 111.710938 323.875 109.488281 322.617188 107.300781 321.304688 C 105.109375 319.992188 102.953125 318.628906 100.832031 317.210938 C 98.707031 315.789062 96.621094 314.320312 94.570312 312.800781 C 92.519531 311.28125 90.507812 309.710938 88.535156 308.089844 C 86.5625 306.46875 84.628906 304.804688 82.738281 303.089844 C 80.84375 301.375 78.996094 299.613281 77.191406 297.808594 C 75.386719 296.003906 73.625 294.15625 71.910156 292.261719 C 70.195312 290.371094 68.53125 288.4375 66.910156 286.464844 C 65.289062 284.492188 63.71875 282.480469 62.199219 280.429688 C 60.679688 278.378906 59.210938 276.292969 57.789062 274.167969 C 56.371094 272.046875 55.007812 269.890625 53.695312 267.699219 C 52.382812 265.511719 51.125 263.289062 49.921875 261.039062 C 48.714844 258.785156 47.570312 256.507812 46.476562 254.199219 C 45.386719 251.890625 44.351562 249.558594 43.375 247.199219 C 42.398438 244.839844 41.480469 242.457031 40.617188 240.054688 C 39.757812 237.652344 38.957031 235.226562 38.21875 232.785156 C 37.476562 230.339844 36.796875 227.882812 36.175781 225.40625 C 35.554688 222.929688 34.996094 220.4375 34.496094 217.933594 C 34 215.429688 33.5625 212.914062 33.1875 210.390625 C 32.8125 207.863281 32.5 205.332031 32.25 202.789062 C 32 200.25 31.8125 197.703125 31.6875 195.15625 C 31.5625 192.605469 31.5 190.054688 31.5 187.5 C 31.5 184.945312 31.5625 182.394531 31.6875 179.84375 C 31.8125 177.296875 32 174.75 32.25 172.210938 C 32.5 169.667969 32.8125 167.136719 33.1875 164.609375 C 33.5625 162.085938 34 159.570312 34.496094 157.066406 C 34.996094 154.5625 35.554688 152.070312 36.175781 149.59375 C 36.796875 147.117188 37.476562 144.660156 38.21875 142.214844 C 38.957031 139.773438 39.757812 137.347656 40.617188 134.945312 C 41.480469 132.542969 42.398438 130.160156 43.375 127.800781 C 44.351562 125.441406 45.386719 123.109375 46.476562 120.800781 C 47.570312 118.492188 48.714844 116.214844 49.921875 113.960938 C 51.125 111.710938 52.382812 109.488281 53.695312 107.300781 C 55.007812 105.109375 56.371094 102.953125 57.789062 100.832031 C 59.210938 98.707031 60.679688 96.621094 62.199219 94.570312 C 63.71875 92.519531 65.289062 90.507812 66.910156 88.535156 C 68.53125 86.5625 70.195312 84.628906 71.910156 82.738281 C 73.625 80.84375 75.386719 78.996094 77.191406 77.191406 C 78.996094 75.386719 80.84375 73.625 82.738281 71.910156 C 84.628906 70.195312 86.5625 68.53125 88.535156 66.910156 C 90.507812 65.289062 92.519531 63.71875 94.570312 62.199219 C 96.621094 60.679688 98.707031 59.210938 100.832031 57.789062 C 102.953125 56.371094 105.109375 55.007812 107.300781 53.695312 C 109.488281 52.382812 111.710938 51.125 113.960938 49.921875 C 116.214844 48.714844 118.492188 47.570312 120.800781 46.476562 C 123.109375 45.386719 125.441406 44.351562 127.800781 43.375 C 130.160156 42.398438 132.542969 41.480469 134.945312 40.617188 C 137.347656 39.757812 139.773438 38.957031 142.214844 38.21875 C 144.660156 37.476562 147.117188 36.796875 149.59375 36.175781 C 152.070312 35.554688 154.5625 34.996094 157.066406 34.496094 C 159.570312 34 162.085938 33.5625 164.609375 33.1875 C 167.136719 32.8125 169.667969 32.5 172.210938 32.25 C 174.75 32 177.296875 31.8125 179.84375 31.6875 C 182.394531 31.5625 184.945312 31.5 187.5 31.5 C 190.054688 31.5 192.605469 31.5625 195.15625 31.6875 C 197.703125 31.8125 200.25 32 202.789062 32.25 C 205.332031 32.5 207.863281 32.8125 210.390625 33.1875 C 212.914062 33.5625 215.429688 34 217.933594 34.496094 C 220.4375 34.996094 222.929688 35.554688 225.40625 36.175781 C 227.882812 36.796875 230.339844 37.476562 232.785156 38.21875 C 235.226562 38.957031 237.652344 39.757812 240.054688 40.617188 C 242.457031 41.480469 244.839844 42.398438 247.199219 43.375 C 249.558594 44.351562 251.890625 45.386719 254.199219 46.476562 C 256.507812 47.570312 258.785156 48.714844 261.039062 49.921875 C 263.289062 51.125 265.511719 52.382812 267.699219 53.695312 C 269.890625 55.007812 272.046875 56.371094 274.167969 57.789062 C 276.292969 59.210938 278.378906 60.679688 280.429688 62.199219 C 282.480469 63.71875 284.492188 65.289062 286.464844 66.910156 C 288.4375 68.53125 290.371094 70.195312 292.261719 71.910156 C 294.15625 73.625 296.003906 75.386719 297.808594 77.191406 C 299.613281 78.996094 301.375 80.84375 303.089844 82.738281 C 304.804688 84.628906 306.46875 86.5625 308.089844 88.535156 C 309.710938 90.507812 311.28125 92.519531 312.800781 94.570312 C 314.320312 96.621094 315.789062 98.707031 317.210938 100.832031 C 318.628906 102.953125 319.992188 105.109375 321.304688 107.300781 C 322.617188 109.488281 323.875 111.710938 325.078125 113.960938 C 326.28125 116.214844 327.429688 118.492188 328.523438 120.800781 C 329.613281 123.109375 330.648438 125.441406 331.625 127.800781 C 332.601562 130.160156 333.519531 132.542969 334.378906 134.945312 C 335.242188 137.347656 336.042969 139.773438 336.78125 142.214844 C 337.523438 144.660156 338.203125 147.117188 338.824219 149.59375 C 339.445312 152.070312 340.003906 154.5625 340.503906 157.066406 C 341 159.570312 341.4375 162.085938 341.8125 164.609375 C 342.1875 167.136719 342.5 169.667969 342.75 172.210938 C 343 174.75 343.1875 177.296875 343.3125 179.84375 C 343.4375 182.394531 343.5 184.945312 343.5 187.5 Z M 343.5 187.5 " fill-opacity="1" fill-rule="nonzero"/><path fill="#ffc107" d="M 191.382812 265.042969 L 231.695312 273.652344 C 232.332031 273.789062 232.972656 273.890625 233.617188 273.960938 C 234.265625 274.027344 234.914062 274.0625 235.5625 274.0625 C 236.214844 274.0625 236.863281 274.03125 237.507812 273.960938 C 238.15625 273.894531 238.796875 273.792969 239.433594 273.660156 C 240.070312 273.523438 240.695312 273.355469 241.316406 273.15625 C 241.933594 272.953125 242.539062 272.722656 243.132812 272.457031 C 243.726562 272.195312 244.304688 271.898438 244.871094 271.574219 C 245.433594 271.25 245.976562 270.894531 246.503906 270.511719 C 247.027344 270.132812 247.535156 269.722656 248.015625 269.289062 C 248.5 268.851562 248.957031 268.394531 249.394531 267.910156 C 249.828125 267.425781 250.238281 266.921875 250.621094 266.394531 C 251 265.871094 251.355469 265.324219 251.679688 264.761719 C 252.003906 264.199219 252.296875 263.621094 252.5625 263.027344 C 252.828125 262.429688 253.058594 261.824219 253.257812 261.207031 C 253.460938 260.589844 253.628906 259.960938 253.761719 259.324219 C 253.898438 258.6875 254 258.046875 254.066406 257.402344 L 258.335938 216.398438 C 258.609375 213.769531 259.410156 211.308594 260.734375 209.015625 L 281.378906 173.335938 C 281.707031 172.773438 282 172.195312 282.265625 171.601562 C 282.53125 171.007812 282.765625 170.402344 282.964844 169.785156 C 283.167969 169.164062 283.335938 168.539062 283.472656 167.902344 C 283.605469 167.265625 283.707031 166.625 283.777344 165.980469 C 283.84375 165.332031 283.878906 164.683594 283.878906 164.035156 C 283.878906 163.382812 283.84375 162.734375 283.777344 162.089844 C 283.710938 161.441406 283.609375 160.800781 283.472656 160.164062 C 283.339844 159.527344 283.171875 158.902344 282.96875 158.28125 C 282.769531 157.664062 282.535156 157.058594 282.269531 156.464844 C 282.007812 155.871094 281.710938 155.292969 281.386719 154.730469 C 281.0625 154.167969 280.707031 153.621094 280.324219 153.097656 C 279.941406 152.570312 279.535156 152.066406 279.097656 151.582031 C 278.664062 151.101562 278.203125 150.640625 277.722656 150.207031 C 277.238281 149.773438 276.734375 149.363281 276.207031 148.980469 C 275.679688 148.601562 275.136719 148.246094 274.570312 147.921875 C 274.007812 147.597656 273.429688 147.304688 272.835938 147.039062 L 235.160156 130.308594 C 232.742188 129.234375 230.648438 127.710938 228.878906 125.746094 L 201.328125 95.085938 C 200.890625 94.601562 200.433594 94.140625 199.949219 93.707031 C 199.46875 93.269531 198.964844 92.859375 198.4375 92.480469 C 197.910156 92.097656 197.367188 91.742188 196.804688 91.417969 C 196.242188 91.089844 195.664062 90.796875 195.070312 90.53125 C 194.476562 90.265625 193.871094 90.035156 193.25 89.832031 C 192.632812 89.632812 192.003906 89.464844 191.371094 89.328125 C 190.734375 89.191406 190.09375 89.089844 189.445312 89.023438 C 188.800781 88.953125 188.152344 88.921875 187.5 88.921875 C 186.851562 88.921875 186.203125 88.953125 185.554688 89.023438 C 184.910156 89.089844 184.269531 89.191406 183.632812 89.328125 C 182.996094 89.464844 182.367188 89.632812 181.75 89.832031 C 181.132812 90.035156 180.527344 90.265625 179.933594 90.53125 C 179.339844 90.796875 178.761719 91.089844 178.195312 91.417969 C 177.632812 91.742188 177.089844 92.097656 176.5625 92.480469 C 176.039062 92.859375 175.535156 93.269531 175.050781 93.707031 C 174.570312 94.140625 174.109375 94.601562 173.675781 95.085938 L 146.121094 125.746094 C 144.351562 127.710938 142.257812 129.234375 139.839844 130.308594 L 102.164062 147.039062 C 101.570312 147.304688 100.992188 147.597656 100.429688 147.921875 C 99.867188 148.246094 99.320312 148.601562 98.792969 148.980469 C 98.269531 149.363281 97.761719 149.773438 97.28125 150.207031 C 96.796875 150.640625 96.335938 151.101562 95.902344 151.582031 C 95.464844 152.066406 95.058594 152.570312 94.675781 153.097656 C 94.292969 153.621094 93.9375 154.167969 93.613281 154.730469 C 93.289062 155.292969 92.992188 155.871094 92.730469 156.464844 C 92.464844 157.058594 92.230469 157.664062 92.03125 158.28125 C 91.832031 158.902344 91.664062 159.527344 91.527344 160.164062 C 91.390625 160.800781 91.289062 161.441406 91.222656 162.089844 C 91.15625 162.734375 91.121094 163.382812 91.121094 164.035156 C 91.121094 164.683594 91.15625 165.332031 91.222656 165.980469 C 91.292969 166.625 91.394531 167.265625 91.53125 167.902344 C 91.664062 168.539062 91.832031 169.164062 92.035156 169.785156 C 92.238281 170.402344 92.46875 171.007812 92.734375 171.601562 C 93 172.195312 93.292969 172.773438 93.621094 173.335938 L 114.265625 209.015625 C 115.589844 211.308594 116.390625 213.769531 116.664062 216.398438 L 120.933594 257.402344 C 121.003906 258.046875 121.105469 258.6875 121.238281 259.324219 C 121.371094 259.960938 121.539062 260.589844 121.742188 261.207031 C 121.941406 261.824219 122.171875 262.429688 122.4375 263.027344 C 122.703125 263.621094 122.996094 264.199219 123.320312 264.761719 C 123.644531 265.324219 124 265.871094 124.382812 266.394531 C 124.761719 266.921875 125.171875 267.425781 125.605469 267.910156 C 126.042969 268.394531 126.5 268.851562 126.984375 269.289062 C 127.46875 269.722656 127.972656 270.132812 128.496094 270.511719 C 129.023438 270.894531 129.566406 271.25 130.132812 271.574219 C 130.695312 271.898438 131.273438 272.195312 131.867188 272.457031 C 132.460938 272.722656 133.066406 272.953125 133.6875 273.15625 C 134.304688 273.355469 134.929688 273.523438 135.566406 273.660156 C 136.203125 273.792969 136.84375 273.894531 137.492188 273.960938 C 138.136719 274.03125 138.785156 274.0625 139.4375 274.0625 C 140.085938 274.0625 140.734375 274.027344 141.382812 273.960938 C 142.027344 273.890625 142.667969 273.789062 143.304688 273.652344 L 183.617188 265.042969 C 186.207031 264.492188 188.792969 264.492188 191.382812 265.042969 Z M 191.382812 265.042969 " fill-opacity="1" fill-rule="nonzero"/><path fill="#ffa000" d="M 231.769531 128.339844 L 187.5 189.277344 L 187.5 88.933594 C 188.804688 88.929688 190.09375 89.0625 191.371094 89.332031 C 192.644531 89.601562 193.878906 90 195.070312 90.53125 C 196.261719 91.0625 197.382812 91.714844 198.4375 92.484375 C 199.488281 93.253906 200.449219 94.125 201.316406 95.097656 L 228.890625 125.738281 C 229.746094 126.71875 230.707031 127.585938 231.769531 128.339844 Z M 231.769531 128.339844 " fill-opacity="1" fill-rule="nonzero"/><path fill="#ffa000" d="M 115.84375 212.574219 L 187.5 189.308594 L 128.515625 270.507812 C 127.453125 269.746094 126.484375 268.878906 125.609375 267.914062 C 124.734375 266.945312 123.96875 265.898438 123.3125 264.769531 C 122.660156 263.640625 122.132812 262.453125 121.726562 261.210938 C 121.324219 259.96875 121.058594 258.699219 120.925781 257.402344 L 116.679688 216.414062 C 116.542969 215.105469 116.265625 213.824219 115.84375 212.574219 Z M 115.84375 212.574219 " fill-opacity="1" fill-rule="nonzero"/><path fill="#ffa000" d="M 187.5 189.277344 L 92.050781 158.265625 C 92.449219 157.027344 92.972656 155.847656 93.621094 154.71875 C 94.273438 153.59375 95.03125 152.546875 95.902344 151.578125 C 96.773438 150.613281 97.734375 149.746094 98.785156 148.984375 C 99.839844 148.222656 100.960938 147.578125 102.148438 147.050781 L 139.851562 130.320312 C 141.039062 129.769531 142.164062 129.109375 143.226562 128.339844 Z M 187.5 189.277344 " fill-opacity="1" fill-rule="nonzero"/><path fill="#ffa000" d="M 246.484375 270.507812 C 245.4375 271.277344 244.320312 271.929688 243.128906 272.464844 C 241.941406 273 240.710938 273.402344 239.4375 273.675781 C 238.164062 273.949219 236.875 274.082031 235.574219 274.082031 C 234.273438 274.082031 232.984375 273.941406 231.710938 273.667969 L 191.375 265.054688 C 190.097656 264.78125 188.808594 264.644531 187.503906 264.652344 L 187.503906 189.308594 Z M 246.484375 270.507812 " fill-opacity="1" fill-rule="nonzero"/><path fill="#ffa000" d="M 281.371094 173.324219 L 260.738281 209.015625 C 260.082031 210.144531 259.558594 211.332031 259.15625 212.578125 L 187.5 189.308594 L 282.949219 158.296875 C 283.355469 159.535156 283.628906 160.800781 283.769531 162.09375 C 283.90625 163.390625 283.910156 164.683594 283.773438 165.980469 C 283.636719 167.277344 283.363281 168.542969 282.960938 169.78125 C 282.554688 171.019531 282.023438 172.199219 281.371094 173.324219 Z M 281.371094 173.324219 " fill-opacity="1" fill-rule="nonzero"/><path fill="#eceff1" d="M 117 58.5 C 117 60.414062 116.90625 62.328125 116.71875 64.234375 C 116.53125 66.140625 116.25 68.035156 115.875 69.914062 C 115.503906 71.792969 115.039062 73.648438 114.480469 75.480469 C 113.925781 77.316406 113.28125 79.117188 112.546875 80.886719 C 111.8125 82.65625 110.996094 84.386719 110.09375 86.078125 C 109.1875 87.765625 108.207031 89.40625 107.140625 91 C 106.078125 92.59375 104.9375 94.132812 103.722656 95.613281 C 102.503906 97.09375 101.21875 98.511719 99.867188 99.867188 C 98.511719 101.21875 97.09375 102.503906 95.613281 103.722656 C 94.132812 104.9375 92.59375 106.078125 91 107.140625 C 89.40625 108.207031 87.765625 109.1875 86.078125 110.09375 C 84.386719 110.996094 82.65625 111.8125 80.886719 112.546875 C 79.117188 113.28125 77.316406 113.925781 75.480469 114.480469 C 73.648438 115.039062 71.792969 115.503906 69.914062 115.875 C 68.035156 116.25 66.140625 116.53125 64.234375 116.71875 C 62.328125 116.90625 60.414062 117 58.5 117 C 56.585938 117 54.671875 116.90625 52.765625 116.71875 C 50.859375 116.53125 48.964844 116.25 47.085938 115.875 C 45.207031 115.503906 43.351562 115.039062 41.519531 114.480469 C 39.683594 113.925781 37.882812 113.28125 36.113281 112.546875 C 34.34375 111.8125 32.613281 110.996094 30.921875 110.09375 C 29.234375 109.1875 27.59375 108.207031 26 107.140625 C 24.40625 106.078125 22.867188 104.9375 21.386719 103.722656 C 19.90625 102.503906 18.488281 101.21875 17.132812 99.867188 C 15.78125 98.511719 14.496094 97.09375 13.277344 95.613281 C 12.0625 94.132812 10.921875 92.59375 9.859375 91 C 8.792969 89.40625 7.8125 87.765625 6.90625 86.078125 C 6.003906 84.386719 5.1875 82.65625 4.453125 80.886719 C 3.71875 79.117188 3.074219 77.316406 2.519531 75.480469 C 1.960938 73.648438 1.496094 71.792969 1.125 69.914062 C 0.75 68.035156 0.46875 66.140625 0.28125 64.234375 C 0.09375 62.328125 0 60.414062 0 58.5 C 0 56.585938 0.09375 54.671875 0.28125 52.765625 C 0.46875 50.859375 0.75 48.964844 1.125 47.085938 C 1.496094 45.207031 1.960938 43.351562 2.519531 41.519531 C 3.074219 39.683594 3.71875 37.882812 4.453125 36.113281 C 5.1875 34.34375 6.003906 32.613281 6.90625 30.921875 C 7.8125 29.234375 8.792969 27.59375 9.859375 26 C 10.921875 24.40625 12.0625 22.867188 13.277344 21.386719 C 14.496094 19.90625 15.78125 18.488281 17.132812 17.132812 C 18.488281 15.78125 19.90625 14.496094 21.386719 13.277344 C 22.867188 12.0625 24.40625 10.921875 26 9.859375 C 27.59375 8.792969 29.234375 7.8125 30.921875 6.90625 C 32.613281 6.003906 34.34375 5.1875 36.113281 4.453125 C 37.882812 3.71875 39.683594 3.074219 41.519531 2.519531 C 43.351562 1.960938 45.207031 1.496094 47.085938 1.125 C 48.964844 0.75 50.859375 0.46875 52.765625 0.28125 C 54.671875 0.09375 56.585938 0 58.5 0 C 60.414062 0 62.328125 0.09375 64.234375 0.28125 C 66.140625 0.46875 68.035156 0.75 69.914062 1.125 C 71.792969 1.496094 73.648438 1.960938 75.480469 2.519531 C 77.316406 3.074219 79.117188 3.71875 80.886719 4.453125 C 82.65625 5.1875 84.386719 6.003906 86.078125 6.90625 C 87.765625 7.8125 89.40625 8.792969 91 9.859375 C 92.59375 10.921875 94.132812 12.0625 95.613281 13.277344 C 97.09375 14.496094 98.511719 15.78125 99.867188 17.132812 C 101.21875 18.488281 102.503906 19.90625 103.722656 21.386719 C 104.9375 22.867188 106.078125 24.40625 107.140625 26 C 108.207031 27.59375 109.1875 29.234375 110.09375 30.921875 C 110.996094 32.613281 111.8125 34.34375 112.546875 36.113281 C 113.28125 37.882812 113.925781 39.683594 114.480469 41.519531 C 115.039062 43.351562 115.503906 45.207031 115.875 47.085938 C 116.25 48.964844 116.53125 50.859375 116.71875 52.765625 C 116.90625 54.671875 117 56.585938 117 58.5 Z M 117 58.5 " fill-opacity="1" fill-rule="nonzero"/><path fill="#03a9f4" d="M 58.5 117 C 60.585938 117 62.664062 116.890625 64.734375 116.671875 C 66.808594 116.449219 68.863281 116.121094 70.898438 115.679688 C 72.9375 115.238281 74.945312 114.6875 76.921875 114.03125 C 78.898438 113.375 80.835938 112.617188 82.734375 111.753906 C 84.628906 110.886719 86.476562 109.925781 88.269531 108.863281 C 90.0625 107.800781 91.792969 106.648438 93.464844 105.402344 C 95.132812 104.152344 96.734375 102.820312 98.257812 101.402344 C 99.785156 99.984375 101.234375 98.488281 102.601562 96.914062 C 102.203125 95.78125 101.761719 94.664062 101.277344 93.566406 C 100.792969 92.464844 100.265625 91.386719 99.699219 90.328125 C 99.132812 89.269531 98.523438 88.234375 97.878906 87.222656 C 97.230469 86.210938 96.546875 85.222656 95.820312 84.265625 C 95.097656 83.304688 94.339844 82.375 93.546875 81.472656 C 92.75 80.574219 91.921875 79.703125 91.058594 78.867188 C 90.199219 78.03125 89.304688 77.230469 88.382812 76.460938 C 87.457031 75.691406 86.503906 74.960938 85.527344 74.265625 C 84.546875 73.574219 83.539062 72.917969 82.507812 72.300781 C 81.480469 71.683594 80.425781 71.105469 79.351562 70.570312 C 78.277344 70.035156 77.179688 69.539062 76.066406 69.089844 C 74.953125 68.636719 73.824219 68.230469 72.679688 67.863281 C 71.535156 67.5 70.378906 67.179688 69.210938 66.90625 C 68.039062 66.628906 66.863281 66.398438 65.675781 66.214844 C 64.488281 66.03125 63.296875 65.894531 62.097656 65.800781 C 60.902344 65.707031 59.703125 65.660156 58.5 65.660156 C 57.296875 65.660156 56.097656 65.707031 54.902344 65.800781 C 53.703125 65.894531 52.511719 66.03125 51.324219 66.214844 C 50.136719 66.398438 48.960938 66.628906 47.789062 66.90625 C 46.621094 67.179688 45.464844 67.5 44.320312 67.863281 C 43.175781 68.230469 42.046875 68.636719 40.933594 69.089844 C 39.820312 69.539062 38.722656 70.035156 37.648438 70.570312 C 36.574219 71.105469 35.519531 71.683594 34.492188 72.300781 C 33.460938 72.917969 32.453125 73.574219 31.472656 74.265625 C 30.496094 74.960938 29.542969 75.691406 28.617188 76.460938 C 27.695312 77.230469 26.800781 78.03125 25.941406 78.867188 C 25.078125 79.703125 24.25 80.574219 23.453125 81.472656 C 22.660156 82.375 21.902344 83.304688 21.179688 84.265625 C 20.453125 85.222656 19.769531 86.210938 19.121094 87.222656 C 18.476562 88.234375 17.867188 89.269531 17.300781 90.328125 C 16.734375 91.386719 16.207031 92.464844 15.722656 93.566406 C 15.238281 94.664062 14.796875 95.78125 14.398438 96.914062 C 15.765625 98.488281 17.214844 99.984375 18.742188 101.402344 C 20.265625 102.820312 21.867188 104.152344 23.535156 105.402344 C 25.207031 106.648438 26.9375 107.800781 28.730469 108.863281 C 30.523438 109.925781 32.371094 110.886719 34.265625 111.753906 C 36.164062 112.617188 38.101562 113.375 40.078125 114.03125 C 42.054688 114.6875 44.0625 115.238281 46.101562 115.679688 C 48.136719 116.121094 50.191406 116.449219 52.265625 116.671875 C 54.335938 116.890625 56.414062 117 58.5 117 Z M 58.5 117 " fill-opacity="1" fill-rule="nonzero"/><path fill="#03a9f4" d="M 79.988281 44.171875 C 79.988281 44.878906 79.957031 45.578125 79.886719 46.28125 C 79.816406 46.980469 79.714844 47.675781 79.578125 48.367188 C 79.441406 49.054688 79.269531 49.738281 79.0625 50.410156 C 78.859375 51.085938 78.625 51.746094 78.355469 52.398438 C 78.085938 53.046875 77.785156 53.683594 77.453125 54.304688 C 77.121094 54.925781 76.757812 55.527344 76.367188 56.113281 C 75.976562 56.699219 75.558594 57.261719 75.113281 57.804688 C 74.664062 58.351562 74.191406 58.871094 73.695312 59.367188 C 73.199219 59.867188 72.675781 60.339844 72.132812 60.785156 C 71.589844 61.230469 71.023438 61.652344 70.4375 62.042969 C 69.855469 62.433594 69.25 62.792969 68.628906 63.125 C 68.007812 63.457031 67.375 63.757812 66.722656 64.027344 C 66.074219 64.296875 65.410156 64.535156 64.738281 64.738281 C 64.066406 64.941406 63.382812 65.113281 62.691406 65.25 C 62.003906 65.386719 61.308594 65.492188 60.605469 65.558594 C 59.90625 65.628906 59.203125 65.664062 58.5 65.664062 C 57.796875 65.664062 57.09375 65.628906 56.394531 65.558594 C 55.691406 65.492188 54.996094 65.386719 54.308594 65.25 C 53.617188 65.113281 52.933594 64.941406 52.261719 64.738281 C 51.589844 64.535156 50.925781 64.296875 50.277344 64.027344 C 49.625 63.757812 48.992188 63.457031 48.371094 63.125 C 47.75 62.792969 47.144531 62.433594 46.5625 62.042969 C 45.976562 61.652344 45.410156 61.230469 44.867188 60.785156 C 44.324219 60.339844 43.800781 59.867188 43.304688 59.367188 C 42.808594 58.871094 42.335938 58.351562 41.886719 57.804688 C 41.441406 57.261719 41.023438 56.699219 40.632812 56.113281 C 40.242188 55.527344 39.878906 54.925781 39.546875 54.304688 C 39.214844 53.683594 38.914062 53.046875 38.644531 52.398438 C 38.375 51.746094 38.140625 51.085938 37.9375 50.410156 C 37.730469 49.738281 37.558594 49.054688 37.421875 48.367188 C 37.285156 47.675781 37.183594 46.980469 37.113281 46.28125 C 37.042969 45.578125 37.011719 44.878906 37.011719 44.171875 C 37.011719 43.46875 37.042969 42.765625 37.113281 42.066406 C 37.183594 41.367188 37.285156 40.671875 37.421875 39.980469 C 37.558594 39.289062 37.730469 38.609375 37.9375 37.933594 C 38.140625 37.261719 38.375 36.601562 38.644531 35.949219 C 38.914062 35.300781 39.214844 34.664062 39.546875 34.042969 C 39.878906 33.421875 40.242188 32.820312 40.632812 32.234375 C 41.023438 31.648438 41.441406 31.085938 41.886719 30.539062 C 42.335938 29.996094 42.808594 29.476562 43.304688 28.976562 C 43.800781 28.480469 44.324219 28.007812 44.867188 27.5625 C 45.410156 27.113281 45.976562 26.695312 46.5625 26.304688 C 47.144531 25.914062 47.75 25.554688 48.371094 25.222656 C 48.992188 24.890625 49.625 24.589844 50.277344 24.320312 C 50.925781 24.050781 51.589844 23.8125 52.261719 23.609375 C 52.933594 23.40625 53.617188 23.234375 54.308594 23.097656 C 54.996094 22.960938 55.691406 22.855469 56.394531 22.789062 C 57.09375 22.71875 57.796875 22.683594 58.5 22.683594 C 59.203125 22.683594 59.90625 22.71875 60.605469 22.789062 C 61.308594 22.855469 62.003906 22.960938 62.691406 23.097656 C 63.382812 23.234375 64.066406 23.40625 64.738281 23.609375 C 65.410156 23.8125 66.074219 24.050781 66.722656 24.320312 C 67.375 24.589844 68.007812 24.890625 68.628906 25.222656 C 69.25 25.554688 69.855469 25.914062 70.4375 26.304688 C 71.023438 26.695312 71.589844 27.113281 72.132812 27.5625 C 72.675781 28.007812 73.199219 28.480469 73.695312 28.976562 C 74.191406 29.476562 74.664062 29.996094 75.113281 30.539062 C 75.558594 31.085938 75.976562 31.648438 76.367188 32.234375 C 76.757812 32.820312 77.121094 33.421875 77.453125 34.042969 C 77.785156 34.664062 78.085938 35.300781 78.355469 35.949219 C 78.625 36.601562 78.859375 37.261719 79.0625 37.933594 C 79.269531 38.609375 79.441406 39.289062 79.578125 39.980469 C 79.714844 40.671875 79.816406 41.367188 79.886719 42.066406 C 79.957031 42.765625 79.988281 43.46875 79.988281 44.171875 Z M 79.988281 44.171875 " fill-opacity="1" fill-rule="nonzero"/><path fill="#eceff1" d="M 375 58.5 C 375 60.414062 374.90625 62.328125 374.71875 64.234375 C 374.53125 66.140625 374.25 68.035156 373.875 69.914062 C 373.503906 71.792969 373.039062 73.648438 372.480469 75.480469 C 371.925781 77.316406 371.28125 79.117188 370.546875 80.886719 C 369.8125 82.65625 368.996094 84.386719 368.09375 86.078125 C 367.1875 87.765625 366.207031 89.40625 365.140625 91 C 364.078125 92.59375 362.9375 94.132812 361.722656 95.613281 C 360.503906 97.09375 359.21875 98.511719 357.867188 99.867188 C 356.511719 101.21875 355.09375 102.503906 353.613281 103.722656 C 352.132812 104.9375 350.59375 106.078125 349 107.140625 C 347.40625 108.207031 345.765625 109.1875 344.078125 110.09375 C 342.386719 110.996094 340.65625 111.8125 338.886719 112.546875 C 337.117188 113.28125 335.316406 113.925781 333.480469 114.480469 C 331.648438 115.039062 329.792969 115.503906 327.914062 115.875 C 326.035156 116.25 324.140625 116.53125 322.234375 116.71875 C 320.328125 116.90625 318.414062 117 316.5 117 C 314.585938 117 312.671875 116.90625 310.765625 116.71875 C 308.859375 116.53125 306.964844 116.25 305.085938 115.875 C 303.207031 115.503906 301.351562 115.039062 299.519531 114.480469 C 297.683594 113.925781 295.882812 113.28125 294.113281 112.546875 C 292.34375 111.8125 290.613281 110.996094 288.921875 110.09375 C 287.234375 109.1875 285.59375 108.207031 284 107.140625 C 282.40625 106.078125 280.867188 104.9375 279.386719 103.722656 C 277.90625 102.503906 276.488281 101.21875 275.132812 99.867188 C 273.78125 98.511719 272.496094 97.09375 271.277344 95.613281 C 270.0625 94.132812 268.921875 92.59375 267.859375 91 C 266.792969 89.40625 265.8125 87.765625 264.90625 86.078125 C 264.003906 84.386719 263.1875 82.65625 262.453125 80.886719 C 261.71875 79.117188 261.074219 77.316406 260.519531 75.480469 C 259.960938 73.648438 259.496094 71.792969 259.125 69.914062 C 258.75 68.035156 258.46875 66.140625 258.28125 64.234375 C 258.09375 62.328125 258 60.414062 258 58.5 C 258 56.585938 258.09375 54.671875 258.28125 52.765625 C 258.46875 50.859375 258.75 48.964844 259.125 47.085938 C 259.496094 45.207031 259.960938 43.351562 260.519531 41.519531 C 261.074219 39.683594 261.71875 37.882812 262.453125 36.113281 C 263.1875 34.34375 264.003906 32.613281 264.90625 30.921875 C 265.8125 29.234375 266.792969 27.59375 267.859375 26 C 268.921875 24.40625 270.0625 22.867188 271.277344 21.386719 C 272.496094 19.90625 273.78125 18.488281 275.132812 17.132812 C 276.488281 15.78125 277.90625 14.496094 279.386719 13.277344 C 280.867188 12.0625 282.40625 10.921875 284 9.859375 C 285.59375 8.792969 287.234375 7.8125 288.921875 6.90625 C 290.613281 6.003906 292.34375 5.1875 294.113281 4.453125 C 295.882812 3.71875 297.683594 3.074219 299.519531 2.519531 C 301.351562 1.960938 303.207031 1.496094 305.085938 1.125 C 306.964844 0.75 308.859375 0.46875 310.765625 0.28125 C 312.671875 0.09375 314.585938 0 316.5 0 C 318.414062 0 320.328125 0.09375 322.234375 0.28125 C 324.140625 0.46875 326.035156 0.75 327.914062 1.125 C 329.792969 1.496094 331.648438 1.960938 333.480469 2.519531 C 335.316406 3.074219 337.117188 3.71875 338.886719 4.453125 C 340.65625 5.1875 342.386719 6.003906 344.078125 6.90625 C 345.765625 7.8125 347.40625 8.792969 349 9.859375 C 350.59375 10.921875 352.132812 12.0625 353.613281 13.277344 C 355.09375 14.496094 356.511719 15.78125 357.867188 17.132812 C 359.21875 18.488281 360.503906 19.90625 361.722656 21.386719 C 362.9375 22.867188 364.078125 24.40625 365.140625 26 C 366.207031 27.59375 367.1875 29.234375 368.09375 30.921875 C 368.996094 32.613281 369.8125 34.34375 370.546875 36.113281 C 371.28125 37.882812 371.925781 39.683594 372.480469 41.519531 C 373.039062 43.351562 373.503906 45.207031 373.875 47.085938 C 374.25 48.964844 374.53125 50.859375 374.71875 52.765625 C 374.90625 54.671875 375 56.585938 375 58.5 Z M 375 58.5 " fill-opacity="1" fill-rule="nonzero"/><path fill="#03a9f4" d="M 316.5 117 C 314.414062 117 312.335938 116.890625 310.265625 116.671875 C 308.191406 116.449219 306.136719 116.121094 304.101562 115.679688 C 302.0625 115.238281 300.054688 114.6875 298.078125 114.03125 C 296.101562 113.375 294.164062 112.617188 292.265625 111.753906 C 290.371094 110.886719 288.523438 109.925781 286.730469 108.863281 C 284.9375 107.800781 283.207031 106.648438 281.535156 105.402344 C 279.867188 104.152344 278.265625 102.820312 276.742188 101.402344 C 275.214844 99.984375 273.765625 98.488281 272.398438 96.914062 C 272.796875 95.78125 273.238281 94.664062 273.722656 93.566406 C 274.207031 92.464844 274.734375 91.386719 275.300781 90.328125 C 275.867188 89.269531 276.476562 88.234375 277.121094 87.222656 C 277.769531 86.210938 278.453125 85.222656 279.179688 84.265625 C 279.902344 83.304688 280.660156 82.375 281.453125 81.472656 C 282.25 80.574219 283.078125 79.703125 283.941406 78.867188 C 284.800781 78.03125 285.695312 77.230469 286.617188 76.460938 C 287.542969 75.691406 288.496094 74.960938 289.472656 74.265625 C 290.453125 73.574219 291.460938 72.917969 292.492188 72.300781 C 293.519531 71.683594 294.574219 71.105469 295.648438 70.570312 C 296.722656 70.035156 297.820312 69.539062 298.933594 69.089844 C 300.046875 68.636719 301.175781 68.230469 302.320312 67.863281 C 303.464844 67.5 304.621094 67.179688 305.789062 66.90625 C 306.960938 66.628906 308.136719 66.398438 309.324219 66.214844 C 310.511719 66.03125 311.703125 65.894531 312.902344 65.800781 C 314.097656 65.707031 315.296875 65.660156 316.5 65.660156 C 317.703125 65.660156 318.902344 65.707031 320.097656 65.800781 C 321.296875 65.894531 322.488281 66.03125 323.675781 66.214844 C 324.863281 66.398438 326.039062 66.628906 327.210938 66.90625 C 328.378906 67.179688 329.535156 67.5 330.679688 67.863281 C 331.824219 68.230469 332.953125 68.636719 334.066406 69.089844 C 335.179688 69.539062 336.277344 70.035156 337.351562 70.570312 C 338.425781 71.105469 339.480469 71.683594 340.507812 72.300781 C 341.539062 72.917969 342.546875 73.574219 343.527344 74.265625 C 344.503906 74.960938 345.457031 75.691406 346.382812 76.460938 C 347.304688 77.230469 348.199219 78.03125 349.058594 78.867188 C 349.921875 79.703125 350.75 80.574219 351.546875 81.472656 C 352.339844 82.375 353.097656 83.304688 353.820312 84.265625 C 354.546875 85.222656 355.230469 86.210938 355.878906 87.222656 C 356.523438 88.234375 357.132812 89.269531 357.699219 90.328125 C 358.265625 91.386719 358.792969 92.464844 359.277344 93.566406 C 359.761719 94.664062 360.203125 95.78125 360.601562 96.914062 C 359.234375 98.488281 357.785156 99.984375 356.257812 101.402344 C 354.734375 102.820312 353.132812 104.152344 351.464844 105.402344 C 349.792969 106.648438 348.0625 107.800781 346.269531 108.863281 C 344.476562 109.925781 342.628906 110.886719 340.734375 111.753906 C 338.835938 112.617188 336.898438 113.375 334.921875 114.03125 C 332.945312 114.6875 330.9375 115.238281 328.898438 115.679688 C 326.863281 116.121094 324.808594 116.449219 322.734375 116.671875 C 320.664062 116.890625 318.585938 117 316.5 117 Z M 316.5 117 " fill-opacity="1" fill-rule="nonzero"/><path fill="#03a9f4" d="M 337.988281 44.171875 C 337.988281 44.878906 337.957031 45.578125 337.886719 46.28125 C 337.816406 46.980469 337.714844 47.675781 337.578125 48.367188 C 337.441406 49.054688 337.269531 49.738281 337.0625 50.410156 C 336.859375 51.085938 336.625 51.746094 336.355469 52.398438 C 336.085938 53.046875 335.785156 53.683594 335.453125 54.304688 C 335.121094 54.925781 334.757812 55.527344 334.367188 56.113281 C 333.976562 56.699219 333.558594 57.261719 333.113281 57.804688 C 332.664062 58.351562 332.191406 58.871094 331.695312 59.367188 C 331.199219 59.867188 330.675781 60.339844 330.132812 60.785156 C 329.589844 61.230469 329.023438 61.652344 328.4375 62.042969 C 327.855469 62.433594 327.25 62.792969 326.628906 63.125 C 326.007812 63.457031 325.375 63.757812 324.722656 64.027344 C 324.074219 64.296875 323.410156 64.535156 322.738281 64.738281 C 322.066406 64.941406 321.382812 65.113281 320.691406 65.25 C 320.003906 65.386719 319.308594 65.492188 318.605469 65.558594 C 317.90625 65.628906 317.203125 65.664062 316.5 65.664062 C 315.796875 65.664062 315.09375 65.628906 314.394531 65.558594 C 313.691406 65.492188 312.996094 65.386719 312.308594 65.25 C 311.617188 65.113281 310.933594 64.941406 310.261719 64.738281 C 309.589844 64.535156 308.925781 64.296875 308.277344 64.027344 C 307.625 63.757812 306.992188 63.457031 306.371094 63.125 C 305.75 62.792969 305.144531 62.433594 304.5625 62.042969 C 303.976562 61.652344 303.410156 61.230469 302.867188 60.785156 C 302.324219 60.339844 301.800781 59.867188 301.304688 59.367188 C 300.808594 58.871094 300.335938 58.351562 299.886719 57.804688 C 299.441406 57.261719 299.023438 56.699219 298.632812 56.113281 C 298.242188 55.527344 297.878906 54.925781 297.546875 54.304688 C 297.214844 53.683594 296.914062 53.046875 296.644531 52.398438 C 296.375 51.746094 296.140625 51.085938 295.933594 50.410156 C 295.730469 49.738281 295.558594 49.054688 295.421875 48.367188 C 295.285156 47.675781 295.183594 46.980469 295.113281 46.28125 C 295.042969 45.578125 295.011719 44.878906 295.011719 44.171875 C 295.011719 43.46875 295.042969 42.765625 295.113281 42.066406 C 295.183594 41.367188 295.285156 40.671875 295.421875 39.980469 C 295.558594 39.289062 295.730469 38.609375 295.933594 37.933594 C 296.140625 37.261719 296.375 36.601562 296.644531 35.949219 C 296.914062 35.300781 297.214844 34.664062 297.546875 34.042969 C 297.878906 33.421875 298.242188 32.820312 298.632812 32.234375 C 299.023438 31.648438 299.441406 31.085938 299.886719 30.539062 C 300.335938 29.996094 300.808594 29.476562 301.304688 28.976562 C 301.800781 28.480469 302.324219 28.007812 302.867188 27.5625 C 303.410156 27.113281 303.976562 26.695312 304.5625 26.304688 C 305.144531 25.914062 305.75 25.554688 306.371094 25.222656 C 306.992188 24.890625 307.625 24.589844 308.277344 24.320312 C 308.925781 24.050781 309.589844 23.8125 310.261719 23.609375 C 310.933594 23.40625 311.617188 23.234375 312.308594 23.097656 C 312.996094 22.960938 313.691406 22.855469 314.394531 22.789062 C 315.09375 22.71875 315.796875 22.683594 316.5 22.683594 C 317.203125 22.683594 317.90625 22.71875 318.605469 22.789062 C 319.308594 22.855469 320.003906 22.960938 320.691406 23.097656 C 321.382812 23.234375 322.066406 23.40625 322.738281 23.609375 C 323.410156 23.8125 324.074219 24.050781 324.722656 24.320312 C 325.375 24.589844 326.007812 24.890625 326.628906 25.222656 C 327.25 25.554688 327.855469 25.914062 328.4375 26.304688 C 329.023438 26.695312 329.589844 27.113281 330.132812 27.5625 C 330.675781 28.007812 331.199219 28.480469 331.695312 28.976562 C 332.191406 29.476562 332.664062 29.996094 333.113281 30.539062 C 333.558594 31.085938 333.976562 31.648438 334.367188 32.234375 C 334.757812 32.820312 335.121094 33.421875 335.453125 34.042969 C 335.785156 34.664062 336.085938 35.300781 336.355469 35.949219 C 336.625 36.601562 336.859375 37.261719 337.0625 37.933594 C 337.269531 38.609375 337.441406 39.289062 337.578125 39.980469 C 337.714844 40.671875 337.816406 41.367188 337.886719 42.066406 C 337.957031 42.765625 337.988281 43.46875 337.988281 44.171875 Z M 337.988281 44.171875 " fill-opacity="1" fill-rule="nonzero"/><path fill="#eceff1" d="M 117 316.5 C 117 318.414062 116.90625 320.328125 116.71875 322.234375 C 116.53125 324.140625 116.25 326.035156 115.875 327.914062 C 115.503906 329.792969 115.039062 331.648438 114.480469 333.480469 C 113.925781 335.316406 113.28125 337.117188 112.546875 338.886719 C 111.8125 340.65625 110.996094 342.386719 110.09375 344.078125 C 109.1875 345.765625 108.207031 347.40625 107.140625 349 C 106.078125 350.59375 104.9375 352.132812 103.722656 353.613281 C 102.503906 355.09375 101.21875 356.511719 99.867188 357.867188 C 98.511719 359.21875 97.09375 360.503906 95.613281 361.722656 C 94.132812 362.9375 92.59375 364.078125 91 365.140625 C 89.40625 366.207031 87.765625 367.1875 86.078125 368.09375 C 84.386719 368.996094 82.65625 369.8125 80.886719 370.546875 C 79.117188 371.28125 77.316406 371.925781 75.480469 372.480469 C 73.648438 373.039062 71.792969 373.503906 69.914062 373.875 C 68.035156 374.25 66.140625 374.53125 64.234375 374.71875 C 62.328125 374.90625 60.414062 375 58.5 375 C 56.585938 375 54.671875 374.90625 52.765625 374.71875 C 50.859375 374.53125 48.964844 374.25 47.085938 373.875 C 45.207031 373.503906 43.351562 373.039062 41.519531 372.480469 C 39.683594 371.925781 37.882812 371.28125 36.113281 370.546875 C 34.34375 369.8125 32.613281 368.996094 30.921875 368.09375 C 29.234375 367.1875 27.59375 366.207031 26 365.140625 C 24.40625 364.078125 22.867188 362.9375 21.386719 361.722656 C 19.90625 360.503906 18.488281 359.21875 17.132812 357.867188 C 15.78125 356.511719 14.496094 355.09375 13.277344 353.613281 C 12.0625 352.132812 10.921875 350.59375 9.859375 349 C 8.792969 347.40625 7.8125 345.765625 6.90625 344.078125 C 6.003906 342.386719 5.1875 340.65625 4.453125 338.886719 C 3.71875 337.117188 3.074219 335.316406 2.519531 333.480469 C 1.960938 331.648438 1.496094 329.792969 1.125 327.914062 C 0.75 326.035156 0.46875 324.140625 0.28125 322.234375 C 0.09375 320.328125 0 318.414062 0 316.5 C 0 314.585938 0.09375 312.671875 0.28125 310.765625 C 0.46875 308.859375 0.75 306.964844 1.125 305.085938 C 1.496094 303.207031 1.960938 301.351562 2.519531 299.519531 C 3.074219 297.683594 3.71875 295.882812 4.453125 294.113281 C 5.1875 292.34375 6.003906 290.613281 6.90625 288.921875 C 7.8125 287.234375 8.792969 285.59375 9.859375 284 C 10.921875 282.40625 12.0625 280.867188 13.277344 279.386719 C 14.496094 277.90625 15.78125 276.488281 17.132812 275.132812 C 18.488281 273.78125 19.90625 272.496094 21.386719 271.277344 C 22.867188 270.0625 24.40625 268.921875 26 267.859375 C 27.59375 266.792969 29.234375 265.8125 30.921875 264.90625 C 32.613281 264.003906 34.34375 263.1875 36.113281 262.453125 C 37.882812 261.71875 39.683594 261.074219 41.519531 260.519531 C 43.351562 259.960938 45.207031 259.496094 47.085938 259.125 C 48.964844 258.75 50.859375 258.46875 52.765625 258.28125 C 54.671875 258.09375 56.585938 258 58.5 258 C 60.414062 258 62.328125 258.09375 64.234375 258.28125 C 66.140625 258.46875 68.035156 258.75 69.914062 259.125 C 71.792969 259.496094 73.648438 259.960938 75.480469 260.519531 C 77.316406 261.074219 79.117188 261.71875 80.886719 262.453125 C 82.65625 263.1875 84.386719 264.003906 86.078125 264.90625 C 87.765625 265.8125 89.40625 266.792969 91 267.859375 C 92.59375 268.921875 94.132812 270.0625 95.613281 271.277344 C 97.09375 272.496094 98.511719 273.78125 99.867188 275.132812 C 101.21875 276.488281 102.503906 277.90625 103.722656 279.386719 C 104.9375 280.867188 106.078125 282.40625 107.140625 284 C 108.207031 285.59375 109.1875 287.234375 110.09375 288.921875 C 110.996094 290.613281 111.8125 292.34375 112.546875 294.113281 C 113.28125 295.882812 113.925781 297.683594 114.480469 299.519531 C 115.039062 301.351562 115.503906 303.207031 115.875 305.085938 C 116.25 306.964844 116.53125 308.859375 116.71875 310.765625 C 116.90625 312.671875 117 314.585938 117 316.5 Z M 117 316.5 " fill-opacity="1" fill-rule="nonzero"/><path fill="#03a9f4" d="M 58.5 375 C 60.585938 375 62.664062 374.890625 64.734375 374.671875 C 66.808594 374.449219 68.863281 374.121094 70.898438 373.679688 C 72.9375 373.238281 74.945312 372.6875 76.921875 372.03125 C 78.898438 371.375 80.835938 370.617188 82.734375 369.753906 C 84.628906 368.886719 86.476562 367.925781 88.269531 366.863281 C 90.0625 365.800781 91.792969 364.648438 93.464844 363.402344 C 95.132812 362.152344 96.734375 360.820312 98.257812 359.402344 C 99.785156 357.984375 101.234375 356.488281 102.601562 354.914062 C 102.203125 353.78125 101.761719 352.664062 101.277344 351.566406 C 100.792969 350.464844 100.265625 349.386719 99.699219 348.328125 C 99.132812 347.269531 98.523438 346.234375 97.878906 345.222656 C 97.230469 344.210938 96.546875 343.222656 95.820312 342.265625 C 95.097656 341.304688 94.339844 340.375 93.546875 339.472656 C 92.75 338.574219 91.921875 337.703125 91.058594 336.867188 C 90.199219 336.03125 89.304688 335.230469 88.382812 334.460938 C 87.457031 333.691406 86.503906 332.960938 85.527344 332.265625 C 84.546875 331.574219 83.539062 330.917969 82.507812 330.300781 C 81.480469 329.683594 80.425781 329.105469 79.351562 328.570312 C 78.277344 328.035156 77.179688 327.539062 76.066406 327.089844 C 74.953125 326.636719 73.824219 326.230469 72.679688 325.863281 C 71.535156 325.5 70.378906 325.179688 69.210938 324.90625 C 68.039062 324.628906 66.863281 324.398438 65.675781 324.214844 C 64.488281 324.03125 63.296875 323.894531 62.097656 323.800781 C 60.902344 323.707031 59.703125 323.660156 58.5 323.660156 C 57.296875 323.660156 56.097656 323.707031 54.902344 323.800781 C 53.703125 323.894531 52.511719 324.03125 51.324219 324.214844 C 50.136719 324.398438 48.960938 324.628906 47.789062 324.90625 C 46.621094 325.179688 45.464844 325.5 44.320312 325.863281 C 43.175781 326.230469 42.046875 326.636719 40.933594 327.089844 C 39.820312 327.539062 38.722656 328.035156 37.648438 328.570312 C 36.574219 329.105469 35.519531 329.683594 34.492188 330.300781 C 33.460938 330.917969 32.453125 331.574219 31.472656 332.265625 C 30.496094 332.960938 29.542969 333.691406 28.617188 334.460938 C 27.695312 335.230469 26.800781 336.03125 25.941406 336.867188 C 25.078125 337.703125 24.25 338.574219 23.453125 339.472656 C 22.660156 340.375 21.902344 341.304688 21.179688 342.265625 C 20.453125 343.222656 19.769531 344.210938 19.121094 345.222656 C 18.476562 346.234375 17.867188 347.269531 17.300781 348.328125 C 16.734375 349.386719 16.207031 350.464844 15.722656 351.566406 C 15.238281 352.664062 14.796875 353.78125 14.398438 354.914062 C 15.765625 356.488281 17.214844 357.984375 18.742188 359.402344 C 20.265625 360.820312 21.867188 362.152344 23.535156 363.402344 C 25.207031 364.648438 26.9375 365.800781 28.730469 366.863281 C 30.523438 367.925781 32.371094 368.886719 34.265625 369.753906 C 36.164062 370.617188 38.101562 371.375 40.078125 372.03125 C 42.054688 372.6875 44.0625 373.238281 46.101562 373.679688 C 48.136719 374.121094 50.191406 374.449219 52.265625 374.671875 C 54.335938 374.890625 56.414062 375 58.5 375 Z M 58.5 375 " fill-opacity="1" fill-rule="nonzero"/><path fill="#03a9f4" d="M 79.988281 302.171875 C 79.988281 302.878906 79.957031 303.578125 79.886719 304.28125 C 79.816406 304.980469 79.714844 305.675781 79.578125 306.367188 C 79.441406 307.054688 79.269531 307.738281 79.0625 308.410156 C 78.859375 309.085938 78.625 309.746094 78.355469 310.398438 C 78.085938 311.046875 77.785156 311.683594 77.453125 312.304688 C 77.121094 312.925781 76.757812 313.527344 76.367188 314.113281 C 75.976562 314.699219 75.558594 315.261719 75.113281 315.804688 C 74.664062 316.351562 74.191406 316.871094 73.695312 317.367188 C 73.199219 317.867188 72.675781 318.339844 72.132812 318.785156 C 71.589844 319.230469 71.023438 319.652344 70.4375 320.042969 C 69.855469 320.433594 69.25 320.792969 68.628906 321.125 C 68.007812 321.457031 67.375 321.757812 66.722656 322.027344 C 66.074219 322.296875 65.410156 322.535156 64.738281 322.738281 C 64.066406 322.941406 63.382812 323.113281 62.691406 323.25 C 62.003906 323.386719 61.308594 323.492188 60.605469 323.558594 C 59.90625 323.628906 59.203125 323.664062 58.5 323.664062 C 57.796875 323.664062 57.09375 323.628906 56.394531 323.558594 C 55.691406 323.492188 54.996094 323.386719 54.308594 323.25 C 53.617188 323.113281 52.933594 322.941406 52.261719 322.738281 C 51.589844 322.535156 50.925781 322.296875 50.277344 322.027344 C 49.625 321.757812 48.992188 321.457031 48.371094 321.125 C 47.75 320.792969 47.144531 320.433594 46.5625 320.042969 C 45.976562 319.652344 45.410156 319.230469 44.867188 318.785156 C 44.324219 318.339844 43.800781 317.867188 43.304688 317.367188 C 42.808594 316.871094 42.335938 316.351562 41.886719 315.804688 C 41.441406 315.261719 41.023438 314.699219 40.632812 314.113281 C 40.242188 313.527344 39.878906 312.925781 39.546875 312.304688 C 39.214844 311.683594 38.914062 311.046875 38.644531 310.398438 C 38.375 309.746094 38.140625 309.085938 37.9375 308.410156 C 37.730469 307.738281 37.558594 307.054688 37.421875 306.367188 C 37.285156 305.675781 37.183594 304.980469 37.113281 304.28125 C 37.042969 303.578125 37.011719 302.878906 37.011719 302.171875 C 37.011719 301.46875 37.042969 300.765625 37.113281 300.066406 C 37.183594 299.367188 37.285156 298.671875 37.421875 297.980469 C 37.558594 297.289062 37.730469 296.609375 37.9375 295.933594 C 38.140625 295.261719 38.375 294.601562 38.644531 293.949219 C 38.914062 293.300781 39.214844 292.664062 39.546875 292.042969 C 39.878906 291.421875 40.242188 290.820312 40.632812 290.234375 C 41.023438 289.648438 41.441406 289.085938 41.886719 288.539062 C 42.335938 287.996094 42.808594 287.476562 43.304688 286.976562 C 43.800781 286.480469 44.324219 286.007812 44.867188 285.5625 C 45.410156 285.113281 45.976562 284.695312 46.5625 284.304688 C 47.144531 283.914062 47.75 283.554688 48.371094 283.222656 C 48.992188 282.890625 49.625 282.589844 50.277344 282.320312 C 50.925781 282.050781 51.589844 281.8125 52.261719 281.609375 C 52.933594 281.40625 53.617188 281.234375 54.308594 281.097656 C 54.996094 280.960938 55.691406 280.855469 56.394531 280.789062 C 57.09375 280.71875 57.796875 280.683594 58.5 280.683594 C 59.203125 280.683594 59.90625 280.71875 60.605469 280.789062 C 61.308594 280.855469 62.003906 280.960938 62.691406 281.097656 C 63.382812 281.234375 64.066406 281.40625 64.738281 281.609375 C 65.410156 281.8125 66.074219 282.050781 66.722656 282.320312 C 67.375 282.589844 68.007812 282.890625 68.628906 283.222656 C 69.25 283.554688 69.855469 283.914062 70.4375 284.304688 C 71.023438 284.695312 71.589844 285.113281 72.132812 285.5625 C 72.675781 286.007812 73.199219 286.480469 73.695312 286.976562 C 74.191406 287.476562 74.664062 287.996094 75.113281 288.539062 C 75.558594 289.085938 75.976562 289.648438 76.367188 290.234375 C 76.757812 290.820312 77.121094 291.421875 77.453125 292.042969 C 77.785156 292.664062 78.085938 293.300781 78.355469 293.949219 C 78.625 294.601562 78.859375 295.261719 79.0625 295.933594 C 79.269531 296.609375 79.441406 297.289062 79.578125 297.980469 C 79.714844 298.671875 79.816406 299.367188 79.886719 300.066406 C 79.957031 300.765625 79.988281 301.46875 79.988281 302.171875 Z M 79.988281 302.171875 " fill-opacity="1" fill-rule="nonzero"/><path fill="#eceff1" d="M 375 316.5 C 375 318.414062 374.90625 320.328125 374.71875 322.234375 C 374.53125 324.140625 374.25 326.035156 373.875 327.914062 C 373.503906 329.792969 373.039062 331.648438 372.480469 333.480469 C 371.925781 335.316406 371.28125 337.117188 370.546875 338.886719 C 369.8125 340.65625 368.996094 342.386719 368.09375 344.078125 C 367.1875 345.765625 366.207031 347.40625 365.140625 349 C 364.078125 350.59375 362.9375 352.132812 361.722656 353.613281 C 360.503906 355.09375 359.21875 356.511719 357.867188 357.867188 C 356.511719 359.21875 355.09375 360.503906 353.613281 361.722656 C 352.132812 362.9375 350.59375 364.078125 349 365.140625 C 347.40625 366.207031 345.765625 367.1875 344.078125 368.09375 C 342.386719 368.996094 340.65625 369.8125 338.886719 370.546875 C 337.117188 371.28125 335.316406 371.925781 333.480469 372.480469 C 331.648438 373.039062 329.792969 373.503906 327.914062 373.875 C 326.035156 374.25 324.140625 374.53125 322.234375 374.71875 C 320.328125 374.90625 318.414062 375 316.5 375 C 314.585938 375 312.671875 374.90625 310.765625 374.71875 C 308.859375 374.53125 306.964844 374.25 305.085938 373.875 C 303.207031 373.503906 301.351562 373.039062 299.519531 372.480469 C 297.683594 371.925781 295.882812 371.28125 294.113281 370.546875 C 292.34375 369.8125 290.613281 368.996094 288.921875 368.09375 C 287.234375 367.1875 285.59375 366.207031 284 365.140625 C 282.40625 364.078125 280.867188 362.9375 279.386719 361.722656 C 277.90625 360.503906 276.488281 359.21875 275.132812 357.867188 C 273.78125 356.511719 272.496094 355.09375 271.277344 353.613281 C 270.0625 352.132812 268.921875 350.59375 267.859375 349 C 266.792969 347.40625 265.8125 345.765625 264.90625 344.078125 C 264.003906 342.386719 263.1875 340.65625 262.453125 338.886719 C 261.71875 337.117188 261.074219 335.316406 260.519531 333.480469 C 259.960938 331.648438 259.496094 329.792969 259.125 327.914062 C 258.75 326.035156 258.46875 324.140625 258.28125 322.234375 C 258.09375 320.328125 258 318.414062 258 316.5 C 258 314.585938 258.09375 312.671875 258.28125 310.765625 C 258.46875 308.859375 258.75 306.964844 259.125 305.085938 C 259.496094 303.207031 259.960938 301.351562 260.519531 299.519531 C 261.074219 297.683594 261.71875 295.882812 262.453125 294.113281 C 263.1875 292.34375 264.003906 290.613281 264.90625 288.921875 C 265.8125 287.234375 266.792969 285.59375 267.859375 284 C 268.921875 282.40625 270.0625 280.867188 271.277344 279.386719 C 272.496094 277.90625 273.78125 276.488281 275.132812 275.132812 C 276.488281 273.78125 277.90625 272.496094 279.386719 271.277344 C 280.867188 270.0625 282.40625 268.921875 284 267.859375 C 285.59375 266.792969 287.234375 265.8125 288.921875 264.90625 C 290.613281 264.003906 292.34375 263.1875 294.113281 262.453125 C 295.882812 261.71875 297.683594 261.074219 299.519531 260.519531 C 301.351562 259.960938 303.207031 259.496094 305.085938 259.125 C 306.964844 258.75 308.859375 258.46875 310.765625 258.28125 C 312.671875 258.09375 314.585938 258 316.5 258 C 318.414062 258 320.328125 258.09375 322.234375 258.28125 C 324.140625 258.46875 326.035156 258.75 327.914062 259.125 C 329.792969 259.496094 331.648438 259.960938 333.480469 260.519531 C 335.316406 261.074219 337.117188 261.71875 338.886719 262.453125 C 340.65625 263.1875 342.386719 264.003906 344.078125 264.90625 C 345.765625 265.8125 347.40625 266.792969 349 267.859375 C 350.59375 268.921875 352.132812 270.0625 353.613281 271.277344 C 355.09375 272.496094 356.511719 273.78125 357.867188 275.132812 C 359.21875 276.488281 360.503906 277.90625 361.722656 279.386719 C 362.9375 280.867188 364.078125 282.40625 365.140625 284 C 366.207031 285.59375 367.1875 287.234375 368.09375 288.921875 C 368.996094 290.613281 369.8125 292.34375 370.546875 294.113281 C 371.28125 295.882812 371.925781 297.683594 372.480469 299.519531 C 373.039062 301.351562 373.503906 303.207031 373.875 305.085938 C 374.25 306.964844 374.53125 308.859375 374.71875 310.765625 C 374.90625 312.671875 375 314.585938 375 316.5 Z M 375 316.5 " fill-opacity="1" fill-rule="nonzero"/><path fill="#03a9f4" d="M 316.5 375 C 314.414062 375 312.335938 374.890625 310.265625 374.671875 C 308.191406 374.449219 306.136719 374.121094 304.101562 373.679688 C 302.0625 373.238281 300.054688 372.6875 298.078125 372.03125 C 296.101562 371.375 294.164062 370.617188 292.265625 369.753906 C 290.371094 368.886719 288.523438 367.925781 286.730469 366.863281 C 284.9375 365.800781 283.207031 364.648438 281.535156 363.402344 C 279.867188 362.152344 278.265625 360.820312 276.742188 359.402344 C 275.214844 357.984375 273.765625 356.488281 272.398438 354.914062 C 272.796875 353.78125 273.238281 352.664062 273.722656 351.566406 C 274.207031 350.464844 274.734375 349.386719 275.300781 348.328125 C 275.867188 347.269531 276.476562 346.234375 277.121094 345.222656 C 277.769531 344.210938 278.453125 343.222656 279.179688 342.265625 C 279.902344 341.304688 280.660156 340.375 281.453125 339.472656 C 282.25 338.574219 283.078125 337.703125 283.941406 336.867188 C 284.800781 336.03125 285.695312 335.230469 286.617188 334.460938 C 287.542969 333.691406 288.496094 332.960938 289.472656 332.265625 C 290.453125 331.574219 291.460938 330.917969 292.492188 330.300781 C 293.519531 329.683594 294.574219 329.105469 295.648438 328.570312 C 296.722656 328.035156 297.820312 327.539062 298.933594 327.089844 C 300.046875 326.636719 301.175781 326.230469 302.320312 325.863281 C 303.464844 325.5 304.621094 325.179688 305.789062 324.90625 C 306.960938 324.628906 308.136719 324.398438 309.324219 324.214844 C 310.511719 324.03125 311.703125 323.894531 312.902344 323.800781 C 314.097656 323.707031 315.296875 323.660156 316.5 323.660156 C 317.703125 323.660156 318.902344 323.707031 320.097656 323.800781 C 321.296875 323.894531 322.488281 324.03125 323.675781 324.214844 C 324.863281 324.398438 326.039062 324.628906 327.210938 324.90625 C 328.378906 325.179688 329.535156 325.5 330.679688 325.863281 C 331.824219 326.230469 332.953125 326.636719 334.066406 327.089844 C 335.179688 327.539062 336.277344 328.035156 337.351562 328.570312 C 338.425781 329.105469 339.480469 329.683594 340.507812 330.300781 C 341.539062 330.917969 342.546875 331.574219 343.527344 332.265625 C 344.503906 332.960938 345.457031 333.691406 346.382812 334.460938 C 347.304688 335.230469 348.199219 336.03125 349.058594 336.867188 C 349.921875 337.703125 350.75 338.574219 351.546875 339.472656 C 352.339844 340.375 353.097656 341.304688 353.820312 342.265625 C 354.546875 343.222656 355.230469 344.210938 355.878906 345.222656 C 356.523438 346.234375 357.132812 347.269531 357.699219 348.328125 C 358.265625 349.386719 358.792969 350.464844 359.277344 351.566406 C 359.761719 352.664062 360.203125 353.78125 360.601562 354.914062 C 359.234375 356.488281 357.785156 357.984375 356.257812 359.402344 C 354.734375 360.820312 353.132812 362.152344 351.464844 363.402344 C 349.792969 364.648438 348.0625 365.800781 346.269531 366.863281 C 344.476562 367.925781 342.628906 368.886719 340.734375 369.753906 C 338.835938 370.617188 336.898438 371.375 334.921875 372.03125 C 332.945312 372.6875 330.9375 373.238281 328.898438 373.679688 C 326.863281 374.121094 324.808594 374.449219 322.734375 374.671875 C 320.664062 374.890625 318.585938 375 316.5 375 Z M 316.5 375 " fill-opacity="1" fill-rule="nonzero"/><path fill="#03a9f4" d="M 337.988281 302.171875 C 337.988281 302.878906 337.957031 303.578125 337.886719 304.28125 C 337.816406 304.980469 337.714844 305.675781 337.578125 306.367188 C 337.441406 307.054688 337.269531 307.738281 337.0625 308.410156 C 336.859375 309.085938 336.625 309.746094 336.355469 310.398438 C 336.085938 311.046875 335.785156 311.683594 335.453125 312.304688 C 335.121094 312.925781 334.757812 313.527344 334.367188 314.113281 C 333.976562 314.699219 333.558594 315.261719 333.113281 315.804688 C 332.664062 316.351562 332.191406 316.871094 331.695312 317.367188 C 331.199219 317.867188 330.675781 318.339844 330.132812 318.785156 C 329.589844 319.230469 329.023438 319.652344 328.4375 320.042969 C 327.855469 320.433594 327.25 320.792969 326.628906 321.125 C 326.007812 321.457031 325.375 321.757812 324.722656 322.027344 C 324.074219 322.296875 323.410156 322.535156 322.738281 322.738281 C 322.066406 322.941406 321.382812 323.113281 320.691406 323.25 C 320.003906 323.386719 319.308594 323.492188 318.605469 323.558594 C 317.90625 323.628906 317.203125 323.664062 316.5 323.664062 C 315.796875 323.664062 315.09375 323.628906 314.394531 323.558594 C 313.691406 323.492188 312.996094 323.386719 312.308594 323.25 C 311.617188 323.113281 310.933594 322.941406 310.261719 322.738281 C 309.589844 322.535156 308.925781 322.296875 308.277344 322.027344 C 307.625 321.757812 306.992188 321.457031 306.371094 321.125 C 305.75 320.792969 305.144531 320.433594 304.5625 320.042969 C 303.976562 319.652344 303.410156 319.230469 302.867188 318.785156 C 302.324219 318.339844 301.800781 317.867188 301.304688 317.367188 C 300.808594 316.871094 300.335938 316.351562 299.886719 315.804688 C 299.441406 315.261719 299.023438 314.699219 298.632812 314.113281 C 298.242188 313.527344 297.878906 312.925781 297.546875 312.304688 C 297.214844 311.683594 296.914062 311.046875 296.644531 310.398438 C 296.375 309.746094 296.140625 309.085938 295.933594 308.410156 C 295.730469 307.738281 295.558594 307.054688 295.421875 306.367188 C 295.285156 305.675781 295.183594 304.980469 295.113281 304.28125 C 295.042969 303.578125 295.011719 302.878906 295.011719 302.171875 C 295.011719 301.46875 295.042969 300.765625 295.113281 300.066406 C 295.183594 299.367188 295.285156 298.671875 295.421875 297.980469 C 295.558594 297.289062 295.730469 296.609375 295.933594 295.933594 C 296.140625 295.261719 296.375 294.601562 296.644531 293.949219 C 296.914062 293.300781 297.214844 292.664062 297.546875 292.042969 C 297.878906 291.421875 298.242188 290.820312 298.632812 290.234375 C 299.023438 289.648438 299.441406 289.085938 299.886719 288.539062 C 300.335938 287.996094 300.808594 287.476562 301.304688 286.976562 C 301.800781 286.480469 302.324219 286.007812 302.867188 285.5625 C 303.410156 285.113281 303.976562 284.695312 304.5625 284.304688 C 305.144531 283.914062 305.75 283.554688 306.371094 283.222656 C 306.992188 282.890625 307.625 282.589844 308.277344 282.320312 C 308.925781 282.050781 309.589844 281.8125 310.261719 281.609375 C 310.933594 281.40625 311.617188 281.234375 312.308594 281.097656 C 312.996094 280.960938 313.691406 280.855469 314.394531 280.789062 C 315.09375 280.71875 315.796875 280.683594 316.5 280.683594 C 317.203125 280.683594 317.90625 280.71875 318.605469 280.789062 C 319.308594 280.855469 320.003906 280.960938 320.691406 281.097656 C 321.382812 281.234375 322.066406 281.40625 322.738281 281.609375 C 323.410156 281.8125 324.074219 282.050781 324.722656 282.320312 C 325.375 282.589844 326.007812 282.890625 326.628906 283.222656 C 327.25 283.554688 327.855469 283.914062 328.4375 284.304688 C 329.023438 284.695312 329.589844 285.113281 330.132812 285.5625 C 330.675781 286.007812 331.199219 286.480469 331.695312 286.976562 C 332.191406 287.476562 332.664062 287.996094 333.113281 288.539062 C 333.558594 289.085938 333.976562 289.648438 334.367188 290.234375 C 334.757812 290.820312 335.121094 291.421875 335.453125 292.042969 C 335.785156 292.664062 336.085938 293.300781 336.355469 293.949219 C 336.625 294.601562 336.859375 295.261719 337.0625 295.933594 C 337.269531 296.609375 337.441406 297.289062 337.578125 297.980469 C 337.714844 298.671875 337.816406 299.367188 337.886719 300.066406 C 337.957031 300.765625 337.988281 301.46875 337.988281 302.171875 Z M 337.988281 302.171875 " fill-opacity="1" fill-rule="nonzero"/></svg>