<svg xmlns="http://www.w3.org/2000/svg" xmlns:xlink="http://www.w3.org/1999/xlink" width="500" zoomAndPan="magnify" viewBox="0 0 375 374.999991" height="500" preserveAspectRatio="xMidYMid meet" version="1.0"><defs><clipPath id="88d28b9ea9"><path d="M 53.523438 0 L 314 0 L 314 301 L 53.523438 301 Z M 53.523438 0 " clip-rule="nonzero"/></clipPath><clipPath id="8854f7a03f"><path d="M 53.523438 0 L 184 0 L 184 301 L 53.523438 301 Z M 53.523438 0 " clip-rule="nonzero"/></clipPath><clipPath id="d44991d81e"><path d="M 53.523438 0 L 314 0 L 314 151 L 53.523438 151 Z M 53.523438 0 " clip-rule="nonzero"/></clipPath></defs><g clip-path="url(#88d28b9ea9)"><path fill="#ffd25a" d="M 313.746094 75.257812 L 313.746094 225.65625 L 183.640625 300.847656 L 53.53125 225.65625 L 53.53125 75.257812 L 183.640625 0.0664062 Z M 313.746094 75.257812 " fill-opacity="1" fill-rule="nonzero"/></g><g clip-path="url(#8854f7a03f)"><path fill="#e8c155" d="M 53.519531 75.273438 L 53.519531 225.664062 L 183.632812 300.855469 L 183.632812 0.078125 Z M 53.519531 75.273438 " fill-opacity="1" fill-rule="nonzero"/></g><g clip-path="url(#d44991d81e)"><path fill="#d6b24e" d="M 183.632812 0.078125 L 53.519531 75.273438 L 183.632812 150.464844 L 313.75 75.273438 Z M 183.632812 0.078125 " fill-opacity="1" fill-rule="nonzero"/></g><path fill="#db584d" d="M 135.375 122.660156 L 135.375 160.1875 L 101.765625 140.746094 L 101.765625 103.21875 Z M 135.375 122.660156 " fill-opacity="1" fill-rule="nonzero"/><path fill="#ececec" d="M 243.1875 193.496094 C 269.070312 219.40625 271.464844 259.957031 250.292969 288.546875 L 269.101562 307.367188 L 253.71875 322.765625 L 234.910156 303.941406 C 206.351562 325.132812 165.839844 322.738281 139.957031 296.832031 C 111.453125 268.296875 111.453125 222.027344 139.953125 193.496094 C 168.457031 164.964844 214.683594 164.964844 243.1875 193.496094 Z M 243.1875 193.496094 " fill-opacity="1" fill-rule="nonzero"/><path fill="#4388b9" d="M 248.320312 245.160156 C 248.320312 276.53125 222.914062 301.964844 191.570312 301.964844 C 160.226562 301.964844 134.820312 276.53125 134.820312 245.160156 C 134.820312 213.789062 160.226562 188.359375 191.570312 188.359375 C 222.914062 188.359375 248.320312 213.789062 248.320312 245.160156 Z M 248.320312 245.160156 " fill-opacity="1" fill-rule="nonzero"/><path fill="#e6e7e8" d="M 151.441406 245.160156 C 150.292969 239.894531 150.753906 234.226562 152.503906 228.960938 C 154.210938 223.660156 157.304688 218.804688 161.234375 214.792969 C 165.230469 210.855469 170.089844 207.761719 175.382812 206.050781 C 180.644531 204.296875 186.308594 203.839844 191.570312 204.992188 C 186.320312 206.164062 181.488281 207.777344 177.042969 210.054688 C 172.632812 212.359375 168.589844 215.226562 165.15625 218.722656 C 161.660156 222.152344 158.800781 226.203125 156.492188 230.617188 C 154.210938 235.0625 152.601562 239.90625 151.441406 245.160156 Z M 151.441406 245.160156 " fill-opacity="1" fill-rule="nonzero"/><path fill="#db584d" d="M 238.097656 318.8125 L 286.726562 367.492188 C 294.199219 374.964844 306.3125 374.964844 313.78125 367.492188 C 321.253906 360.011719 321.253906 347.886719 313.78125 340.40625 L 265.152344 291.734375 Z M 238.097656 318.8125 " fill-opacity="1" fill-rule="nonzero"/><path fill="#cd5148" d="M 281.976562 362.734375 L 286.726562 367.492188 C 294.199219 374.964844 306.3125 374.964844 313.78125 367.492188 C 321.253906 360.011719 321.253906 347.886719 313.78125 340.40625 L 309.03125 335.652344 Z M 281.976562 362.734375 " fill-opacity="1" fill-rule="nonzero"/><path fill="#cd5148" d="M 265.496094 47.453125 L 135.386719 122.660156 L 101.777344 103.21875 L 231.886719 28.039062 Z M 265.496094 47.453125 " fill-opacity="1" fill-rule="nonzero"/></svg>