<svg xmlns="http://www.w3.org/2000/svg" xmlns:xlink="http://www.w3.org/1999/xlink" width="500" zoomAndPan="magnify" viewBox="0 0 375 374.999991" height="500" preserveAspectRatio="xMidYMid meet" version="1.0"><defs><clipPath id="c26e0e7743"><path d="M 117 6.136719 L 363 6.136719 L 363 252 L 117 252 Z M 117 6.136719 " clip-rule="nonzero"/></clipPath></defs><path fill="#1c74fd" d="M 83.664062 322.414062 L 47.269531 358.808594 C 37.0625 369.015625 20.449219 369.015625 10.242188 358.808594 C 0.0351562 348.601562 0.0351562 331.988281 10.242188 321.78125 L 46.636719 285.382812 Z M 83.664062 322.414062 " fill-opacity="1" fill-rule="nonzero"/><path fill="#1c74fd" d="M 55.15625 276.800781 L 69.445312 262.515625 L 106.480469 299.550781 L 92.191406 313.835938 Z M 55.15625 276.800781 " fill-opacity="1" fill-rule="nonzero"/><path fill="#1c74fd" d="M 129.210938 276.867188 L 114.921875 291.085938 L 77.890625 254.058594 L 92.183594 239.765625 Z M 129.210938 276.867188 " fill-opacity="1" fill-rule="nonzero"/><path fill="#1c74fd" d="M 152.230469 231.039062 L 126.324219 256.945312 L 112.035156 242.652344 L 137.941406 216.746094 C 140.125 219.28125 142.445312 221.746094 144.839844 224.140625 C 147.234375 226.53125 149.695312 228.855469 152.230469 231.039062 Z M 152.230469 231.039062 " fill-opacity="1" fill-rule="nonzero"/><g clip-path="url(#c26e0e7743)"><path fill="#1c74fd" d="M 327.027344 41.953125 C 303.867188 18.722656 273.03125 5.980469 240.226562 5.980469 C 207.421875 5.980469 176.589844 18.722656 153.359375 41.953125 C 130.195312 65.113281 117.386719 96.015625 117.386719 128.824219 C 117.386719 161.628906 130.125 192.460938 153.359375 215.691406 C 176.589844 238.921875 207.421875 251.664062 240.226562 251.664062 C 273.03125 251.664062 303.867188 238.851562 327.097656 215.691406 C 374.964844 167.75 374.964844 89.824219 327.027344 41.953125 Z M 312.804688 201.402344 C 293.445312 220.761719 267.609375 231.460938 240.226562 231.460938 C 212.84375 231.460938 187.007812 220.761719 167.648438 201.402344 C 127.664062 161.414062 127.664062 96.300781 167.648438 56.242188 C 187.007812 36.882812 212.773438 26.183594 240.226562 26.183594 C 267.609375 26.183594 293.375 36.882812 312.804688 56.242188 C 332.164062 75.601562 342.867188 101.4375 342.867188 128.824219 C 342.867188 156.207031 332.164062 181.972656 312.804688 201.402344 Z M 312.804688 201.402344 " fill-opacity="1" fill-rule="nonzero"/></g><path fill="#3c6ab2" d="M 277.75 96.160156 L 277.75 112.914062 C 277.394531 115.304688 265.359375 122.769531 240.15625 122.769531 C 214.953125 122.769531 202.917969 115.304688 202.566406 112.914062 L 202.566406 96.160156 C 212.28125 100.875 226.5 103.128906 240.15625 103.128906 C 253.8125 103.128906 268.105469 100.875 277.75 96.160156 Z M 277.75 96.160156 " fill-opacity="1" fill-rule="nonzero"/><path fill="#3c6ab2" d="M 277.75 127.835938 L 277.75 144.660156 C 277.394531 147.054688 265.359375 154.515625 240.15625 154.515625 C 214.953125 154.515625 202.917969 147.054688 202.566406 144.660156 L 202.566406 127.90625 C 212.28125 132.625 226.5 134.875 240.15625 134.875 C 253.8125 134.804688 268.105469 132.554688 277.75 127.835938 Z M 277.75 127.835938 " fill-opacity="1" fill-rule="nonzero"/><path fill="#3c6ab2" d="M 277.75 159.585938 L 277.75 169.371094 C 277.75 177.324219 261.699219 186.195312 240.15625 186.195312 C 218.617188 186.195312 202.566406 177.324219 202.566406 169.371094 L 202.566406 159.585938 C 212.28125 164.300781 226.5 166.554688 240.15625 166.554688 C 253.8125 166.484375 268.105469 164.300781 277.75 159.585938 Z M 277.75 159.585938 " fill-opacity="1" fill-rule="nonzero"/><path fill="#3c6ab2" d="M 277.75 81.234375 C 277.253906 83.628906 265.289062 91.089844 240.15625 91.089844 C 214.953125 91.089844 202.917969 83.628906 202.566406 81.234375 C 202.917969 78.839844 214.953125 71.378906 240.15625 71.378906 C 265.359375 71.449219 277.394531 78.839844 277.75 81.234375 Z M 277.75 81.234375 " fill-opacity="1" fill-rule="nonzero"/></svg>