<svg xmlns="http://www.w3.org/2000/svg" xmlns:xlink="http://www.w3.org/1999/xlink" width="500" zoomAndPan="magnify" viewBox="0 0 375 374.999991" height="500" preserveAspectRatio="xMidYMid meet" version="1.0"><path fill="#74a842" d="M 229.953125 268.921875 L 135.429688 196.804688 C 130.003906 192.929688 129.230469 185.949219 133.105469 180.519531 L 168.746094 133.21875 C 172.621094 127.789062 179.59375 127.015625 185.015625 130.890625 L 279.539062 203.007812 C 284.964844 206.886719 285.738281 213.863281 281.863281 219.292969 L 246.226562 266.59375 C 242.351562 271.25 234.601562 272.800781 229.953125 268.921875 Z M 229.953125 268.921875 " fill-opacity="1" fill-rule="nonzero"/><path fill="#83bd57" d="M 188.890625 155.707031 L 253.972656 205.335938 C 249.324219 211.539062 250.875 219.292969 256.296875 223.945312 L 243.125 241.003906 C 236.925781 236.351562 229.179688 237.902344 224.53125 243.332031 L 159.449219 193.703125 C 164.097656 187.5 162.546875 179.746094 157.125 175.09375 L 170.296875 158.03125 C 176.492188 162.6875 185.015625 161.910156 188.890625 155.707031 Z M 188.890625 155.707031 " fill-opacity="1" fill-rule="nonzero"/><path fill="#74a842" d="M 216.78125 207.660156 C 210.585938 215.417969 201.285156 217.742188 196.636719 213.863281 C 191.214844 209.988281 191.988281 199.90625 198.1875 192.929688 C 204.386719 185.171875 213.683594 182.847656 218.332031 186.722656 C 222.980469 190.601562 222.980469 199.90625 216.78125 207.660156 Z M 216.78125 207.660156 " fill-opacity="1" fill-rule="nonzero"/><path fill="#ffca67" d="M 205.160156 171.214844 L 199.738281 164.238281 C 198.1875 160.359375 174.945312 135.546875 174.167969 134.769531 C 171.84375 130.117188 181.917969 128.566406 185.789062 131.667969 L 213.683594 152.605469 L 201.285156 118.484375 C 198.960938 112.28125 194.3125 106.851562 188.113281 104.527344 L 110.636719 68.082031 L 62.597656 116.160156 C 99.015625 164.238281 121.484375 169.664062 121.484375 169.664062 C 131.554688 174.316406 134.65625 175.867188 134.65625 175.867188 L 153.25 153.378906 C 160.996094 154.929688 168.746094 168.113281 168.746094 168.113281 C 172.621094 177.417969 179.59375 185.949219 184.242188 190.601562 C 189.664062 195.253906 197.414062 196.03125 202.835938 191.378906 C 209.808594 186.722656 210.585938 177.417969 205.160156 171.214844 Z M 205.160156 171.214844 " fill-opacity="1" fill-rule="nonzero"/><path fill="#f5b948" d="M 153.25 154.15625 C 136.203125 154.929688 107.535156 140.972656 91.265625 115.382812 C 99.789062 121.585938 126.90625 146.402344 153.25 154.15625 Z M 153.25 154.15625 " fill-opacity="1" fill-rule="nonzero"/><path fill="#ffffff" d="M 202.0625 183.621094 L 193.539062 190.601562 C 191.988281 192.152344 188.890625 192.152344 187.339844 189.828125 L 181.140625 182.070312 C 178.042969 177.417969 178.816406 171.214844 182.691406 168.113281 C 187.339844 165.011719 193.539062 165.789062 196.636719 169.664062 L 202.835938 177.417969 C 204.386719 179.746094 203.609375 182.070312 202.0625 183.621094 Z M 202.0625 183.621094 " fill-opacity="1" fill-rule="nonzero"/><path fill="#efefed" d="M 51.75 116.933594 L 44.003906 109.179688 L 102.113281 51.019531 L 109.859375 58.777344 C 112.960938 61.878906 112.960938 66.53125 109.859375 69.632812 L 63.375 116.933594 C 60.273438 119.261719 54.851562 119.261719 51.75 116.933594 Z M 51.75 116.933594 " fill-opacity="1" fill-rule="nonzero"/><path fill="#e9715f" d="M 22.308594 109.179688 L 6.039062 92.894531 C -0.160156 86.691406 -0.160156 77.386719 6.039062 71.183594 L 64.921875 12.25 C 71.121094 6.046875 80.417969 6.046875 86.617188 12.25 L 102.886719 28.535156 C 109.085938 34.738281 109.085938 44.042969 102.886719 50.246094 L 44.003906 109.179688 C 37.804688 115.382812 28.507812 115.382812 22.308594 109.179688 Z M 22.308594 109.179688 " fill-opacity="1" fill-rule="nonzero"/><path fill="#ffca67" d="M 341.523438 288.308594 L 289.613281 330.957031 C 279.539062 323.980469 267.144531 319.324219 253.199219 320.875 C 253.199219 320.875 191.214844 327.855469 168.746094 317 C 149.375 307.695312 105.988281 297.613281 61.824219 282.878906 C 56.398438 281.328125 53.300781 275.902344 54.074219 270.472656 C 54.851562 266.59375 57.949219 263.492188 61.824219 262.71875 C 64.148438 262.71875 67.246094 262.71875 70.347656 265.042969 C 70.347656 265.042969 78.09375 255.738281 85.84375 258.066406 C 85.84375 258.066406 157.125 273.574219 184.242188 272.800781 C 184.242188 272.800781 156.347656 268.148438 157.898438 258.839844 C 157.898438 258.839844 157.898438 234.027344 215.234375 256.515625 C 215.234375 256.515625 233.828125 262.71875 250.097656 251.085938 C 250.097656 251.085938 277.992188 231.699219 309.757812 261.941406 C 308.984375 261.167969 326.804688 272.800781 341.523438 288.308594 Z M 341.523438 288.308594 " fill-opacity="1" fill-rule="nonzero"/><path fill="#f5b948" d="M 70.347656 264.269531 C 80.417969 265.820312 95.140625 270.472656 103.664062 275.125 C 93.589844 274.351562 78.871094 269.699219 70.347656 264.269531 Z M 70.347656 264.269531 " fill-opacity="1" fill-rule="nonzero"/><path fill="#59b1e3" d="M 297.359375 361.199219 L 288.839844 351.121094 C 283.414062 344.140625 284.191406 334.835938 291.164062 329.40625 L 339.199219 289.859375 C 346.171875 284.429688 355.46875 285.207031 360.894531 292.183594 L 369.417969 302.265625 C 374.839844 309.246094 374.066406 318.550781 367.09375 323.980469 L 319.054688 363.527344 C 312.855469 368.953125 302.785156 368.179688 297.359375 361.199219 Z M 297.359375 361.199219 " fill-opacity="1" fill-rule="nonzero"/></svg>