<svg xmlns="http://www.w3.org/2000/svg" xmlns:xlink="http://www.w3.org/1999/xlink" width="500" zoomAndPan="magnify" viewBox="0 0 375 374.999991" height="500" preserveAspectRatio="xMidYMid meet" version="1.0"><defs><clipPath id="1948920299"><path d="M 40.226562 163 L 279 163 L 279 368 L 40.226562 368 Z M 40.226562 163 " clip-rule="nonzero"/></clipPath><clipPath id="2a42a627a4"><path d="M 212 224 L 334.976562 224 L 334.976562 374.929688 L 212 374.929688 Z M 212 224 " clip-rule="nonzero"/></clipPath></defs><path fill="#99a4ac" d="M 251.390625 173.511719 C 245.527344 173.511719 226.460938 173.511719 220.597656 173.511719 C 217.664062 173.511719 215.464844 171.316406 215.464844 168.386719 L 215.464844 162.527344 L 256.523438 162.527344 L 256.523438 168.386719 C 256.523438 171.316406 254.324219 173.511719 251.390625 173.511719 Z M 215.464844 101.003906 L 215.464844 98.808594 C 215.464844 68.046875 191.269531 43.144531 160.472656 43.144531 C 130.410156 43.144531 105.484375 68.046875 105.484375 98.808594 L 105.484375 168.386719 C 105.484375 171.316406 103.285156 173.511719 100.351562 173.511719 C 94.484375 173.511719 75.421875 173.511719 69.554688 173.511719 C 66.621094 173.511719 64.421875 171.316406 64.421875 168.386719 L 64.421875 95.878906 C 64.421875 70.242188 74.6875 46.074219 93.019531 28.496094 C 111.347656 10.1875 134.8125 -0.0664062 160.472656 -0.0664062 C 186.136719 -0.0664062 210.332031 10.1875 228.660156 28.496094 C 246.992188 46.074219 256.523438 70.242188 256.523438 95.878906 L 256.523438 101.003906 Z M 215.464844 101.003906 " fill-opacity="1" fill-rule="evenodd"/><g clip-path="url(#1948920299)"><path fill="#fdbe2d" d="M 256.523438 367.601562 L 50.492188 367.601562 C 44.625 367.601562 40.226562 363.207031 40.226562 357.347656 L 40.226562 168.386719 C 40.226562 165.457031 42.425781 163.257812 45.359375 163.257812 L 273.386719 163.257812 C 276.320312 163.257812 278.519531 165.457031 278.519531 168.386719 L 278.519531 229.910156 C 278.519531 232.839844 261.65625 259.9375 261.65625 362.476562 C 261.65625 365.402344 259.457031 367.601562 256.523438 367.601562 Z M 256.523438 367.601562 " fill-opacity="1" fill-rule="evenodd"/></g><path fill="#f68a34" d="M 178.804688 314.136719 L 142.875 314.136719 C 141.410156 314.136719 139.945312 313.402344 139.210938 312.671875 C 138.476562 311.207031 137.742188 309.742188 137.742188 308.277344 L 142.144531 266.527344 C 134.8125 261.402344 131.144531 253.34375 131.144531 244.558594 C 131.144531 229.175781 144.34375 216.726562 159.742188 216.726562 C 175.136719 216.726562 187.601562 229.175781 187.601562 244.558594 C 187.601562 252.613281 184.667969 259.203125 180.269531 265.0625 L 183.9375 308.277344 C 183.9375 309.742188 183.9375 311.207031 182.46875 312.671875 C 181.738281 313.402344 180.269531 314.136719 178.804688 314.136719 Z M 178.804688 314.136719 " fill-opacity="1" fill-rule="evenodd"/><g clip-path="url(#2a42a627a4)"><path fill="#5fd3ae" d="M 273.386719 374.925781 C 272.65625 374.925781 272.65625 374.925781 272.65625 374.925781 C 255.789062 369.796875 242.59375 359.546875 233.0625 345.628906 C 224.261719 333.179688 218.398438 317.796875 214.730469 299.488281 C 212.53125 287.035156 211.796875 273.121094 212.53125 257.007812 C 212.53125 254.078125 212.53125 251.148438 213.265625 247.488281 C 213.265625 246.753906 213.996094 246.023438 214.730469 245.289062 C 215.464844 244.558594 216.199219 244.558594 216.929688 244.558594 C 231.59375 246.753906 246.257812 243.824219 258.722656 235.769531 C 262.390625 232.839844 266.789062 229.175781 271.1875 225.515625 C 272.65625 224.78125 274.121094 224.78125 275.585938 225.515625 C 279.988281 229.175781 284.386719 232.839844 288.050781 235.769531 C 301.25 243.824219 315.179688 246.753906 329.84375 244.558594 C 332.042969 244.558594 333.511719 246.023438 333.511719 247.488281 C 334.242188 248.949219 334.242188 250.414062 334.242188 251.878906 C 334.242188 253.34375 334.242188 254.808594 334.242188 255.542969 C 334.976562 256.273438 334.976562 256.273438 334.976562 256.273438 C 334.976562 270.191406 334.242188 284.839844 332.042969 298.753906 C 329.113281 317.796875 322.511719 333.179688 314.449219 345.628906 C 304.183594 359.546875 290.984375 369.796875 274.121094 374.925781 C 274.121094 374.925781 273.386719 374.925781 273.386719 374.925781 Z M 273.386719 374.925781 " fill-opacity="1" fill-rule="evenodd"/></g><path fill="#8adfc4" d="M 273.386719 358.082031 C 272.65625 358.082031 272.65625 358.082031 271.921875 358.082031 C 260.191406 352.953125 249.925781 344.898438 243.324219 333.179688 C 231.59375 314.867188 227.929688 287.035156 227.929688 264.332031 C 227.929688 262.867188 229.394531 261.402344 230.863281 260.667969 C 243.324219 259.9375 255.058594 256.273438 266.789062 248.21875 C 273.386719 244.558594 271.921875 243.824219 279.988281 248.21875 C 290.984375 255.542969 303.449219 259.9375 315.914062 260.667969 C 317.378906 261.402344 318.847656 262.132812 318.847656 264.332031 C 318.847656 277.515625 318.113281 287.035156 316.648438 296.558594 C 310.78125 328.785156 296.851562 348.558594 274.855469 358.082031 C 274.121094 358.082031 273.386719 358.082031 273.386719 358.082031 Z M 273.386719 358.082031 " fill-opacity="1" fill-rule="evenodd"/><path fill="#5eac24" d="M 259.457031 329.515625 C 257.257812 329.515625 255.789062 328.785156 254.324219 328.050781 L 241.859375 316.332031 C 238.925781 313.402344 238.195312 309.007812 241.125 305.347656 C 244.058594 302.417969 248.457031 302.417969 251.390625 305.347656 L 259.457031 311.9375 L 294.652344 276.78125 C 297.582031 273.851562 301.984375 273.851562 304.914062 276.78125 C 307.847656 279.710938 307.847656 284.105469 304.914062 287.035156 L 264.589844 327.320312 C 263.121094 328.785156 260.921875 329.515625 259.457031 329.515625 Z M 259.457031 329.515625 " fill-opacity="1" fill-rule="evenodd"/></svg>