<svg xmlns="http://www.w3.org/2000/svg" xmlns:xlink="http://www.w3.org/1999/xlink" width="500" zoomAndPan="magnify" viewBox="0 0 375 374.999991" height="500" preserveAspectRatio="xMidYMid meet" version="1.0"><defs><clipPath id="be8d65dfb5"><path d="M 87 148 L 298 148 L 298 357.808594 L 87 357.808594 Z M 87 148 " clip-rule="nonzero"/></clipPath></defs><path fill="#cecece" d="M 374.828125 182.792969 C 374.828125 220.679688 344.15625 251.414062 306.34375 251.414062 L 71.675781 251.414062 C 33.804688 251.414062 3.078125 220.679688 3.078125 182.792969 C 3.078125 144.90625 33.804688 114.171875 71.675781 114.171875 C 78.125 114.171875 84.398438 115.042969 90.265625 116.785156 C 97.351562 95.984375 117.101562 81.109375 140.277344 81.109375 C 147.363281 81.109375 154.273438 82.503906 160.433594 85.175781 C 164.496094 51.007812 193.484375 24.511719 228.625 24.511719 C 266.496094 24.511719 297.109375 55.25 297.109375 93.136719 C 297.109375 100.921875 295.773438 108.476562 293.390625 115.449219 C 297.574219 114.578125 301.929688 114.113281 306.285156 114.113281 C 344.15625 114.113281 374.828125 144.90625 374.828125 182.792969 Z M 374.828125 182.792969 " fill-opacity="1" fill-rule="nonzero"/><path fill="#ffffff" d="M 325.453125 116.902344 C 319.414062 115.15625 312.964844 114.113281 306.34375 114.113281 C 301.988281 114.113281 297.574219 114.578125 293.449219 115.449219 C 299.140625 98.832031 298.734375 79.191406 289.207031 60.769531 C 279.972656 42.933594 262.777344 29.976562 243.089844 25.90625 C 201.730469 17.480469 165.019531 46.359375 160.433594 85.117188 C 154.332031 82.503906 147.421875 81.050781 140.277344 81.050781 C 117.101562 81.050781 97.351562 95.925781 90.265625 116.726562 C 84.457031 114.984375 78.355469 114.113281 71.96875 114.113281 C 39.613281 113.9375 12.082031 135.144531 4.878906 166.699219 C 0.347656 186.570312 4.53125 205.453125 14.289062 220.328125 L 221.945312 220.328125 C 279.101562 220.328125 325.453125 174.019531 325.453125 116.902344 Z M 325.453125 116.902344 " fill-opacity="0.2" fill-rule="nonzero"/><path fill="#ffffff" d="M 265.042969 35.03125 C 254.472656 28.347656 242.042969 24.453125 228.625 24.453125 C 193.484375 24.453125 164.496094 50.949219 160.433594 85.117188 C 154.332031 82.503906 147.421875 81.050781 140.277344 81.050781 C 117.101562 81.050781 97.351562 95.925781 90.265625 116.726562 C 84.457031 114.984375 78.296875 114.113281 71.96875 114.113281 C 45.886719 113.996094 21.605469 129.683594 10.164062 153.160156 C 2.378906 169.078125 1.742188 184.128906 4.761719 197.785156 L 152.183594 197.785156 C 214.511719 197.785156 265.042969 147.230469 265.042969 84.882812 Z M 265.042969 35.03125 " fill-opacity="0.2" fill-rule="nonzero"/><g clip-path="url(#be8d65dfb5)"><path fill="#f15853" d="M 295.015625 277.679688 C 285.433594 273.554688 278.753906 263.910156 278.753906 252.808594 C 278.753906 241.769531 285.433594 232.183594 295.015625 228 C 296.527344 227.300781 297.339844 225.5 296.933594 223.933594 C 294.550781 215.214844 291.066406 206.964844 286.769531 199.351562 C 285.839844 197.785156 283.921875 197.203125 282.179688 197.902344 C 272.539062 201.5625 261.210938 199.527344 253.425781 191.742188 C 245.644531 183.957031 243.609375 172.566406 247.269531 162.921875 C 247.96875 161.234375 247.386719 159.261719 245.816406 158.332031 C 238.207031 154.089844 229.960938 150.601562 221.246094 148.21875 C 219.621094 147.8125 217.820312 148.570312 217.183594 150.136719 C 213 159.726562 203.472656 166.347656 192.378906 166.347656 C 181.285156 166.347656 171.699219 159.726562 167.578125 150.136719 C 166.820312 148.625 165.078125 147.8125 163.453125 148.21875 C 154.738281 150.601562 146.492188 154.089844 138.882812 158.332031 C 137.3125 159.261719 136.734375 161.175781 137.429688 162.921875 C 141.089844 172.566406 139.054688 183.898438 131.273438 191.742188 C 123.488281 199.527344 112.105469 201.5625 102.519531 197.902344 C 100.835938 197.203125 98.859375 197.785156 97.933594 199.351562 C 93.574219 206.964844 90.148438 215.214844 87.765625 223.933594 C 87.359375 225.5 88.113281 227.359375 89.683594 228 C 99.269531 232.183594 105.949219 241.769531 105.949219 252.808594 C 105.949219 263.910156 99.269531 273.554688 89.683594 277.679688 C 88.171875 278.378906 87.359375 280.179688 87.765625 281.746094 C 90.148438 290.464844 93.632812 298.714844 97.933594 306.382812 C 98.859375 307.953125 100.777344 308.476562 102.519531 307.777344 C 112.164062 304.117188 123.429688 306.152344 131.214844 313.9375 C 139 321.722656 141.089844 333.113281 137.429688 342.757812 C 136.734375 344.441406 137.3125 346.417969 138.882812 347.347656 C 146.492188 351.589844 154.738281 355.078125 163.453125 357.460938 C 165.078125 357.867188 166.878906 357.167969 167.578125 355.542969 C 171.699219 345.953125 181.285156 339.328125 192.378906 339.328125 C 203.472656 339.328125 213 345.953125 217.183594 355.542969 C 217.878906 357.109375 219.621094 357.867188 221.246094 357.460938 C 229.960938 355.078125 238.207031 351.589844 245.816406 347.347656 C 247.386719 346.417969 247.96875 344.5 247.269531 342.757812 C 243.609375 333.113281 245.703125 321.78125 253.484375 313.9375 C 261.269531 306.152344 272.59375 304.117188 282.179688 307.777344 C 283.863281 308.476562 285.839844 307.953125 286.769531 306.382812 C 291.125 298.714844 294.550781 290.464844 296.933594 281.746094 C 297.339844 280.238281 296.527344 278.378906 295.015625 277.679688 Z M 295.015625 277.679688 " fill-opacity="1" fill-rule="nonzero"/></g><path fill="#d83f3f" d="M 192.261719 331.078125 C 149.105469 331.078125 113.964844 295.984375 113.964844 252.867188 C 113.964844 209.753906 149.105469 174.65625 192.261719 174.65625 C 235.363281 174.65625 270.445312 209.753906 270.445312 252.867188 C 270.445312 295.984375 235.421875 331.078125 192.261719 331.078125 Z M 192.261719 184.59375 C 154.566406 184.59375 123.953125 215.214844 123.953125 252.867188 C 123.953125 290.519531 154.625 321.144531 192.261719 321.144531 C 229.902344 321.144531 260.515625 290.519531 260.515625 252.867188 C 260.515625 215.214844 229.902344 184.59375 192.261719 184.59375 Z M 192.261719 184.59375 " fill-opacity="1" fill-rule="nonzero"/><path fill="#ffffff" d="M 232.167969 151.996094 C 228.566406 150.601562 224.964844 149.265625 221.132812 148.21875 C 219.503906 147.8125 217.703125 148.570312 217.066406 150.136719 C 212.882812 159.726562 203.355469 166.347656 192.261719 166.347656 C 181.167969 166.347656 171.585938 159.726562 167.460938 150.136719 C 166.707031 148.625 164.960938 147.8125 163.335938 148.21875 C 154.625 150.601562 146.375 154.089844 138.765625 158.332031 C 137.199219 159.261719 136.617188 161.175781 137.3125 162.921875 C 140.972656 172.566406 138.941406 183.898438 131.15625 191.683594 C 123.375 199.46875 111.988281 201.503906 102.347656 197.84375 C 100.660156 197.144531 98.6875 197.726562 97.757812 199.296875 C 93.402344 206.90625 89.972656 215.15625 87.59375 223.875 C 87.1875 225.441406 87.941406 227.300781 89.507812 227.941406 C 99.09375 232.125 105.773438 241.710938 105.773438 252.753906 C 105.773438 263.851562 99.09375 273.496094 89.507812 277.621094 C 88 278.320312 87.1875 280.121094 87.59375 281.6875 C 88.753906 286.046875 90.265625 290.289062 91.949219 294.355469 L 173.558594 294.355469 C 157.644531 287.210938 146.609375 271.289062 146.609375 252.753906 C 146.609375 227.476562 167.054688 207.082031 192.261719 207.082031 C 209.515625 207.082031 224.441406 216.667969 232.167969 230.847656 Z M 232.167969 151.996094 " fill-opacity="0.15" fill-rule="nonzero"/><path fill="#ffffff" d="M 188.195312 190.171875 L 188.195312 166.058594 C 178.84375 164.664062 171.0625 158.503906 167.460938 150.136719 C 166.707031 148.625 164.960938 147.8125 163.335938 148.21875 C 154.625 150.601562 146.375 154.089844 138.765625 158.332031 C 137.199219 159.261719 136.617188 161.175781 137.3125 162.921875 C 140.972656 172.566406 138.941406 183.898438 131.15625 191.683594 C 123.375 199.46875 111.988281 201.503906 102.347656 197.84375 C 100.660156 197.144531 98.6875 197.726562 97.757812 199.296875 C 93.402344 206.90625 89.972656 215.15625 87.59375 223.875 C 87.1875 225.441406 87.941406 227.300781 89.507812 227.941406 C 98.628906 231.949219 105.078125 240.898438 105.65625 251.300781 L 130.460938 251.300781 C 131.738281 221.316406 150.964844 192.324219 188.195312 190.171875 Z M 188.195312 190.171875 " fill-opacity="0.15" fill-rule="nonzero"/><path fill="#ffffff" d="M 192.261719 308.941406 C 161.246094 308.941406 136.152344 283.839844 136.152344 252.867188 C 136.152344 221.839844 161.246094 196.738281 192.261719 196.738281 C 223.222656 196.738281 248.316406 221.839844 248.316406 252.867188 C 248.316406 283.839844 223.222656 308.941406 192.261719 308.941406 Z M 192.261719 308.941406 " fill-opacity="1" fill-rule="nonzero"/><path fill="#000000" d="M 235.59375 217.308594 C 225.953125 209.347656 213.523438 204.523438 199.929688 204.523438 C 168.96875 204.523438 143.820312 229.625 143.820312 260.65625 C 143.820312 274.078125 148.582031 286.453125 156.480469 296.097656 C 144.050781 285.816406 136.152344 270.300781 136.152344 252.925781 C 136.152344 221.839844 161.246094 196.796875 192.261719 196.796875 C 209.746094 196.738281 225.3125 204.699219 235.59375 217.308594 Z M 235.59375 217.308594 " fill-opacity="0.05" fill-rule="nonzero"/><path fill="#115876" d="M 177.449219 267.222656 L 175.652344 262.574219 L 160.546875 262.574219 L 158.746094 267.335938 C 158.050781 269.195312 157.46875 270.476562 156.945312 271.113281 C 156.425781 271.753906 155.667969 272.101562 154.566406 272.101562 C 153.636719 272.101562 152.765625 271.753906 152.066406 271.054688 C 151.371094 270.359375 150.964844 269.601562 150.964844 268.671875 C 150.964844 268.152344 151.023438 267.628906 151.195312 267.105469 C 151.371094 266.582031 151.660156 265.828125 152.007812 264.839844 L 161.476562 240.722656 C 161.769531 240.027344 162.058594 239.214844 162.464844 238.226562 C 162.871094 237.238281 163.277344 236.425781 163.683594 235.785156 C 164.089844 235.144531 164.671875 234.625 165.371094 234.214844 C 166.066406 233.808594 166.9375 233.636719 167.984375 233.636719 C 169.027344 233.636719 169.898438 233.808594 170.597656 234.214844 C 171.292969 234.625 171.875 235.144531 172.28125 235.726562 C 172.6875 236.308594 173.09375 237.003906 173.386719 237.761719 C 173.675781 238.457031 174.082031 239.445312 174.488281 240.609375 L 184.1875 264.546875 C 184.945312 266.347656 185.351562 267.6875 185.351562 268.5 C 185.351562 269.371094 185.003906 270.125 184.246094 270.882812 C 183.492188 271.636719 182.679688 271.984375 181.632812 271.984375 C 181.050781 271.984375 180.53125 271.871094 180.125 271.695312 C 179.714844 271.460938 179.367188 271.171875 179.078125 270.824219 C 178.789062 270.476562 178.496094 269.894531 178.148438 269.136719 C 177.972656 268.441406 177.683594 267.800781 177.449219 267.222656 Z M 162.582031 256.878906 L 173.675781 256.878906 L 168.042969 241.597656 Z M 162.582031 256.878906 " fill-opacity="1" fill-rule="nonzero"/><path fill="#115876" d="M 205.390625 256.9375 L 198.476562 256.9375 L 198.476562 267.453125 C 198.476562 268.964844 198.128906 270.066406 197.433594 270.882812 C 196.734375 271.636719 195.804688 272.042969 194.761719 272.042969 C 193.65625 272.042969 192.726562 271.636719 192.03125 270.882812 C 191.332031 270.125 190.984375 268.964844 190.984375 267.511719 L 190.984375 238.863281 C 190.984375 237.238281 191.390625 236.019531 192.148438 235.320312 C 192.902344 234.625 194.121094 234.273438 195.75 234.273438 L 205.390625 234.273438 C 208.238281 234.273438 210.445312 234.507812 211.953125 234.914062 C 213.464844 235.320312 214.800781 236.019531 215.902344 237.003906 C 217.007812 237.992188 217.820312 239.15625 218.402344 240.609375 C 218.984375 242.003906 219.273438 243.628906 219.273438 245.371094 C 219.273438 249.148438 218.109375 251.996094 215.789062 253.972656 C 213.523438 256.007812 210.039062 256.9375 205.390625 256.9375 Z M 203.589844 239.910156 L 198.535156 239.910156 L 198.535156 251.242188 L 203.589844 251.242188 C 205.390625 251.242188 206.84375 251.066406 208.0625 250.660156 C 209.28125 250.253906 210.152344 249.671875 210.792969 248.859375 C 211.429688 247.988281 211.722656 246.882812 211.722656 245.546875 C 211.722656 243.921875 211.257812 242.582031 210.269531 241.539062 C 209.164062 240.492188 206.957031 239.910156 203.589844 239.910156 Z M 203.589844 239.910156 " fill-opacity="1" fill-rule="nonzero"/><path fill="#115876" d="M 225.894531 267.453125 L 225.894531 238.167969 C 225.894531 236.65625 226.242188 235.496094 226.941406 234.738281 C 227.636719 233.984375 228.507812 233.578125 229.613281 233.578125 C 230.714844 233.578125 231.644531 233.925781 232.34375 234.679688 C 233.039062 235.4375 233.386719 236.597656 233.386719 238.109375 L 233.386719 267.394531 C 233.386719 268.90625 233.039062 270.066406 232.34375 270.824219 C 231.644531 271.578125 230.714844 271.984375 229.613281 271.984375 C 228.507812 271.984375 227.636719 271.578125 226.941406 270.824219 C 226.242188 270.125 225.894531 268.964844 225.894531 267.453125 Z M 225.894531 267.453125 " fill-opacity="1" fill-rule="nonzero"/></svg>